<svg version="1.1" id="Layer_1" xmlns="http://www.w3.org/2000/svg" xmlns:xlink="http://www.w3.org/1999/xlink" x="0px" y="0px"
	 width="100%" viewBox="0 0 1024 1024" enable-background="new 0 0 1024 1024" xml:space="preserve">
<path fill="#000000" opacity="1.000000" stroke="none" 
	d="
M325.205322,731.829346 
	C296.090668,708.597778 271.969879,681.439514 253.630768,649.390869 
	C246.204300,636.412720 238.060715,624.190430 226.642136,614.359375 
	C223.775558,611.891357 220.923386,610.258240 216.880951,610.189575 
	C196.118820,609.837280 182.871857,599.405151 174.821243,577.331604 
	C173.938934,574.912415 172.414856,572.539551 173.074249,569.788208 
	C173.452911,569.543396 173.769730,569.170471 173.988312,569.221130 
	C193.757370,573.806641 213.261063,579.048889 222.216827,600.182068 
	C224.431244,605.407532 227.582336,609.229065 232.119125,612.222656 
	C232.648270,612.571838 233.263275,612.790894 233.748077,613.026367 
	C234.872055,612.242615 234.416718,611.465454 234.117020,610.725586 
	C228.051956,595.752686 222.040863,580.757568 215.890518,565.819763 
	C211.965836,556.287598 205.704529,548.292603 198.806335,540.761597 
	C196.797592,538.568665 194.151123,537.613098 191.317062,537.078003 
	C163.771317,531.876770 152.961746,512.043457 148.893753,488.988983 
	C148.673431,487.740326 148.865326,486.419006 148.865326,484.349365 
	C156.301682,486.579681 162.611298,489.862488 168.903275,493.012421 
	C184.696548,500.918976 195.145142,513.192566 198.587662,530.870056 
	C199.777893,536.981995 205.188889,539.624695 208.928619,543.723083 
	C207.047668,531.952515 203.223450,520.696411 202.302261,508.883392 
	C201.480972,498.351807 197.490219,489.281677 190.071381,481.717499 
	C188.347748,479.960114 187.973465,477.593445 187.770554,475.247925 
	C184.730011,440.100586 187.651154,405.420654 196.310471,371.253387 
	C211.846939,309.950928 242.549118,257.363678 288.035431,213.511749 
	C317.515198,185.091232 351.541107,163.487762 389.346985,147.814499 
	C438.095398,127.604736 488.889954,118.112854 541.553162,120.991913 
	C611.698120,124.826691 674.476501,148.376663 728.387634,194.122299 
	C729.371277,194.956940 730.666931,195.585526 730.940735,197.601990 
	C728.311523,197.472351 726.769043,195.652008 725.094727,194.334229 
	C682.282043,160.638458 633.234741,141.761047 579.855652,133.192352 
	C562.400330,130.390366 544.824829,128.751495 527.140991,129.357254 
	C478.642670,131.018600 432.164215,141.345703 388.166351,162.184540 
	C350.698975,179.930313 317.413940,203.530777 289.148926,233.857285 
	C257.268463,268.062927 233.470657,307.286957 218.388199,351.646393 
	C209.508179,377.763672 204.223984,404.580597 202.038284,432.120117 
	C200.275146,454.335571 201.445389,476.435211 203.908585,498.413055 
	C205.137238,509.375610 209.050491,520.070679 212.088303,530.790710 
	C220.591095,560.796021 230.821640,590.166504 245.645309,619.361389 
	C243.779022,608.727417 242.159958,599.456055 241.298431,590.075623 
	C239.772903,573.465332 239.467346,556.926819 241.119675,540.250244 
	C242.122620,530.127563 239.126755,520.163086 235.702332,510.560974 
	C235.399841,509.712799 234.468399,509.012207 233.693558,508.420563 
	C218.625351,496.914551 212.423386,481.776550 214.540100,462.951416 
	C215.189835,457.172882 215.718994,451.485840 218.172729,446.118500 
	C219.030197,446.306458 219.670197,446.247589 219.951813,446.537231 
	C231.514694,458.427521 241.402603,471.279816 242.722122,488.654907 
	C242.996567,492.268829 242.514374,495.971100 242.099487,499.600494 
	C240.981033,509.384216 240.920746,509.377319 244.227570,520.783875 
	C248.531006,507.155396 251.412399,493.754150 256.011871,480.864624 
	C259.684204,470.573273 265.300018,460.971832 266.336945,449.721497 
	C266.994446,442.587463 267.898438,435.497498 267.760010,428.313110 
	C267.719421,426.204926 267.007996,424.444336 265.904053,422.728424 
	C254.158432,404.471436 254.151733,385.776703 263.899231,366.754028 
	C266.830505,361.033539 269.777893,355.311981 273.711578,350.015686 
	C274.611725,350.638611 275.232666,350.829193 275.333771,351.172760 
	C279.168182,364.201233 284.872620,376.772034 284.323761,390.842285 
	C283.933411,400.849335 282.266296,410.554993 276.568298,418.859436 
	C271.709351,425.941040 272.215820,433.432495 272.515320,442.566437 
	C274.973846,438.452271 276.693451,435.470825 278.511200,432.550446 
	C287.080933,418.782288 296.939240,405.997803 308.191498,394.323914 
	C311.894409,390.482300 314.422668,386.207550 315.453583,380.948578 
	C319.727997,359.143280 332.975372,344.835602 353.070557,336.391998 
	C358.537872,334.094757 363.992249,331.662262 369.731079,330.530182 
	C370.171295,331.215729 370.548950,331.549011 370.487610,331.744598 
	C365.653229,347.157471 361.203644,362.790741 350.021271,375.170410 
	C344.837250,380.909454 338.899261,386.338684 331.311493,388.025818 
	C319.221161,390.714111 311.049713,398.191986 303.623657,407.251556 
	C285.035431,429.928680 271.194397,455.189606 262.001892,483.015289 
	C261.854034,483.462921 261.811127,483.945251 261.456543,485.743652 
	C267.677917,478.613068 274.090820,473.586304 277.009216,465.046539 
	C283.386047,446.386871 297.935516,436.913483 316.513550,432.876617 
	C321.804932,431.726837 327.096954,430.214478 333.571350,430.544891 
	C329.744843,439.352203 325.928558,447.375916 320.873840,454.750885 
	C311.704742,468.128723 298.742462,475.185059 282.775787,476.621460 
	C278.095398,477.042511 274.733459,478.961334 271.507172,482.142456 
	C258.329315,495.135956 252.236877,511.382507 249.489670,529.201111 
	C247.049057,545.030945 245.698990,560.943298 246.266785,576.980469 
	C246.319580,578.472107 246.311859,579.977844 247.705261,581.979736 
	C250.674911,575.898926 255.071136,571.027710 255.621262,564.334534 
	C256.929901,548.412476 265.147614,536.901794 278.541992,528.930176 
	C285.828186,524.593811 293.966003,522.215942 301.956696,519.646423 
	C302.490448,520.671936 302.996216,521.184021 302.898834,521.522583 
	C298.366669,537.277771 293.836853,553.025879 279.529694,563.350830 
	C274.861481,566.719788 269.800415,569.196594 264.225189,570.449219 
	C260.284546,571.334595 258.034119,573.727478 256.030579,577.062805 
	C247.216339,591.736145 249.525558,606.923950 252.783630,622.552734 
	C257.235352,643.907349 270.019043,660.633911 282.282623,677.562439 
	C303.481171,706.824707 329.519257,731.304321 358.911011,752.255432 
	C359.855225,752.928528 360.756683,753.667847 361.625793,754.435425 
	C361.831573,754.617126 361.825928,755.038208 362.359863,756.850647 
	C348.898926,748.939819 336.943359,740.883850 325.205322,731.829346 
z"/>
<path fill="#000000" opacity="1.000000" stroke="none" 
	d="
M620.794983,736.242432 
	C617.903687,736.669617 615.570129,734.760437 613.080139,735.744019 
	C609.930847,749.965393 603.834595,754.967163 588.584717,751.981934 
	C586.491760,759.318787 582.228271,764.565979 574.139343,765.890991 
	C571.032227,766.400024 568.138550,765.757690 565.294739,764.893372 
	C562.925232,764.173218 561.808716,764.769836 560.574280,766.941528 
	C556.308472,774.445862 549.206726,777.030823 540.991272,774.308228 
	C536.518555,772.826111 532.455750,770.514282 528.942200,767.374878 
	C527.224060,765.839600 526.011841,765.458374 523.808411,766.930298 
	C511.704681,775.015686 500.916626,770.588440 497.599335,756.385498 
	C497.492493,755.928101 497.204376,755.513062 496.894836,754.851929 
	C492.524933,756.022705 488.193237,756.832947 483.691101,755.309753 
	C477.609558,753.252197 473.639404,749.391052 472.744141,742.978699 
	C472.312042,739.883850 471.401489,738.878174 468.011353,739.114441 
	C456.199158,739.937805 449.032410,733.276428 448.725494,721.522766 
	C448.659088,718.980225 448.236237,717.642273 445.267242,717.308655 
	C431.489227,715.760254 425.279480,705.429138 430.827881,692.724976 
	C432.640686,688.574280 431.963196,686.275024 428.923065,683.297119 
	C421.995117,676.510925 415.744110,668.976257 411.629730,660.183411 
	C403.798096,643.446472 390.835052,632.137878 375.369537,622.792542 
	C352.380402,608.900879 328.466888,596.770508 304.675720,584.386108 
	C299.473572,581.678162 294.377869,578.765686 289.142883,575.897949 
	C290.516602,574.081055 291.497955,574.644287 292.376282,574.972351 
	C325.507996,587.350281 358.083893,600.907837 387.852722,620.353577 
	C400.052856,628.322998 409.899750,638.446655 416.925476,651.372864 
	C421.941559,660.601685 427.715790,669.381470 435.533508,676.622009 
	C438.018829,678.923889 440.020386,679.600342 443.350830,677.554260 
	C453.405273,671.377441 463.628479,674.339905 468.909363,684.834717 
	C470.394653,687.786377 471.825958,687.694824 474.378937,686.676147 
	C487.904144,681.279480 497.508698,686.655396 499.952179,701.440613 
	C506.474426,699.073486 512.909424,698.654419 518.704529,703.313599 
	C524.421875,707.910278 524.799683,714.404724 524.908142,721.237549 
	C532.057434,722.157471 536.675903,726.300598 541.097229,731.759094 
	C546.939575,738.971985 553.979675,745.231201 560.672546,751.727661 
	C562.428650,753.432129 564.701599,754.702454 566.916626,755.814819 
	C571.200439,757.966187 575.832886,757.053040 578.198608,753.748962 
	C580.944885,749.913452 579.617065,746.552002 576.851929,743.374817 
	C566.898193,731.937805 556.951782,720.494263 547.030945,709.028687 
	C545.616577,707.394104 544.269348,705.685364 543.049927,703.902222 
	C541.521362,701.666992 540.774963,699.117981 543.264832,697.210449 
	C545.551392,695.458557 547.725464,696.774780 549.427002,698.605042 
	C556.119934,705.804260 562.777344,713.036621 569.431458,720.271912 
	C575.182678,726.525330 580.730103,732.978943 586.702087,739.013062 
	C592.526306,744.898071 596.732971,745.737122 600.582092,742.609924 
	C604.538147,739.395752 604.805176,733.288147 600.884094,727.075989 
	C594.190247,716.471069 585.794128,707.171509 577.764526,697.600586 
	C573.695007,692.749878 569.473145,688.027283 565.367554,683.206360 
	C564.405029,682.076172 563.477234,680.861877 562.812378,679.545410 
	C561.795593,677.532043 561.229004,675.274841 563.277161,673.593933 
	C565.528870,671.745728 567.819885,672.748901 569.541138,674.496460 
	C573.631653,678.649475 577.619995,682.910828 581.502319,687.259888 
	C590.380615,697.205383 598.984436,707.382507 607.167908,717.915344 
	C609.099854,720.401978 611.315063,722.706604 613.628723,724.847839 
	C615.899475,726.949158 618.596069,728.426208 621.796387,726.832886 
	C625.279663,725.098511 626.116760,722.004761 625.719055,718.401245 
	C625.329346,714.870178 624.007751,711.633911 622.484070,708.478882 
	C615.688660,694.407104 606.519531,681.923401 596.236389,670.281738 
	C584.654114,657.169373 572.746765,644.393066 558.661133,633.773865 
	C545.982788,624.215576 533.852295,624.457031 520.251892,633.058899 
	C509.325134,639.969666 497.990906,645.054565 484.696411,644.270447 
	C474.519653,643.670166 466.090179,638.074219 463.594147,630.133240 
	C461.653107,623.957825 464.074615,618.541382 470.130310,616.505493 
	C481.456085,612.697876 492.135254,608.051758 500.197174,598.635742 
	C502.930023,595.443848 506.708832,593.147522 510.371765,590.145203 
	C504.492981,586.407166 498.511230,584.311279 492.403961,583.007324 
	C464.185120,576.982300 441.714050,560.947449 420.489929,542.533447 
	C399.665588,524.466248 380.078156,505.251801 363.807526,482.876770 
	C360.016541,477.663452 356.613251,472.208771 353.551147,465.576599 
	C357.049927,466.190399 358.159241,468.611389 359.658661,470.286438 
	C383.374939,496.781250 408.630676,521.660889 436.539185,543.761414 
	C442.023926,548.104797 447.669006,552.245667 453.238159,556.482544 
	C462.955200,563.874878 474.086945,568.281982 485.718536,571.430542 
	C497.154968,574.526367 508.454773,577.926697 519.151062,583.093140 
	C520.837219,583.907715 522.346375,584.627869 524.296875,583.599548 
	C538.948975,575.874695 554.774048,571.644165 571.083740,570.273560 
	C597.934509,568.017151 618.508301,554.250427 637.531555,536.780701 
	C656.572449,519.294739 674.651794,500.874542 692.195007,481.908539 
	C693.074951,480.957275 693.770081,479.737610 695.226624,479.553864 
	C696.575928,480.810303 695.488281,481.770264 694.915283,482.636780 
	C675.945496,511.326385 653.385620,536.749146 626.671143,558.519653 
	C610.931763,571.346252 592.632324,577.126465 572.939087,579.217651 
	C551.690735,581.473938 532.116699,588.523254 513.669250,598.965820 
	C510.372070,600.832214 507.532837,603.531677 504.560181,605.942688 
	C495.959717,612.918335 486.537872,618.487427 476.373596,622.874268 
	C471.258392,625.081970 470.851990,628.372559 475.404816,631.582031 
	C480.196777,634.960083 485.681763,636.235291 491.537018,635.254761 
	C500.597717,633.737427 508.528198,629.496582 516.160950,624.671021 
	C532.955566,614.053101 549.744263,614.715820 565.013855,626.743408 
	C590.202026,646.583740 611.579346,670.063599 627.362061,698.216370 
	C629.535461,702.093079 631.263184,702.758789 634.961060,700.189209 
	C648.977539,690.449158 659.113647,677.383179 667.545959,662.831665 
	C670.467346,657.790344 673.077332,652.567444 675.794373,647.408936 
	C685.908386,628.206848 702.916382,616.225159 720.356323,604.631470 
	C745.437134,587.958252 772.444519,574.997803 799.949829,562.978271 
	C801.227295,562.420044 802.531494,561.272766 804.183411,562.362854 
	C803.833130,564.652710 801.699280,564.810242 800.227966,565.636902 
	C768.971252,583.198181 738.525574,602.027588 709.817993,623.559875 
	C697.496033,632.802063 687.789124,644.166626 681.026367,658.173767 
	C672.538574,675.754089 661.317810,691.389404 646.015930,703.817200 
	C645.757202,704.027344 645.529236,704.290588 645.242615,704.448730 
	C638.231201,708.320068 633.265808,712.484070 634.327942,722.307983 
	C635.160034,730.003784 629.672668,734.134460 620.794983,736.242432 
M501.932526,739.433472 
	C506.824219,733.535217 511.759247,727.649292 514.832092,720.530640 
	C516.511230,716.640747 515.996460,712.796387 512.741394,710.036621 
	C509.243530,707.070984 505.375458,708.127258 502.247284,710.813843 
	C493.958435,717.932312 487.248291,726.400574 482.120789,736.048340 
	C480.300415,739.473511 480.822601,742.927795 483.730682,745.642151 
	C486.643311,748.360779 490.015564,748.341980 493.462189,746.646851 
	C496.668579,745.069885 499.117828,742.575012 501.932526,739.433472 
M465.415131,706.908386 
	C462.947998,710.064026 460.710083,713.360596 459.097046,717.050232 
	C456.712738,722.503967 457.456421,726.873901 461.239685,729.527832 
	C464.615479,731.895935 469.742218,731.376282 473.578369,727.702698 
	C480.106079,721.451538 485.532806,714.274292 489.679779,706.230957 
	C491.680145,702.351135 491.418762,698.280884 488.108246,695.207153 
	C484.663849,692.009033 480.754517,692.792480 477.065338,695.109436 
	C472.475494,697.992249 468.935669,701.940979 465.415131,706.908386 
M521.315125,731.655029 
	C515.045654,736.402344 511.277649,743.067688 507.779602,749.833923 
	C505.351013,754.531433 506.601837,759.495239 510.163940,761.822266 
	C513.773438,764.180298 519.014893,762.844666 522.455200,758.620728 
	C526.694458,753.415833 529.421997,747.393250 531.858765,741.200500 
	C533.173279,737.859680 532.500366,735.078064 530.079834,732.555420 
	C527.674744,730.048889 524.973083,729.726746 521.315125,731.655029 
M439.088348,706.333374 
	C443.859039,710.431641 447.301331,711.086792 450.973297,707.745422 
	C455.548615,703.582031 459.175751,698.530212 461.049072,692.561523 
	C462.678406,687.370178 457.803101,682.007690 452.465698,682.734375 
	C443.680023,683.930725 435.646820,697.309082 439.088348,706.333374 
M543.519958,766.108826 
	C546.600830,767.203674 549.440430,766.895630 551.688293,764.367859 
	C553.301147,762.554199 553.352478,760.277710 552.187134,758.328613 
	C549.212524,753.353455 545.141113,749.342590 540.863220,745.522583 
	C538.881287,746.819336 538.400635,748.469788 537.626526,749.887085 
	C531.949890,760.280457 531.957642,760.284729 543.519958,766.108826 
z"/>
<path fill="#000000" opacity="1.000000" stroke="none" 
	d="
M595.494995,814.726196 
	C570.771667,819.898071 546.163269,820.468384 521.522400,819.161926 
	C497.179443,817.871338 473.482849,812.327087 449.802307,806.909363 
	C422.985657,800.774231 396.090179,795.390503 368.312073,797.218628 
	C364.668213,797.458435 361.107452,798.767822 357.405487,798.064941 
	C357.150696,798.016602 356.951324,797.676086 356.192139,796.986023 
	C362.256134,794.038452 368.549561,792.970642 374.747864,791.818298 
	C396.736633,787.730225 418.797455,788.526917 440.869720,791.182251 
	C474.042267,795.172974 506.931396,801.694519 540.598938,801.106995 
	C592.793091,800.196106 641.533813,786.842102 687.045044,761.495850 
	C741.582458,731.122559 783.670654,688.305298 813.872803,633.771484 
	C832.422913,600.276733 844.704407,564.525146 851.705078,526.915039 
	C854.659424,511.043488 857.020569,495.104584 857.806335,478.960327 
	C857.869751,477.657196 857.821411,476.284271 859.334839,475.093353 
	C860.933105,476.525085 860.328552,478.412354 860.357483,480.027252 
	C860.824646,506.130249 857.588623,531.854248 851.737610,557.224854 
	C837.500305,618.959412 808.672424,672.998779 765.515808,719.395569 
	C729.553101,758.058411 686.787720,786.374146 636.924072,803.829041 
	C623.556824,808.508240 609.789185,811.799377 595.494995,814.726196 
z"/>
<path fill="#000000" opacity="1.000000" stroke="none" 
	d="
M477.613159,371.588989 
	C494.796448,358.376221 511.791443,345.499969 528.542358,332.313690 
	C533.086853,328.736298 536.437439,329.790558 540.467285,332.906708 
	C562.207825,349.718079 584.057556,366.388397 605.874939,383.100372 
	C607.418152,384.282440 608.794434,385.792969 611.217407,386.115936 
	C612.481384,381.223053 611.695251,376.420166 611.795288,371.686432 
	C611.929077,365.358917 611.898804,359.023834 611.757446,352.696045 
	C611.670898,348.821686 613.332764,347.398132 617.170105,347.439209 
	C626.815186,347.542389 636.465271,347.460907 646.109375,347.263000 
	C650.820984,347.166351 651.003845,350.108551 650.995239,353.539825 
	C650.946655,372.865112 651.025208,392.191193 650.852478,411.515167 
	C650.818176,415.341461 651.831360,417.996124 654.961060,420.431946 
	C669.155457,431.479431 683.158142,442.773132 697.224915,453.984406 
	C698.526794,455.022003 699.885925,456.011108 701.057861,457.183319 
	C703.401978,459.527954 703.007996,461.746246 699.698303,462.021118 
	C693.814819,462.509766 688.141907,462.924377 682.763428,458.487885 
	C670.050232,448.001312 656.799988,438.161987 643.676758,428.179352 
	C640.881470,426.053040 639.743469,423.583862 639.761780,420.099274 
	C639.857910,401.773956 639.817627,383.447784 639.774475,365.122040 
	C639.759705,358.857574 639.245361,358.361420 632.852600,358.318329 
	C621.632080,358.242676 623.078674,357.696747 623.015381,367.796600 
	C622.945435,378.958008 623.062012,390.120544 623.016296,401.282227 
	C623.005737,403.863525 623.802063,406.963562 620.968201,408.548798 
	C617.952576,410.235687 616.033081,407.489044 614.014160,405.976837 
	C589.084839,387.303925 564.129883,368.663635 539.371521,349.765930 
	C535.426697,346.754913 532.920105,347.028656 529.091919,349.939972 
	C481.896149,385.832245 434.486328,421.443542 387.364655,457.432312 
	C381.768616,461.706268 376.107178,462.596802 369.681061,462.191376 
	C368.166840,462.095825 366.546204,462.024963 365.986603,460.269012 
	C365.426941,458.512817 366.690643,457.478271 367.883301,456.546478 
	C374.576965,451.317078 381.277344,446.096161 387.995789,440.898621 
	C417.771118,417.863861 447.553375,394.838013 477.613159,371.588989 
z"/>
<path fill="#000000" opacity="1.000000" stroke="none" 
	d="
M583.972534,230.531052 
	C585.415222,246.259476 579.237427,258.950226 570.063660,270.438232 
	C559.384521,283.811279 546.445129,294.810150 532.700073,304.899445 
	C530.401184,306.586914 528.138245,307.523468 525.433044,305.538727 
	C507.316589,292.247101 490.616852,277.544830 479.012268,257.953094 
	C474.138184,249.724350 472.205505,240.673035 473.359467,231.083496 
	C474.724335,219.741760 480.007263,211.114517 491.202118,207.389893 
	C502.770844,203.540878 513.606750,205.454407 523.034058,213.407822 
	C525.156250,215.198181 526.696167,217.678696 528.890503,220.303711 
	C538.113831,210.394104 548.287598,205.369781 561.079834,206.735855 
	C573.548706,208.067429 580.802307,215.330994 583.972534,230.531052 
M496.753174,215.078537 
	C486.535706,218.795044 480.499359,229.111145 482.607819,239.603897 
	C484.161713,247.336777 487.020599,254.534546 491.537476,261.113373 
	C500.703186,274.463257 512.767578,284.892700 525.067078,295.127808 
	C527.415039,297.081665 529.408386,296.919281 531.715210,295.056580 
	C543.409058,285.614136 554.487976,275.506134 563.405151,263.363098 
	C570.167664,254.154236 575.426941,244.211121 574.803894,232.123825 
	C574.183044,220.078110 563.142212,211.735779 551.432556,214.775009 
	C543.388245,216.862930 537.785217,222.035782 533.529846,228.957809 
	C532.288879,230.976456 531.709290,233.606430 528.795471,234.851273 
	C526.157837,231.064880 523.778625,227.295776 521.036194,223.812622 
	C518.326599,220.371109 514.806274,217.789841 510.698059,216.176331 
	C506.450195,214.507965 502.071014,213.696182 496.753174,215.078537 
z"/>
<path fill="#000000" opacity="1.000000" stroke="none" 
	d="
M521.850708,432.694580 
	C528.857300,432.810577 528.992859,432.927856 529.021057,439.471588 
	C529.047546,445.623718 528.925659,451.778320 529.064514,457.927429 
	C529.146790,461.572296 527.545471,463.032349 524.001465,462.980072 
	C517.186096,462.879578 510.368622,462.923157 503.552032,462.903625 
	C501.133331,462.896698 499.421173,462.383270 499.483215,459.278107 
	C499.632355,451.810425 498.847778,444.358673 499.377350,436.857819 
	C499.618958,433.435760 500.884979,432.608398 503.912018,432.668976 
	C509.729431,432.785370 515.550903,432.698303 521.850708,432.694580 
z"/>
<path fill="#000000" opacity="1.000000" stroke="none" 
	d="
M566.743835,462.122131 
	C558.168579,463.646698 549.873657,462.877930 541.594543,462.844391 
	C538.920410,462.833557 537.789429,461.283112 537.802551,458.672455 
	C537.839417,451.365173 537.855530,444.057373 537.809082,436.750214 
	C537.790100,433.760040 539.233276,432.650269 542.114441,432.682892 
	C549.255066,432.763763 556.397278,432.711975 563.538818,432.711670 
	C565.517334,432.711578 567.321106,433.040497 567.306885,435.560608 
	C567.257507,444.326630 567.149475,453.092316 566.743835,462.122131 
z"/>
<path fill="#000000" opacity="1.000000" stroke="none" 
	d="
M555.983154,501.343689 
	C550.998901,501.364563 546.502197,501.264771 542.016663,501.444061 
	C539.060364,501.562225 537.724731,500.511047 537.762695,497.465546 
	C537.851746,490.312500 537.851440,483.156982 537.770325,476.003815 
	C537.733826,472.782471 539.165344,471.602905 542.322388,471.658142 
	C549.307800,471.780396 556.301208,471.823730 563.283325,471.622101 
	C567.382629,471.503723 567.876160,473.760162 567.783264,476.997833 
	C567.597351,483.477112 567.229980,489.979248 567.587280,496.436005 
	C567.822388,500.684509 566.199463,501.738586 562.462097,501.391144 
	C560.482117,501.207062 558.471985,501.347565 555.983154,501.343689 
z"/>
<path fill="#000000" opacity="1.000000" stroke="none" 
	d="
M514.007812,471.694519 
	C528.772888,471.679169 528.772949,471.679169 528.989746,486.009552 
	C529.222839,501.407928 529.222778,501.406158 514.028564,501.352295 
	C511.366455,501.342834 508.669464,501.081726 506.049683,501.415894 
	C501.111908,502.045807 499.071442,500.212311 499.296539,495.163086 
	C499.592621,488.522064 499.529785,481.861816 499.489166,475.210663 
	C499.473572,472.656708 500.463684,471.597595 503.030762,471.679199 
	C506.521149,471.790222 510.017914,471.699738 514.007812,471.694519 
z"/>
<path fill="#000000" opacity="1.000000" stroke="none" 
	d="
M798.795837,302.335754 
	C804.607422,305.990417 811.257629,305.384308 817.307983,307.902466 
	C809.966980,310.434021 801.379700,309.889221 795.941956,316.570709 
	C790.623413,323.105774 791.836548,331.681488 789.350708,339.965820 
	C786.917664,336.827362 787.214844,333.732117 786.847412,331.032227 
	C784.692810,315.199799 781.132141,311.502625 765.357788,309.345428 
	C763.815796,309.134583 761.982544,309.824554 760.330261,307.508301 
	C768.112183,305.241699 776.963928,306.002075 782.476685,299.074249 
	C787.813171,292.367950 786.288147,283.637451 788.799683,274.781860 
	C790.886475,279.411560 790.792419,283.173553 791.277039,286.798553 
	C792.063660,292.681305 793.335266,298.315918 798.795837,302.335754 
z"/>
<path fill="#000000" opacity="1.000000" stroke="none" 
	d="
M838.311829,360.490326 
	C838.739807,363.834564 839.010864,366.821899 839.585815,369.749573 
	C841.848450,381.270569 845.891663,385.019653 857.782104,386.828033 
	C860.216919,387.198334 862.652527,387.563141 865.250305,388.469543 
	C857.950378,390.923981 849.643494,390.979187 844.182068,397.395020 
	C838.664185,403.877106 839.810852,412.392578 837.253662,419.982117 
	C834.188904,412.731689 835.687683,404.266266 830.710938,397.588287 
	C825.444519,390.521698 816.808716,391.687592 808.807434,388.562988 
	C817.175842,386.087982 825.763733,386.894440 830.866150,379.684631 
	C835.397644,373.281433 835.077881,365.376984 836.353394,358.076019 
	C838.354370,358.391052 838.123291,359.365601 838.311829,360.490326 
z"/>
<path fill="#000000" opacity="1.000000" stroke="none" 
	d="
M784.198730,487.988037 
	C780.429260,478.957520 771.823914,479.352509 764.490234,477.002411 
	C770.522644,474.706573 777.619995,475.218689 781.940613,469.783600 
	C786.043152,464.622772 785.789673,457.811066 787.969604,451.687164 
	C789.835327,457.873108 789.635925,464.688416 793.465332,469.920685 
	C797.620850,475.598480 805.002686,474.512451 811.346802,476.541229 
	C809.022644,477.844452 789.064026,499.262146 787.479614,502.205261 
	C786.341187,497.148956 785.349426,492.744049 784.198730,487.988037 
z"/>
</svg>