<?xml version="1.0" standalone="no"?>
<!DOCTYPE svg PUBLIC "-//W3C//DTD SVG 20010904//EN"
 "http://www.w3.org/TR/2001/REC-SVG-20010904/DTD/svg10.dtd">
<svg version="1.0" xmlns="http://www.w3.org/2000/svg"
 width="2048.000000pt" height="2048.000000pt" viewBox="0 0 2048.000000 2048.000000"
 preserveAspectRatio="xMidYMid meet">

<g transform="translate(0.000000,2048.000000) scale(0.100000,-0.100000)"
fill="#000000" stroke="none">
<path d="M14506 12536 c-86 -32 -124 -105 -113 -219 6 -66 22 -120 106 -355
28 -79 51 -145 51 -148 0 -14 -31 20 -140 150 -135 163 -199 224 -272 260 -84
42 -150 32 -210 -31 -50 -52 -63 -134 -32 -199 38 -80 147 -124 429 -174 99
-18 189 -36 199 -40 20 -7 -43 -21 -269 -60 -267 -46 -375 -113 -375 -233 0
-112 92 -198 196 -182 51 7 143 66 200 126 22 24 84 96 136 159 53 63 108 126
122 140 26 23 25 20 -20 -105 -92 -255 -103 -291 -113 -356 -12 -74 -2 -153
25 -193 21 -33 91 -66 140 -66 50 0 114 30 142 64 50 65 48 183 -8 340 -15 44
-49 138 -74 209 -25 70 -43 127 -40 127 7 0 3 4 160 -182 141 -167 150 -175
227 -222 79 -47 125 -54 181 -27 65 32 100 90 101 167 0 81 -29 120 -128 169
-72 36 -125 49 -389 96 -71 12 -128 25 -128 29 0 4 15 10 33 13 165 28 333 60
382 73 81 22 172 71 202 111 95 124 -39 315 -189 269 -90 -27 -142 -74 -341
-310 -60 -70 -111 -126 -113 -123 -3 2 27 92 65 198 39 107 76 218 82 248 14
67 7 166 -14 208 -34 64 -134 97 -211 69z"/>
<path d="M13020 12399 c-224 -44 -358 -54 -748 -54 l-372 0 0 -56 0 -56 58 -6
c202 -21 286 -131 312 -405 5 -59 10 -334 10 -610 l0 -504 -27 22 c-154 119
-294 171 -522 190 -273 24 -562 -36 -776 -162 -355 -209 -573 -577 -640 -1083
-21 -154 -24 -530 -6 -700 51 -483 226 -857 497 -1060 127 -96 278 -163 453
-201 118 -26 381 -24 486 5 222 60 374 186 482 399 l48 94 3 -250 2 -251 33
10 c57 17 268 48 402 60 155 13 537 16 688 5 l107 -8 0 59 0 58 -75 12 c-136
22 -214 80 -256 193 -50 130 -48 66 -49 2263 0 1131 -3 2057 -7 2056 -5 -1
-51 -10 -103 -20z m-992 -1675 c88 -29 163 -76 215 -132 l37 -42 0 -1043 c0
-1121 1 -1095 -52 -1220 -30 -73 -99 -167 -155 -214 -103 -86 -200 -123 -317
-123 -220 0 -373 142 -464 430 -67 209 -91 414 -99 810 -8 433 13 693 77 945
124 492 401 707 758 589z"/>
<path d="M5680 11791 c-167 -88 -497 -161 -724 -161 l-76 0 -2 -392 -3 -393
-247 -3 -248 -2 0 -55 0 -55 248 -2 247 -3 5 -1175 c5 -1084 7 -1182 24 -1270
50 -258 162 -415 362 -507 181 -84 453 -106 658 -53 217 55 398 218 522 470
48 98 48 109 -5 139 -25 14 -46 20 -48 14 -2 -5 -25 -47 -51 -92 -57 -99 -138
-182 -212 -219 -122 -60 -285 -34 -344 55 -58 87 -56 45 -56 1400 l0 1243 350
0 350 0 0 55 0 55 -350 0 -350 0 0 485 c0 267 -3 485 -7 485 -5 -1 -24 -9 -43
-19z"/>
<path d="M2825 10920 c-450 -43 -796 -291 -870 -625 -21 -95 -16 -328 9 -420
34 -124 125 -276 250 -412 57 -64 256 -236 451 -392 327 -262 487 -418 545
-532 50 -97 64 -163 64 -289 0 -95 -4 -125 -23 -172 -64 -163 -203 -248 -405
-248 -323 0 -555 209 -686 618 -35 110 -77 295 -95 425 l-6 47 -60 0 c-32 0
-59 -1 -60 -2 0 -2 -4 -241 -9 -533 -5 -291 -12 -558 -15 -592 l-8 -63 64 0
64 0 17 58 c20 68 54 121 90 141 38 22 89 6 288 -89 98 -47 203 -89 260 -105
294 -79 676 -45 944 83 134 64 210 116 297 204 83 84 119 134 160 223 46 98
60 158 66 295 11 253 -59 440 -245 658 -78 90 -249 232 -597 492 -446 334
-537 431 -581 616 -32 137 0 285 80 367 171 176 526 163 734 -28 152 -139 265
-368 317 -645 10 -52 19 -101 21 -107 2 -9 24 -13 62 -13 l59 0 7 408 c5 224
11 458 15 520 l6 112 -62 0 c-61 0 -61 0 -68 -32 -16 -81 -38 -128 -72 -159
-31 -26 -42 -30 -74 -26 -21 3 -64 21 -96 40 -62 38 -188 92 -293 126 -133 44
-376 66 -545 51z"/>
<path d="M16993 10919 c-265 -20 -533 -107 -718 -232 -141 -96 -291 -269 -374
-432 -134 -262 -185 -519 -185 -945 0 -260 8 -360 45 -545 86 -433 332 -770
675 -926 430 -196 1026 -197 1452 -3 286 131 516 396 626 725 69 206 99 428
99 739 0 418 -54 701 -184 949 -216 414 -574 630 -1109 671 -148 11 -176 11
-327 -1z m251 -121 c242 -70 400 -403 458 -968 17 -167 17 -893 0 -1050 -46
-421 -132 -681 -278 -839 -79 -85 -146 -121 -238 -128 -157 -13 -290 88 -396
300 -130 258 -181 592 -181 1190 0 629 60 991 205 1251 42 74 130 174 182 207
75 46 169 60 248 37z"/>
<path d="M7705 10895 c-33 -8 -134 -24 -225 -37 -148 -20 -205 -23 -548 -23
l-382 0 0 -56 0 -56 59 -6 c85 -9 161 -41 203 -84 45 -48 64 -85 91 -181 21
-76 21 -95 27 -1067 7 -1074 7 -1079 65 -1249 76 -228 247 -368 514 -423 95
-20 357 -22 461 -4 241 41 449 143 576 284 50 55 139 185 149 217 19 59 25 -1
25 -240 0 -143 2 -260 4 -260 3 0 38 7 78 15 223 48 541 70 863 61 127 -3 243
-9 258 -12 l28 -7 -3 64 -3 64 -65 7 c-155 15 -233 88 -286 264 -17 55 -19
144 -21 1402 -3 1267 -4 1343 -21 1338 -36 -11 -252 -45 -367 -58 -78 -8 -247
-13 -483 -13 l-362 0 0 -56 0 -56 58 -6 c130 -14 203 -60 252 -160 63 -130 63
-118 67 -1031 6 -1024 3 -1066 -88 -1251 -44 -91 -178 -228 -261 -268 -85 -40
-181 -60 -263 -54 -170 13 -251 81 -300 252 -19 68 -20 106 -23 1388 -1 724
-6 1317 -10 1316 -4 -1 -34 -7 -67 -14z"/>
<path d="M14885 10889 c-217 -44 -352 -54 -748 -54 l-377 0 0 -56 0 -56 67 -6
c86 -8 180 -53 218 -103 36 -47 64 -121 81 -214 20 -113 20 -2155 0 -2252 -35
-162 -118 -232 -293 -245 l-73 -6 0 -59 0 -60 273 9 c346 10 751 10 1080 0
l257 -9 0 60 0 59 -68 6 c-122 10 -218 61 -258 138 -8 16 -22 56 -31 91 -15
57 -17 184 -20 1421 -2 746 -7 1356 -11 1356 -4 -1 -47 -10 -97 -20z"/>
</g>
</svg>
