<?xml version="1.0" standalone="no"?>
<!DOCTYPE svg PUBLIC "-//W3C//DTD SVG 20010904//EN"
 "http://www.w3.org/TR/2001/REC-SVG-20010904/DTD/svg10.dtd">
<svg version="1.0" xmlns="http://www.w3.org/2000/svg"
 width="1588.000000pt" height="546.000000pt" viewBox="0 0 1588.000000 546.000000"
 preserveAspectRatio="xMidYMid meet">
<metadata>
Created by potrace 1.16, written by Peter Selinger 2001-2019
</metadata>
<g transform="translate(0.000000,546.000000) scale(0.100000,-0.100000)"
fill="currentColor" stroke="none">
<path d="M12078 5205 c-3 -3 -45 -10 -94 -16 -49 -5 -102 -16 -118 -24 -16 -8
-40 -15 -53 -15 -12 0 -40 -9 -60 -20 -21 -11 -45 -20 -55 -20 -9 0 -29 -6
-45 -14 -56 -28 -120 -56 -128 -56 -5 0 -29 -9 -54 -21 -69 -31 -104 -47 -121
-53 -8 -3 -22 -10 -30 -15 -8 -5 -37 -19 -65 -31 -27 -12 -63 -27 -80 -35 -16
-8 -57 -26 -90 -40 -33 -14 -67 -30 -75 -36 -8 -5 -22 -12 -30 -15 -8 -3 -26
-12 -40 -19 -14 -7 -46 -24 -72 -38 -26 -14 -66 -38 -90 -54 -24 -16 -51 -32
-60 -36 -10 -3 -18 -11 -18 -16 0 -5 -9 -13 -20 -16 -11 -3 -26 -12 -33 -18
-7 -7 -20 -16 -28 -22 -55 -35 -98 -66 -124 -89 -16 -15 -35 -30 -40 -34 -80
-57 -332 -294 -480 -453 -130 -139 -294 -316 -332 -359 -104 -116 -233 -267
-283 -330 -14 -18 -42 -53 -63 -77 -45 -54 -115 -161 -146 -224 -29 -59 -18
-89 33 -89 62 0 174 107 451 430 26 30 73 84 104 120 32 36 89 101 127 144
135 156 380 386 411 386 3 0 15 8 25 17 11 10 35 16 62 16 56 0 111 -54 157
-153 6 -14 15 -32 20 -40 5 -8 15 -29 22 -45 17 -37 72 -85 97 -85 21 0 98 58
152 116 72 76 121 130 187 203 61 69 137 153 219 241 17 19 32 38 32 43 0 4 7
7 15 7 23 0 18 -27 -21 -109 -20 -42 -44 -94 -54 -116 -10 -22 -28 -62 -41
-90 -12 -27 -26 -57 -31 -65 -4 -8 -11 -22 -14 -30 -3 -8 -12 -28 -20 -43 -7
-16 -14 -33 -14 -38 0 -6 -10 -31 -22 -57 -29 -64 -30 -126 -2 -130 24 -3 141
151 199 263 9 17 23 42 33 56 9 15 35 57 57 93 56 95 58 98 77 126 9 14 24 41
35 60 18 35 93 151 103 160 3 3 18 24 34 47 35 52 139 163 153 163 6 0 16 6
22 13 21 26 86 38 138 27 112 -25 146 -147 66 -236 -16 -16 -41 -50 -58 -75
-16 -24 -33 -46 -37 -49 -8 -6 -41 -67 -88 -160 -58 -114 -70 -141 -70 -153 0
-7 -7 -25 -15 -40 -8 -15 -17 -45 -21 -65 -3 -20 -13 -57 -22 -81 -12 -32 -16
-82 -16 -195 -1 -151 -1 -151 32 -212 50 -91 146 -185 232 -226 102 -48 128
-58 151 -58 13 0 35 -6 49 -13 27 -14 153 -28 295 -33 177 -6 243 -20 217 -46
-22 -22 -337 -17 -381 6 -24 13 -59 19 -115 20 -86 1 -109 -9 -209 -91 -63
-51 -64 -10 -2 63 85 99 54 119 -62 38 -35 -24 -67 -44 -72 -44 -20 0 -141
-126 -141 -148 0 -51 42 -74 128 -70 74 4 185 27 247 50 50 19 220 21 294 4
81 -19 236 -36 331 -36 71 0 71 0 121 47 50 46 50 46 91 7 23 -21 47 -44 53
-50 17 -20 111 -98 135 -114 12 -8 43 -31 69 -50 55 -42 71 -51 136 -83 106
-51 143 -67 159 -67 9 0 29 -6 44 -14 15 -8 45 -18 66 -22 51 -9 166 -67 193
-96 23 -26 44 -238 23 -238 -5 0 -33 21 -62 48 -186 167 -265 184 -383 81 -60
-53 -159 -146 -249 -232 -91 -89 -207 -194 -324 -295 -34 -30 -62 -60 -62 -68
0 -7 -11 -21 -24 -29 -27 -18 -49 -11 -91 25 -44 37 -109 50 -291 59 -178 9
-256 23 -320 58 -50 26 -68 12 -60 -45 10 -79 -5 -85 -66 -26 -119 115 -388
304 -432 304 -8 0 -18 5 -21 10 -12 20 -74 11 -89 -13 -30 -47 -18 -66 145
-218 22 -20 39 -44 39 -53 0 -21 -42 -21 -78 -1 -15 8 -38 20 -52 25 -27 12
-47 24 -95 55 -46 31 -61 44 -154 136 -127 126 -186 135 -174 26 4 -33 0 -51
-18 -79 -28 -43 -35 -46 -44 -18 -3 11 -10 20 -15 20 -5 0 -23 23 -41 50 -18
27 -36 50 -41 50 -14 0 -9 37 7 50 22 19 18 42 -15 74 -16 16 -32 38 -36 50
-3 12 -12 28 -18 36 -6 8 -22 49 -35 90 -13 41 -28 85 -32 98 -7 17 -3 37 16
76 33 70 32 92 -5 111 -42 22 -47 36 -38 126 8 84 32 148 82 222 14 21 26 40
26 43 0 3 39 44 86 92 47 48 92 101 100 117 7 17 19 39 25 50 23 38 29 50 40
75 6 14 15 32 20 40 21 37 59 120 59 128 0 5 16 25 36 46 25 26 34 42 29 56
-10 32 -32 24 -93 -38 -31 -32 -70 -66 -86 -77 -16 -11 -40 -29 -55 -41 -47
-38 -210 -150 -291 -200 -139 -87 -190 -97 -190 -40 0 72 -18 83 -49 32 -15
-24 -21 -50 -21 -94 0 -86 -9 -103 -108 -201 -76 -76 -401 -341 -418 -341 -3
0 -26 -16 -50 -37 -25 -20 -71 -54 -104 -77 -32 -23 -93 -67 -135 -99 -87 -67
-98 -67 -148 -4 -84 107 -131 298 -103 423 12 53 -12 62 -87 30 -34 -14 -67
-26 -73 -26 -6 0 -17 -7 -24 -15 -7 -8 -21 -15 -33 -15 -11 0 -35 -9 -53 -21
-46 -28 -89 -23 -90 11 -2 43 -4 48 -20 64 -66 67 -367 -157 -584 -435 -46
-59 -57 -73 -80 -99 -16 -18 -49 -37 -88 -50 -76 -25 -135 -61 -158 -95 -19
-29 -36 -32 -54 -10 -20 24 -102 57 -130 52 -35 -7 -155 -55 -210 -86 -23 -12
-70 -37 -135 -70 -33 -17 -80 -43 -105 -57 -25 -14 -70 -39 -100 -55 -30 -17
-68 -38 -85 -49 -35 -22 -59 -34 -227 -123 -193 -101 -249 -127 -273 -127 -17
0 -93 -37 -117 -58 -11 -9 -28 -12 -45 -9 -15 4 -64 13 -108 22 -44 9 -103 23
-131 31 -28 7 -71 14 -95 15 -61 1 -192 32 -196 46 -2 6 6 14 19 18 57 18 203
157 236 226 54 111 62 159 62 366 0 157 -3 201 -16 228 -29 63 -21 69 91 76
124 6 196 31 246 81 96 99 31 246 -141 318 -14 5 -37 17 -52 25 -14 8 -34 15
-45 15 -21 0 -122 31 -140 43 -7 5 -13 15 -13 23 0 30 -110 203 -167 262 -7 7
-13 22 -13 32 0 10 -4 21 -9 24 -5 4 -23 34 -39 69 -17 34 -41 75 -54 90 -55
66 -83 -24 -31 -99 84 -122 111 -164 120 -190 5 -16 16 -45 23 -64 22 -63 24
-80 7 -80 -8 0 -17 3 -19 8 -1 4 -36 29 -77 56 -109 74 -241 237 -241 299 0
39 -36 138 -59 161 -26 25 -71 15 -71 -17 0 -30 19 -79 59 -157 92 -179 -23
-423 -281 -593 -76 -50 -186 -108 -223 -118 -16 -4 -49 -15 -72 -23 -22 -8
-70 -18 -106 -22 -64 -6 -64 -6 -72 70 -6 67 -4 82 14 117 12 22 21 48 21 58
0 10 7 38 15 62 18 49 2 116 -34 142 -48 34 -19 98 99 218 227 232 274 378
182 569 -14 30 -30 57 -34 58 -4 2 -8 10 -8 17 0 7 -18 36 -40 64 -63 79 -54
89 37 41 142 -75 230 -149 383 -320 90 -101 120 -129 140 -130 8 0 32 -6 55
-14 22 -8 69 -19 105 -25 173 -31 207 -38 233 -49 40 -17 217 -16 242 2 11 7
58 16 104 19 80 5 84 6 112 40 42 51 110 59 200 24 243 -93 347 -109 401 -60
26 24 23 32 -33 85 -50 47 -50 47 -24 54 14 3 56 -1 93 -10 85 -20 223 -30
241 -18 15 10 32 98 24 119 -7 17 -124 93 -143 93 -9 0 -25 6 -36 14 -11 8
-38 18 -60 21 -21 4 -47 12 -57 17 -19 10 -135 34 -231 48 -57 8 -98 4 -241
-21 -61 -11 -75 -10 -105 4 -57 25 -73 28 -139 19 -55 -8 -65 -7 -88 12 -27
21 -98 34 -313 56 -181 19 -359 64 -404 102 -6 4 -35 8 -65 8 -53 0 -58 2 -85
38 -17 20 -36 41 -43 45 -7 4 -13 13 -13 19 0 36 -236 271 -414 413 -20 17
-49 40 -62 53 -24 21 -227 166 -262 187 -10 5 -35 21 -57 36 -73 48 -199 105
-260 117 -65 13 -172 -1 -197 -26 -7 -7 -16 -12 -21 -12 -15 0 -152 -82 -160
-97 -4 -7 -14 -13 -22 -13 -8 0 -18 -6 -22 -12 -4 -7 -42 -41 -83 -74 -118
-96 -210 -195 -278 -297 -38 -57 -39 -70 -10 -89 22 -15 22 -15 -5 -49 -42
-52 -41 -51 -64 -94 -11 -23 -24 -61 -28 -85 -4 -25 -11 -52 -16 -61 -12 -23
-38 -400 -46 -662 -5 -195 -4 -226 10 -254 21 -39 21 -72 2 -97 -18 -23 -20
-281 -5 -406 6 -41 14 -156 20 -255 9 -165 26 -297 51 -400 6 -22 15 -60 20
-85 5 -25 16 -57 24 -72 8 -14 15 -34 15 -43 0 -9 6 -29 14 -43 8 -15 35 -70
61 -122 77 -156 71 -146 179 -284 87 -110 233 -255 299 -298 82 -52 106 -88
58 -88 -22 0 -71 -51 -71 -74 0 -33 114 -116 159 -116 10 0 21 -4 27 -9 5 -6
27 -14 49 -20 22 -5 54 -14 70 -19 17 -6 62 -20 100 -31 39 -11 98 -30 133
-41 34 -11 71 -20 83 -20 11 0 30 -5 42 -12 33 -17 194 -45 422 -73 123 -16
468 -17 755 -4 85 3 211 -79 241 -158 31 -83 -99 -161 -304 -183 -51 -5 -102
-13 -114 -16 -33 -9 -261 25 -323 49 -60 22 -250 115 -315 153 -22 13 -53 30
-70 38 -16 8 -55 29 -85 46 -65 35 -86 37 -115 10 -19 -18 -43 -21 -211 -30
-104 -6 -195 -13 -203 -16 -8 -2 -321 -9 -695 -14 -375 -6 -746 -13 -826 -16
-80 -4 -749 -9 -1487 -11 -1343 -5 -1343 -5 -1343 -30 0 -26 0 -26 1658 -19
911 4 1770 11 1907 17 138 5 419 14 625 19 255 6 412 15 490 26 173 26 170 26
285 -41 33 -20 74 -42 90 -51 17 -8 53 -28 80 -44 28 -16 57 -29 66 -29 9 -1
22 -7 28 -15 7 -8 27 -18 44 -22 18 -3 37 -10 43 -15 6 -5 47 -18 90 -30 246
-63 581 -12 703 109 48 48 53 56 48 87 -14 87 -116 187 -231 225 -68 23 -72
23 -242 12 -182 -12 -585 -2 -709 19 -203 33 -274 49 -355 77 -25 9 -63 19
-85 23 -22 4 -53 12 -70 18 -54 19 -129 42 -165 51 -31 8 -116 38 -193 69 -22
9 -28 16 -25 37 5 43 96 68 223 60 113 -6 272 8 328 29 20 8 47 15 60 15 12 1
40 9 62 20 22 11 48 19 58 20 11 0 31 6 45 14 15 7 54 23 87 36 33 12 78 30
101 41 23 10 46 19 51 19 25 0 123 51 132 69 19 34 -9 46 -82 32 -34 -7 -97
-18 -140 -26 -44 -8 -84 -18 -90 -23 -7 -6 -32 -13 -57 -17 -25 -3 -63 -12
-85 -20 -22 -7 -62 -18 -90 -23 -107 -23 -172 -40 -191 -49 -10 -6 -41 -14
-69 -18 -27 -4 -55 -11 -60 -15 -6 -5 -40 -15 -76 -24 -80 -18 -128 -7 -217
51 -71 46 -342 315 -342 339 0 4 -7 16 -17 26 -9 10 -21 27 -27 37 -6 11 -32
56 -58 100 -27 44 -48 86 -48 94 0 8 -7 20 -15 27 -8 7 -15 19 -15 28 0 8 -8
33 -19 56 -23 51 -61 175 -61 199 0 10 -6 30 -14 45 -7 15 -16 68 -20 117 -4
50 -11 110 -16 135 -12 57 -36 539 -33 648 4 144 22 184 115 254 69 51 85 47
123 -27 17 -33 38 -72 48 -86 13 -20 16 -44 15 -108 -3 -82 -3 -82 47 -129 28
-26 59 -52 70 -58 15 -8 19 -24 22 -84 2 -63 9 -85 44 -154 57 -113 72 -140
87 -149 6 -4 12 -12 12 -18 0 -5 18 -33 40 -62 55 -71 53 -68 74 -102 35 -54
237 -242 290 -270 64 -33 82 -42 104 -55 9 -6 31 -17 47 -25 17 -9 37 -20 45
-25 32 -20 110 -50 131 -50 38 0 90 49 116 109 13 31 31 68 39 83 8 14 14 33
14 43 0 9 8 30 17 48 9 18 19 47 22 66 14 80 54 28 64 -82 10 -112 60 -161
127 -127 53 28 223 197 363 364 23 27 51 59 63 70 11 12 47 55 80 96 32 41 80
97 106 125 26 27 48 53 48 58 0 4 9 7 20 7 41 0 14 -121 -69 -305 -39 -85 -62
-164 -59 -196 4 -46 47 -52 97 -14 45 32 64 19 38 -26 -26 -46 -23 -105 7
-125 52 -33 137 36 233 191 7 11 17 32 24 48 6 15 14 27 17 27 4 0 21 23 37
50 17 27 35 48 40 47 35 -11 58 -296 31 -389 -9 -31 -16 -63 -16 -72 0 -65
-158 -276 -206 -276 -6 0 -14 -7 -18 -15 -3 -8 -14 -15 -25 -15 -11 0 -23 -5
-26 -10 -24 -39 -89 -54 -240 -55 -165 -1 -198 -9 -224 -57 -15 -26 -14 -29
13 -57 49 -51 121 -47 261 13 98 43 116 48 147 43 18 -3 74 -11 123 -17 50 -6
119 -17 155 -25 36 -8 88 -17 117 -20 28 -3 68 -12 87 -20 19 -8 47 -15 61
-15 24 0 29 -7 26 -41 -5 -46 94 -183 127 -177 24 5 18 120 -10 165 -23 38
-17 70 15 83 12 4 42 15 67 25 94 35 238 103 245 116 4 5 15 9 25 9 10 0 25 7
33 15 8 7 26 17 41 21 14 3 26 10 26 14 0 4 12 13 28 19 25 10 94 47 197 107
22 13 54 30 70 39 17 8 50 27 75 41 58 34 256 134 306 156 97 41 153 31 211
-40 52 -62 83 -115 83 -139 0 -10 5 -24 11 -30 6 -6 18 -40 26 -75 8 -34 20
-88 28 -118 15 -64 6 -86 -41 -109 -16 -8 -47 -26 -69 -40 -22 -14 -51 -31
-65 -38 -14 -7 -40 -22 -57 -33 -18 -11 -48 -29 -65 -40 -18 -11 -45 -25 -60
-31 -16 -6 -28 -15 -28 -19 0 -5 -10 -12 -21 -15 -12 -4 -47 -24 -78 -45 -122
-82 -223 -140 -245 -140 -8 0 -19 -6 -25 -14 -7 -8 -24 -17 -39 -20 -15 -4
-40 -13 -57 -20 -75 -35 -135 -58 -280 -107 -49 -17 -94 -34 -100 -38 -5 -5
-28 -12 -50 -16 -22 -4 -45 -11 -50 -15 -6 -5 -29 -13 -50 -19 -40 -10 -114
-33 -170 -52 -16 -6 -48 -15 -70 -20 -22 -5 -54 -16 -72 -24 -17 -8 -37 -15
-45 -15 -19 0 -123 -44 -142 -59 -49 -41 16 -86 113 -78 152 11 410 60 459 86
11 6 31 11 44 11 13 0 38 9 56 20 18 11 41 20 50 20 10 0 27 7 38 15 10 8 25
15 33 15 14 0 36 10 176 75 39 18 111 52 160 75 50 23 97 45 105 50 8 5 76 39
150 77 162 83 311 163 326 174 6 5 37 23 70 40 158 84 184 113 184 209 0 48 0
48 72 96 86 58 166 136 174 171 12 45 -2 201 -20 227 -9 14 -16 34 -16 45 0
24 -53 105 -83 126 -16 11 -19 19 -12 29 6 8 25 37 44 65 19 28 38 51 43 51 4
0 8 4 8 10 0 5 10 20 23 33 133 141 174 180 252 242 50 40 116 87 147 104 57
32 57 32 68 11 21 -40 4 -87 -43 -117 -63 -39 -106 -87 -172 -195 -11 -17
-129 -254 -151 -303 -19 -43 -44 -114 -55 -160 -32 -127 87 -150 331 -64 86
30 118 42 160 61 48 21 47 21 128 69 107 63 242 223 242 286 0 51 -98 30 -215
-46 -22 -14 -51 -31 -65 -38 -14 -7 -34 -18 -45 -24 -26 -16 -39 -23 -100 -54
-27 -15 -59 -35 -70 -44 -31 -28 -124 -91 -134 -91 -5 0 -14 -7 -21 -15 -17
-20 -77 -30 -94 -16 -23 19 20 119 109 255 57 87 138 211 172 261 18 27 33 54
33 60 0 6 12 22 28 36 25 23 45 33 147 79 22 10 61 28 88 40 77 35 81 31 88
-88 4 -62 14 -120 24 -145 56 -137 87 -184 149 -229 51 -37 68 -35 119 10 43
40 159 129 188 147 22 13 80 55 173 125 41 30 84 62 96 70 13 8 31 22 39 30 9
8 40 34 68 56 185 147 286 252 304 318 6 23 17 37 32 41 41 12 231 110 254
132 7 6 22 15 33 18 11 3 20 10 20 14 0 4 10 12 23 18 12 6 59 38 105 72 97
72 115 77 98 27 -6 -18 -17 -40 -23 -47 -6 -8 -14 -24 -17 -36 -4 -13 -11 -23
-16 -23 -5 0 -12 -10 -16 -22 -9 -29 -46 -76 -131 -163 -72 -75 -146 -201
-159 -272 -4 -21 -10 -45 -15 -54 -4 -8 -10 -43 -13 -78 -7 -73 -10 -81 -39
-81 -12 -1 -40 -9 -62 -20 -22 -11 -45 -19 -52 -20 -50 -1 -283 -184 -283
-222 0 -6 -7 -20 -16 -29 -11 -12 -18 -44 -22 -88 -5 -69 -5 -69 36 -112 33
-37 51 -47 108 -62 75 -19 284 -24 326 -8 13 5 48 10 78 12 54 4 54 4 134 -95
79 -98 79 -98 77 -191 -1 -72 2 -95 14 -105 8 -7 15 -18 15 -25 0 -13 26 -64
75 -150 12 -22 44 -83 70 -135 26 -52 54 -102 62 -111 16 -19 9 -61 -13 -80
-8 -6 -14 -19 -14 -29 0 -10 -7 -23 -15 -30 -8 -7 -15 -19 -15 -28 0 -8 -9
-34 -20 -58 -11 -24 -29 -65 -41 -91 -68 -156 -91 -206 -101 -223 -4 -8 -11
-22 -15 -30 -3 -8 -14 -34 -24 -57 -11 -23 -19 -50 -19 -60 0 -10 -7 -27 -15
-37 -20 -27 -19 -119 1 -162 38 -79 118 -114 224 -96 80 14 215 81 278 139 7
7 17 13 21 13 10 0 142 130 174 171 79 105 64 198 -37 223 -17 4 -58 36 -96
74 -61 62 -76 81 -112 152 -7 14 -18 29 -25 33 -14 8 -18 57 -5 57 9 0 62 -66
62 -77 0 -5 8 -16 18 -24 9 -9 31 -34 47 -55 17 -21 43 -50 59 -64 15 -14 47
-43 70 -64 43 -41 169 -106 205 -106 12 0 36 -6 54 -13 18 -8 50 -17 72 -21
22 -4 60 -15 85 -23 66 -24 390 -25 416 -2 11 9 32 19 47 23 16 4 34 11 40 16
7 6 38 30 69 55 32 25 81 68 110 96 47 45 53 48 68 34 10 -9 43 -18 76 -21 33
-2 115 -9 184 -15 76 -6 694 -13 1588 -16 1462 -5 1462 -5 1462 23 0 29 0 29
-683 30 -904 0 -2380 13 -2490 21 -88 6 -88 6 -85 32 3 25 5 26 103 34 55 4
111 12 125 18 14 6 48 15 75 19 50 8 113 28 172 55 17 8 34 15 38 15 13 0 179
84 193 97 7 7 17 13 22 13 34 0 228 162 274 229 32 46 26 91 -13 91 -39 0 -30
19 39 91 38 40 70 77 70 81 0 5 23 6 50 2 48 -6 51 -5 85 30 48 51 47 98 -1
203 -36 78 -36 78 -25 185 14 126 7 176 -29 243 -36 65 -41 111 -50 465 -6
288 -8 306 -43 390 -6 14 -23 54 -37 90 -28 66 -48 82 -75 60 -12 -10 -15 -45
-15 -177 0 -209 -5 -222 -66 -162 -24 24 -44 49 -44 56 0 6 -6 16 -14 20 -7 4
-21 23 -30 40 -17 33 -53 50 -81 39 -31 -12 -37 -57 -31 -228 7 -196 10 -193
-92 -128 -64 41 -78 51 -113 83 -10 9 -21 17 -24 17 -3 0 -34 23 -69 50 -82
64 -131 83 -181 67 -35 -10 -38 -10 -59 18 -44 61 -55 144 -41 296 6 62 4 85
-11 125 -19 51 -116 164 -141 164 -7 0 -13 5 -13 11 0 5 -15 17 -32 25 -18 8
-60 34 -93 58 -33 25 -64 45 -68 45 -11 1 -76 69 -104 109 -21 28 -23 43 -23
144 0 123 -20 202 -72 283 -80 125 -98 191 -78 277 28 117 119 188 239 188 73
0 74 -2 43 -57 -56 -101 -60 -358 -7 -460 8 -15 15 -37 15 -48 1 -11 7 -31 15
-45 8 -14 14 -33 15 -43 0 -29 108 -256 167 -354 102 -167 295 -393 337 -393
7 0 19 -7 26 -16 8 -8 48 -31 89 -51 74 -35 79 -36 202 -36 93 0 133 4 155 15
16 8 55 27 87 41 31 15 57 31 57 37 0 5 6 10 13 10 7 0 23 14 37 31 14 17 31
37 38 44 21 23 15 64 -12 74 -39 16 -82 1 -216 -75 -102 -58 -190 -40 -320 62
-116 91 -328 330 -367 413 -7 14 -17 33 -23 41 -29 42 -80 144 -80 158 0 10
-9 31 -20 47 -11 17 -20 39 -20 50 0 11 -7 33 -15 48 -8 15 -17 45 -21 65 -3
20 -12 55 -19 78 -25 75 -40 278 -25 323 25 76 94 111 220 111 80 0 80 0 229
-147 140 -138 183 -185 271 -294 19 -23 42 -50 50 -59 8 -9 29 -36 45 -60 17
-25 33 -46 38 -48 4 -2 7 -9 7 -16 0 -7 15 -33 33 -57 67 -89 180 -340 192
-429 10 -71 57 -100 71 -44 8 32 -2 153 -16 189 -5 14 -14 49 -19 78 -40 224
-241 578 -412 728 -121 105 -287 199 -353 199 -21 0 -113 61 -139 93 -49 58
-256 190 -312 198 -27 4 -95 18 -150 33 -96 25 -156 32 -167 21z m140 -61 c26
-7 29 -22 5 -30 -26 -8 -34 -12 -75 -37 -20 -12 -60 -35 -90 -51 -29 -15 -60
-34 -69 -42 -8 -8 -19 -14 -23 -14 -13 0 -150 -111 -183 -149 -33 -36 -45 -92
-23 -106 19 -12 10 -24 -33 -50 -24 -14 -61 -43 -82 -66 -42 -45 -155 -186
-155 -193 0 -2 -21 -37 -47 -78 -55 -84 -60 -92 -110 -176 -21 -35 -46 -76
-56 -90 -9 -15 -24 -42 -32 -59 -8 -18 -19 -33 -24 -33 -5 0 -12 -13 -16 -30
-4 -16 -11 -30 -16 -30 -15 0 -10 57 6 70 8 7 15 23 15 35 0 12 7 28 15 35 8
7 15 17 15 22 0 10 42 106 66 150 8 14 14 32 14 40 0 8 5 19 11 25 7 7 20 38
31 69 21 62 13 84 -31 84 -16 0 -199 -182 -306 -304 -189 -217 -322 -353 -350
-358 -27 -6 -60 17 -74 52 -6 14 -15 32 -20 40 -4 8 -19 37 -32 64 -30 61
-107 143 -142 151 -47 12 -146 -20 -200 -65 -154 -129 -416 -399 -556 -573
-29 -37 -42 -51 -91 -106 -69 -76 -96 -106 -128 -146 -57 -69 -196 -205 -209
-205 -22 0 -15 26 22 82 33 50 45 67 88 119 9 12 17 25 17 28 0 4 15 22 33 41
19 19 60 69 93 110 64 81 102 125 150 174 17 17 70 76 119 131 90 102 137 153
235 255 30 31 82 86 116 121 97 102 273 269 284 269 5 0 10 4 10 8 0 4 21 24
48 44 26 20 63 51 82 68 19 18 60 48 90 68 30 20 57 39 60 42 7 8 108 73 145
94 17 9 57 32 90 51 99 58 327 165 349 165 8 0 19 7 26 15 7 8 19 15 27 15 8
0 31 9 51 20 20 10 60 29 87 40 28 12 64 28 80 35 17 7 55 23 85 35 30 12 69
28 85 36 17 7 43 16 59 20 16 4 41 13 55 20 14 8 36 14 48 14 12 0 34 5 50 11
62 24 253 38 311 23z m250 -81 c57 -37 212 -153 212 -158 0 -2 3 -10 6 -18 4
-12 -7 -17 -53 -22 -34 -4 -82 -20 -115 -37 -38 -20 -65 -28 -80 -24 -45 11
-210 -15 -255 -41 -49 -28 -90 -74 -110 -120 -16 -40 -23 -41 -54 -7 -13 15
-41 37 -61 50 -47 30 -48 50 -5 62 17 6 52 22 77 36 25 14 52 29 60 32 32 14
184 129 216 163 18 20 41 52 50 71 29 61 37 62 112 13z m-163 7 c18 -28 -154
-164 -300 -237 -162 -82 -195 -92 -195 -63 0 22 199 177 260 204 8 3 29 15 45
26 17 11 37 23 45 26 8 4 31 14 50 22 72 32 87 36 95 22z m-7962 -24 c32 -13
64 -29 70 -35 6 -6 19 -11 28 -11 9 0 22 -7 29 -15 7 -8 18 -15 24 -15 7 0 37
-18 66 -40 29 -22 58 -40 63 -40 7 0 112 -77 165 -121 7 -5 57 -46 112 -90
110 -87 103 -81 216 -190 167 -161 324 -367 324 -423 0 -17 105 -116 123 -116
60 0 33 75 -57 161 -39 38 24 49 80 14 12 -8 38 -17 59 -21 21 -4 50 -13 64
-20 14 -8 44 -14 66 -14 22 0 69 -7 105 -14 36 -8 115 -17 175 -21 180 -11
202 -31 212 -194 8 -143 2 -156 -82 -192 -70 -30 -70 -30 -165 -14 -52 9 -117
23 -144 31 -26 8 -61 14 -77 14 -15 0 -48 6 -71 14 -24 8 -59 17 -78 20 -37 6
-47 15 -157 136 -142 156 -240 239 -343 292 -14 7 -31 18 -38 25 -7 7 -19 13
-26 13 -7 0 -23 9 -36 20 -13 11 -31 20 -40 20 -10 0 -23 7 -30 15 -7 8 -18
15 -25 15 -7 0 -24 9 -39 21 -29 23 -69 22 -74 -2 -2 -9 14 -37 35 -61 21 -25
52 -62 68 -83 17 -20 37 -45 46 -54 24 -26 72 -102 89 -141 5 -14 17 -37 25
-52 27 -47 20 -183 -11 -243 -37 -71 -93 -141 -179 -226 -74 -73 -89 -92 -120
-156 -17 -36 -93 -113 -111 -113 -16 0 -46 -48 -39 -60 10 -16 45 -11 74 9 75
54 117 32 113 -59 -1 -33 -8 -71 -16 -83 -32 -51 -51 -127 -39 -156 21 -56 -8
-63 -112 -26 -45 16 -92 25 -132 25 -82 0 -158 38 -353 175 -55 38 -193 172
-218 210 -36 56 -92 165 -92 178 0 7 -7 26 -16 42 -39 73 -62 284 -41 371 9
38 17 77 17 87 0 11 9 30 20 44 11 14 20 33 20 41 0 15 73 110 95 124 5 3 21
16 34 27 28 25 137 78 178 86 15 4 44 13 63 20 19 8 62 19 95 24 33 6 80 15
105 21 25 5 99 9 165 10 133 0 154 7 139 40 -9 20 -30 30 -164 79 -56 21 -169
33 -248 27 -72 -6 -197 -40 -208 -57 -3 -5 -13 -9 -23 -9 -10 0 -30 -9 -44
-20 -14 -11 -30 -20 -36 -20 -10 0 -61 -32 -91 -57 -131 -109 -162 -140 -215
-220 -114 -169 -135 -231 -142 -426 -6 -147 -6 -147 -32 -153 -41 -8 -91 -36
-102 -56 -5 -10 -18 -18 -29 -18 -34 0 -17 613 23 845 7 39 18 80 25 92 6 12
12 28 12 36 0 28 85 124 162 182 43 33 85 66 93 73 24 21 246 132 264 132 9 0
22 5 27 10 27 27 209 60 332 60 130 0 146 6 123 48 -9 16 -29 21 -143 31 -235
21 -373 -9 -530 -116 -26 -18 -50 -33 -53 -33 -3 0 -27 -16 -54 -35 -46 -33
-71 -43 -71 -28 0 15 211 212 270 251 19 13 40 29 45 36 12 15 75 52 160 95
79 40 163 42 248 7z m8612 -276 c4 -6 21 -17 38 -25 46 -22 67 -36 117 -74 74
-57 210 -203 210 -226 0 -3 15 -27 33 -53 49 -72 56 -85 68 -112 6 -14 15 -32
20 -40 5 -8 14 -26 19 -40 6 -14 17 -37 25 -52 19 -32 20 -81 3 -76 -7 3 -14
14 -16 25 -2 12 -12 29 -23 39 -10 9 -19 21 -19 26 0 13 -97 149 -173 242 -67
82 -123 145 -228 253 -60 62 -109 115 -109 118 0 9 29 5 35 -5z m-531 -171 c3
-17 6 -45 6 -62 0 -17 6 -53 14 -81 8 -28 19 -71 25 -96 22 -102 40 -163 50
-173 6 -6 11 -19 11 -29 0 -38 165 -350 201 -378 3 -3 10 -12 15 -21 40 -71
260 -289 361 -358 91 -62 257 -77 311 -28 10 9 24 17 31 17 7 0 24 9 38 20 14
11 32 20 39 20 8 0 14 5 14 10 0 6 7 10 15 10 12 0 13 -4 3 -25 -6 -14 -15
-25 -20 -25 -4 0 -16 -8 -26 -18 -25 -25 -99 -62 -125 -62 -12 -1 -33 -7 -47
-15 -36 -20 -129 -18 -213 5 -73 20 -157 59 -157 72 0 5 -6 8 -13 8 -11 0
-144 125 -191 180 -39 45 -172 258 -197 315 -5 11 -13 27 -18 35 -5 8 -19 38
-31 65 -12 28 -27 64 -35 80 -7 17 -18 48 -23 70 -6 22 -15 54 -21 70 -43 125
-51 165 -51 262 0 105 7 163 20 163 4 0 10 -14 14 -31z m-358 -221 c22 -48 39
-75 57 -96 10 -10 17 -25 17 -32 0 -7 6 -21 14 -29 19 -23 38 -126 35 -201 -2
-72 16 -150 46 -195 24 -37 101 -115 113 -115 5 0 17 -9 27 -20 10 -11 22 -20
27 -20 5 0 30 -16 55 -35 25 -19 52 -35 59 -35 8 0 14 -4 14 -8 0 -4 22 -25
50 -45 93 -70 99 -85 101 -290 1 -98 -1 -181 -5 -184 -4 -4 -21 1 -39 10 -25
13 -77 19 -242 26 -202 9 -241 14 -350 48 -126 39 -295 149 -295 192 0 5 -6
14 -14 20 -47 39 -71 255 -41 355 8 27 15 63 15 80 1 17 9 49 20 71 11 22 19
49 20 60 0 11 6 29 14 40 7 11 17 34 20 52 4 17 14 37 22 44 8 6 14 20 14 30
0 10 5 21 10 24 6 4 17 21 25 38 46 96 159 247 185 247 6 0 18 -15 26 -32z
m-7561 -47 c28 -10 50 -23 50 -27 0 -5 -49 -12 -110 -16 -63 -3 -126 -13 -147
-22 -21 -9 -49 -16 -62 -16 -14 0 -40 -6 -58 -14 -18 -8 -63 -27 -100 -42 -38
-16 -68 -32 -68 -36 0 -5 -5 -8 -12 -8 -23 0 -114 -91 -159 -161 -101 -155
-111 -447 -22 -649 51 -115 99 -196 141 -238 9 -9 26 -28 37 -42 44 -54 237
-202 320 -246 85 -44 100 -59 89 -89 -8 -21 -32 -17 -129 20 -38 14 -83 31
-100 36 -37 11 -166 76 -220 110 -22 15 -51 30 -65 34 -29 9 -93 56 -132 97
-31 32 -36 69 -13 88 17 14 20 56 6 65 -5 3 -24 36 -42 73 -18 37 -39 73 -46
80 -7 7 -13 22 -13 31 0 10 -7 35 -16 56 -22 54 -15 257 13 345 31 100 94 219
143 271 8 8 27 29 41 45 14 16 45 45 69 64 23 19 50 42 60 50 22 20 50 38 80
52 14 7 32 17 40 23 88 66 327 103 425 66z m2369 -362 c50 -6 107 -17 126 -24
19 -8 57 -17 83 -20 61 -8 57 -29 -6 -33 -29 -2 -47 -8 -47 -15 0 -28 31 -55
70 -61 22 -3 40 -11 40 -17 0 -11 -173 -5 -204 7 -7 3 -23 -4 -36 -14 -24 -20
-24 -20 3 -56 16 -20 41 -43 58 -51 94 -49 -34 -60 -161 -14 -107 39 -166 62
-175 69 -6 5 -33 10 -60 12 -50 3 -50 3 -47 93 4 105 11 115 86 116 28 0 69 4
91 8 57 12 78 12 179 0z m-416 -42 c14 -11 12 -56 -6 -150 -11 -57 -5 -51 -68
-75 -67 -27 -74 -21 -61 56 8 46 8 71 -1 95 -13 37 -16 80 -5 91 10 9 125 -4
141 -17z m752 -47 c12 -8 12 -10 -2 -15 -23 -9 -50 -3 -56 13 -4 14 36 16 58
2z m-1493 -607 c47 -47 68 -83 49 -83 -33 0 -37 -27 -10 -66 31 -47 74 -129
74 -144 0 -16 -38 -49 -87 -76 -25 -13 -51 -28 -57 -33 -6 -4 -27 -14 -46 -21
-19 -7 -57 -21 -85 -31 -182 -66 -285 -101 -317 -108 -21 -5 -43 -13 -50 -18
-7 -6 -31 -14 -52 -18 -22 -3 -49 -13 -60 -21 -11 -8 -40 -14 -65 -14 -28 0
-48 -6 -55 -15 -8 -11 -42 -19 -110 -26 -103 -10 -121 -6 -114 27 3 17 12 19
105 16 81 -3 107 -1 125 12 12 9 35 16 50 16 16 0 45 9 65 20 21 11 45 20 54
20 9 0 22 7 29 15 7 8 18 15 24 15 29 0 155 79 237 148 44 36 129 121 129 128
0 3 15 24 33 47 49 62 77 130 77 186 0 41 5 61 16 61 2 0 20 -17 41 -37z m171
-152 c124 -90 155 -97 167 -42 8 39 16 39 43 1 22 -29 22 -31 6 -62 -19 -37
-16 -188 6 -227 8 -16 9 -26 1 -34 -14 -14 -40 10 -86 77 -19 28 -66 96 -105
151 -38 55 -75 112 -81 128 -6 15 -15 27 -20 27 -5 0 -9 7 -9 15 0 22 3 20 78
-34z m7782 35 c0 -2 7 -40 15 -83 16 -84 32 -643 18 -643 -5 0 -39 16 -78 35
-38 19 -78 35 -88 35 -10 0 -30 6 -45 14 -15 7 -45 17 -66 20 -22 4 -49 14
-60 22 -11 8 -29 14 -40 14 -11 0 -27 6 -35 14 -9 7 -36 24 -61 37 -146 78
-385 279 -378 318 4 22 48 26 73 6 147 -113 262 -197 285 -208 8 -4 35 -18 59
-32 55 -31 72 -31 101 0 22 24 23 27 10 72 -7 27 -15 105 -17 176 -5 143 3
157 47 86 46 -75 126 -149 159 -149 48 0 71 55 71 168 0 49 3 92 7 95 7 8 23
9 23 3z m-929 -172 c23 -28 13 -65 -27 -102 -38 -35 -38 -35 -154 -28 -63 3
-137 13 -164 21 -27 8 -70 15 -95 15 -25 0 -64 5 -86 11 -48 14 -239 -7 -257
-28 -10 -13 -48 -19 -48 -8 0 5 47 51 80 78 38 30 90 49 122 44 52 -9 137 -27
200 -43 126 -31 302 -11 357 41 24 24 52 23 72 -1z m-6411 -47 c63 -22 180
-91 180 -106 0 -5 9 -18 20 -31 72 -83 -37 -176 -226 -194 -81 -7 -97 4 -84
59 14 57 12 131 -5 200 -26 108 -12 117 115 72z m-418 -25 c81 -134 172 -240
211 -244 39 -4 48 -35 17 -63 -11 -10 -20 -30 -20 -45 0 -22 -34 -82 -57 -99
-10 -7 -29 -38 -45 -71 -7 -14 -27 -46 -45 -72 -18 -26 -33 -51 -33 -55 -1
-17 -88 -95 -99 -88 -14 8 -4 73 14 95 8 8 17 27 20 43 4 15 11 29 15 32 13 8
60 111 60 130 0 43 -34 25 -118 -64 -48 -50 -95 -91 -104 -91 -20 0 -24 15 -8
25 6 3 10 15 10 26 0 10 9 36 20 56 11 21 20 45 20 53 0 8 7 24 15 34 8 11 15
27 15 35 1 9 9 34 20 56 11 22 19 50 20 62 0 13 5 43 12 68 14 52 -5 108 -41
120 -21 6 -29 25 -11 25 6 0 18 8 29 19 18 18 51 40 61 41 3 0 12 -12 22 -28z
m5876 -29 c-3 -48 -3 -48 -43 -48 -54 0 -59 26 -13 66 49 42 60 38 56 -18z
m-7852 -44 c3 -6 21 -17 38 -25 17 -8 58 -34 91 -58 33 -25 64 -45 69 -45 5
-1 17 -7 25 -15 21 -19 145 -84 196 -102 149 -55 382 -81 485 -54 25 6 72 17
105 25 79 18 165 43 190 54 26 12 110 40 156 51 19 5 49 16 65 25 16 8 38 15
49 15 11 0 29 6 40 13 11 8 38 19 60 25 54 14 127 42 140 52 17 13 75 22 75
11 0 -5 -14 -25 -31 -43 -17 -18 -65 -76 -107 -128 -42 -52 -80 -97 -83 -100
-3 -3 -27 -30 -54 -60 -218 -251 -361 -390 -385 -375 -19 12 -40 76 -46 143
-12 133 -40 198 -77 181 -21 -10 -67 -91 -67 -120 -1 -8 -9 -32 -20 -54 -11
-22 -19 -49 -20 -61 0 -11 -7 -29 -15 -40 -8 -10 -15 -25 -15 -32 0 -26 -52
-122 -70 -132 -26 -14 -96 2 -150 33 -25 14 -72 40 -105 58 -145 75 -247 169
-387 350 -82 107 -92 122 -114 164 -8 17 -23 44 -34 60 -23 35 -21 31 -50 112
-12 34 -19 67 -15 72 8 14 52 14 61 0z m569 -119 c3 -5 12 -10 20 -10 8 0 26
-5 42 -11 27 -11 27 -11 6 -19 -25 -10 -91 -2 -99 12 -8 12 3 38 15 38 5 0 13
-4 16 -10z m6011 -333 c1 -144 8 -186 40 -249 17 -34 22 -54 15 -61 -13 -13
-277 -22 -365 -12 -126 13 -167 84 -112 194 50 98 197 210 311 237 17 4 39 13
50 20 16 12 22 12 40 0 18 -12 20 -24 21 -129z m-1356 -120 c0 -39 -243 -237
-290 -237 -9 0 -21 -5 -27 -11 -13 -13 -97 -45 -158 -60 -22 -6 -44 -14 -49
-20 -13 -12 -76 -12 -76 1 0 6 9 10 20 10 11 0 29 9 40 20 11 11 24 20 29 20
4 0 28 15 52 33 89 68 148 106 173 113 14 3 30 12 37 20 6 8 17 14 23 14 6 0
34 15 61 32 118 75 165 93 165 65z m4290 -12 c95 -49 255 -194 279 -253 11
-26 11 -51 -3 -149 -19 -142 -26 -154 -168 -287 -106 -99 -147 -123 -251 -145
-21 -5 -44 -14 -50 -20 -6 -6 -17 -11 -25 -11 -8 0 -36 -9 -61 -21 -44 -20
-79 -36 -166 -74 -22 -9 -47 -21 -55 -26 -8 -5 -26 -14 -40 -19 -14 -6 -32
-15 -40 -20 -8 -6 -26 -15 -38 -20 -37 -16 -131 -93 -189 -153 -52 -54 -52
-54 -105 -41 -29 8 -70 14 -91 14 -20 0 -54 7 -74 15 -19 8 -43 15 -52 15 -9
0 -45 8 -81 19 -36 11 -99 29 -140 41 -41 12 -87 28 -102 36 -14 8 -35 14 -45
14 -10 0 -27 6 -38 14 -11 7 -31 17 -44 21 -46 14 -142 77 -152 99 -15 31 50
151 125 232 34 36 86 129 86 153 0 15 23 14 38 -1 7 -7 78 -17 180 -24 351
-26 388 -40 380 -142 -7 -79 32 -102 46 -27 4 19 11 35 16 35 13 0 36 -47 45
-90 11 -53 54 -120 76 -120 33 0 33 27 -2 113 -59 144 -47 209 52 272 35 23
140 118 253 230 114 112 283 266 317 288 85 54 79 53 119 32z m-5242 -103 c32
-32 59 -86 66 -132 4 -24 11 -49 16 -55 5 -5 10 -39 11 -75 4 -73 -7 -93 -88
-160 -86 -73 -139 -88 -148 -42 -6 26 -10 43 -39 160 -8 30 -19 59 -25 65 -6
6 -11 21 -11 32 0 12 -9 32 -20 45 -11 13 -20 27 -20 31 0 4 -2 14 -6 22 -4
11 7 16 42 21 45 6 124 56 147 93 12 19 54 16 75 -5z m2805 -248 c66 -70 160
-147 199 -164 24 -10 46 -23 88 -51 65 -42 183 -32 193 16 6 34 -20 68 -120
162 -75 69 -85 82 -69 89 17 7 46 -6 151 -64 102 -57 355 -273 355 -303 0 -27
-135 -130 -214 -164 -67 -29 -67 -29 -118 -10 -54 19 -173 80 -198 100 -8 7
-20 14 -25 16 -6 2 -34 20 -63 39 -44 30 -52 39 -52 66 0 29 -83 137 -137 179
-7 6 -26 37 -43 69 -54 107 -36 114 53 20z m-2557 24 c-21 -12 -42 4 -32 21 5
8 13 8 28 0 20 -11 20 -12 4 -21z m5372 -126 c4 -50 -11 -97 -29 -87 -10 7
-13 114 -3 140 11 27 26 1 32 -53z m-2933 -44 c39 -62 296 -268 332 -268 4 0
14 -6 22 -14 9 -7 54 -33 101 -56 47 -24 97 -49 112 -56 38 -20 102 -17 140 6
57 35 68 29 68 -40 0 -66 22 -98 87 -126 17 -7 34 -18 38 -24 3 -5 14 -10 24
-10 10 0 24 -7 31 -15 7 -8 28 -17 49 -21 20 -4 47 -12 61 -19 37 -20 182 -66
280 -89 30 -8 66 -18 80 -23 14 -6 53 -13 87 -17 34 -4 75 -14 92 -22 30 -15
41 -39 21 -46 -5 -2 -40 -33 -77 -69 -145 -141 -231 -179 -399 -179 -60 0
-127 5 -149 11 -22 6 -67 16 -100 24 -136 31 -252 67 -277 85 -15 11 -31 20
-37 20 -17 0 -156 143 -220 225 -130 168 -136 175 -162 175 -23 0 -48 38 -135
210 -26 52 -54 99 -61 103 -7 4 -13 15 -13 23 0 9 -9 27 -20 41 -11 14 -20 35
-20 47 0 12 -6 31 -14 41 -14 19 -11 37 13 98 14 35 13 35 46 -15z m-5265
-168 c23 -14 7 -21 -69 -27 -60 -5 -71 -4 -71 10 0 24 107 38 140 17z m2420
-79 c0 -34 -47 -75 -145 -126 -16 -9 -48 -26 -70 -38 -22 -13 -76 -42 -120
-66 -44 -24 -87 -49 -96 -57 -8 -8 -20 -14 -26 -14 -6 0 -52 -22 -104 -49
-116 -61 -167 -87 -199 -100 -14 -6 -32 -15 -40 -20 -8 -4 -37 -18 -65 -31
-27 -13 -57 -27 -65 -31 -8 -5 -26 -14 -40 -19 -25 -10 -39 -17 -131 -59 -25
-12 -52 -21 -60 -21 -8 0 -23 -7 -33 -15 -11 -8 -27 -15 -35 -15 -9 0 -29 -7
-44 -15 -15 -8 -45 -17 -65 -21 -20 -4 -49 -13 -64 -20 -15 -8 -37 -14 -50
-14 -13 0 -59 -9 -103 -20 -91 -22 -219 -27 -213 -8 2 6 27 17 56 23 28 7 57
17 64 22 7 6 29 13 48 16 19 3 58 13 85 22 72 24 106 36 140 45 68 20 132 42
158 56 16 7 36 14 45 14 17 0 107 33 152 55 14 7 38 15 53 19 27 6 153 61 210
91 16 8 35 15 42 15 8 0 20 6 27 13 12 13 39 28 98 59 14 7 27 15 30 18 6 7
112 73 226 139 33 19 61 37 64 41 3 3 30 19 60 34 30 16 62 34 70 40 8 7 26
18 40 24 14 7 36 19 50 27 37 22 50 18 50 -14z m5517 -87 c7 -20 -171 -184
-201 -184 -3 0 -22 -12 -43 -26 -40 -27 -218 -114 -234 -114 -5 0 -26 -9 -46
-20 -41 -22 -97 -27 -91 -9 2 6 28 24 58 40 30 15 61 33 67 39 7 5 23 15 35
20 13 5 48 27 78 50 30 22 64 44 75 49 12 5 27 16 34 25 7 9 19 16 25 16 6 0
27 15 46 33 37 35 54 46 115 76 49 24 74 26 82 5z m-317 -93 c0 -12 -28 -22
-34 -12 -3 5 -3 11 1 15 9 9 33 7 33 -3z m-40 -31 c0 -5 -12 -16 -27 -25 -16
-9 -40 -23 -55 -33 -48 -31 -183 -108 -218 -124 -156 -72 -190 -84 -190 -71 1
16 36 51 85 84 48 33 85 52 235 121 36 17 76 37 90 44 29 16 80 18 80 4z
m-8335 -40 c3 -5 -3 -10 -15 -10 -12 0 -18 5 -15 10 3 6 10 10 15 10 5 0 12
-4 15 -10z m-67 -32 c-3 -7 -22 -15 -44 -18 -22 -3 -51 -13 -64 -23 -14 -10
-44 -17 -70 -17 -25 0 -54 -7 -64 -15 -22 -17 -136 -21 -136 -6 0 5 26 13 57
17 32 4 63 12 70 19 7 7 40 16 73 20 33 4 60 11 60 15 0 10 30 17 83 19 27 1
37 -3 35 -11z m6270 -159 c7 -11 27 -47 45 -80 55 -104 52 -100 140 -189 31
-32 70 -61 85 -65 40 -9 72 -39 72 -69 0 -28 -56 -115 -100 -156 -265 -246
-513 -312 -548 -144 -8 40 8 145 26 167 6 7 13 29 17 50 4 20 11 39 15 42 7 4
25 41 79 156 11 25 21 53 21 61 0 9 7 21 15 28 8 7 15 18 15 24 0 15 44 121
57 138 6 7 13 25 17 40 7 30 24 29 44 -3z m1852 -23 c0 -9 -30 -14 -35 -6 -4
6 3 10 14 10 12 0 21 -2 21 -4z"/>
</g>
</svg>
