<?xml version="1.0" encoding="UTF-8"?>
<svg xmlns="http://www.w3.org/2000/svg" width="2505.000000pt" height="1980.000000pt" viewBox="0 0 2505.000000 1980.000000" preserveAspectRatio="xMidYMid meet">
<title>Constructions NovaVie Inc.</title>
<g transform="translate(0.000000,1980.000000) scale(0.100000,-0.100000)"
fill="#252526" stroke="none">
<path d="M8592 17507 c-8 -9 -11 -357 -12 -1163 0 -632 -6 -2526 -14 -4209 -7
-1683 -13 -3076 -12 -3095 l1 -35 904 -3 c498 -1 908 1 913 6 8 8 38 3382 38
4351 0 437 3 648 10 655 8 8 57 -36 163 -144 420 -428 858 -872 1402 -1420
331 -333 884 -893 1230 -1245 346 -352 899 -912 1230 -1245 331 -333 680 -685
775 -783 l174 -177 550 2 551 3 3 3544 c2 2833 0 3542 -10 3538 -13 -5 -78
-48 -843 -562 -236 -159 -531 -357 -655 -440 l-225 -150 -2 -155 c-2 -85 -7
-298 -13 -472 -6 -175 -13 -456 -15 -625 -3 -169 -10 -470 -15 -668 -6 -198
-12 -414 -14 -480 -2 -101 -5 -120 -18 -120 -9 0 -82 70 -163 155 -82 85 -239
247 -349 360 -111 113 -346 355 -521 538 -819 852 -1008 1048 -1256 1303 -270
279 -402 415 -991 1029 -182 190 -417 433 -523 540 -105 107 -292 301 -415
430 -124 129 -337 351 -476 492 l-251 257 -570 0 c-456 1 -573 -2 -581 -12z"/>
<path d="M15670 7851 c0 -22 -5 -31 -16 -31 -13 0 -15 -7 -10 -30 l6 -30 -278
-2 c-356 -1 -341 -1 -351 -16 -10 -16 -8 -93 3 -110 5 -8 44 -12 126 -12 109
0 120 -2 130 -20 7 -13 10 -137 10 -356 -1 -188 3 -341 8 -346 5 -5 40 -8 78
-6 l69 3 5 360 5 360 135 5 135 5 -3 60 c-1 33 -4 89 -6 125 -2 58 -5 65 -24
68 -19 3 -22 -1 -22 -27z"/>
<path d="M16373 7836 c-13 -13 -23 -33 -23 -44 0 -12 -4 -24 -10 -27 -6 -4
-10 -158 -10 -430 0 -487 -8 -449 98 -443 l57 3 3 429 c2 327 -1 432 -10 443
-7 9 -12 32 -13 52 0 34 -2 36 -35 39 -26 2 -41 -4 -57 -22z"/>
<path d="M4490 7764 c-176 -31 -272 -99 -342 -242 l-42 -86 0 -121 c0 -115 2
-123 33 -187 59 -123 142 -192 286 -239 119 -39 333 9 423 94 41 39 40 45 -6
90 -46 45 -53 45 -100 8 -113 -88 -296 -78 -394 22 -179 184 -68 506 182 524
81 6 134 -8 199 -52 63 -44 69 -44 114 3 45 46 45 50 5 89 -74 70 -247 117
-358 97z"/>
<path d="M5865 7764 c-152 -20 -261 -89 -332 -207 -127 -216 -50 -517 159
-619 173 -85 305 -86 469 -3 140 71 219 207 221 380 2 179 -79 329 -217 398
-71 35 -222 61 -300 51z m179 -153 c238 -108 244 -455 9 -566 -67 -32 -179
-35 -246 -6 -52 23 -119 87 -150 145 -30 56 -32 222 -3 276 83 154 245 217
390 151z"/>
<path d="M8685 7763 c-130 -18 -216 -91 -236 -198 -21 -114 19 -202 114 -250
42 -22 144 -55 169 -55 52 0 148 -34 177 -62 53 -52 39 -128 -32 -165 -57 -30
-197 -23 -278 14 -37 17 -69 36 -73 42 -13 21 -35 11 -71 -33 -46 -56 -40 -70
47 -114 125 -64 233 -82 346 -58 184 39 268 140 247 297 -15 109 -89 161 -310
219 -138 36 -170 51 -179 82 -12 45 -6 69 27 103 61 67 209 68 305 4 24 -16
47 -29 51 -29 12 0 71 93 71 112 0 52 -238 110 -375 91z"/>
<path d="M14075 7764 c-165 -23 -288 -106 -356 -240 -34 -68 -34 -69 -34 -204
0 -129 1 -138 29 -195 95 -194 347 -299 549 -229 100 35 196 96 197 124 0 21
-71 90 -92 90 -10 0 -21 -6 -25 -14 -17 -31 -116 -69 -189 -74 -161 -10 -276
76 -308 232 -23 107 8 221 76 286 59 55 113 81 186 87 83 7 135 -7 201 -52 28
-19 57 -35 65 -35 17 0 86 69 86 87 0 12 -70 73 -108 92 -63 33 -202 55 -277
45z"/>
<path d="M17530 7763 c-191 -20 -343 -143 -386 -312 -20 -79 -15 -229 11 -309
54 -171 307 -299 509 -257 177 37 301 136 351 281 24 70 24 253 -1 314 -37 93
-118 189 -194 229 -72 38 -206 63 -290 54z m198 -173 c173 -106 204 -333 65
-481 -63 -68 -114 -89 -214 -89 -138 0 -227 64 -276 197 -27 76 -29 108 -6
182 48 158 152 236 304 227 63 -3 84 -9 127 -36z"/>
<path d="M20365 7764 c-163 -22 -254 -114 -255 -256 0 -103 25 -150 104 -190
46 -24 151 -58 178 -58 10 0 48 -7 84 -16 146 -37 179 -136 69 -209 -25 -17
-46 -20 -125 -19 -104 1 -171 22 -221 70 -24 23 -59 25 -59 4 0 -4 -14 -24
-30 -45 -37 -47 -31 -56 68 -108 151 -78 293 -86 428 -22 173 82 208 291 68
400 -42 32 -165 77 -256 94 -90 16 -127 35 -143 76 -13 30 -13 40 -2 68 41 95
177 113 314 41 36 -19 67 -34 68 -34 6 0 65 104 65 115 0 43 -245 104 -355 89z"/>
<path d="M7048 7749 c-17 -9 -18 -41 -18 -429 l0 -420 23 -5 c13 -4 48 -5 78
-3 l54 3 2 274 c1 164 5 277 11 283 7 7 22 -5 44 -34 18 -25 60 -78 93 -118
33 -41 83 -103 110 -139 28 -36 68 -88 89 -116 21 -27 59 -73 84 -102 l45 -54
66 3 66 3 0 430 0 430 -64 3 c-35 2 -68 -1 -72 -5 -5 -5 -11 -132 -13 -282 -2
-150 -6 -275 -9 -278 -10 -10 -38 14 -80 68 -23 31 -85 109 -138 175 -52 65
-104 131 -115 145 -10 14 -39 53 -63 85 -24 32 -53 67 -65 76 -23 20 -100 24
-128 7z"/>
<path d="M9639 7749 c-6 -3 -9 -32 -7 -65 l3 -59 125 -3 c101 -2 127 -6 137
-18 9 -12 11 -101 7 -353 -6 -388 -12 -364 88 -359 l63 3 5 360 5 360 119 3
c67 1 126 7 133 14 15 12 18 95 4 117 -7 11 -67 13 -341 10 -182 -2 -336 -7
-341 -10z"/>
<path d="M10952 7743 c-11 -23 -15 -823 -3 -841 5 -9 28 -12 77 -10 l69 3 5
135 5 135 102 3 102 3 31 -43 c17 -24 56 -81 86 -128 31 -47 63 -91 72 -97 18
-15 158 -18 166 -4 3 5 -8 26 -25 47 -61 78 -158 234 -154 247 3 7 25 24 50
39 140 85 165 298 50 426 -73 81 -129 95 -402 100 -207 3 -222 2 -231 -15z
m469 -143 c60 -31 81 -71 77 -147 -7 -110 -62 -143 -245 -143 -67 0 -128 3
-137 6 -14 5 -16 28 -16 148 0 79 3 146 7 149 3 4 67 7 140 7 115 0 139 -3
174 -20z"/>
<path d="M12306 7744 c-3 -9 -6 -138 -6 -288 0 -307 5 -341 67 -430 41 -58 53
-68 107 -97 187 -100 422 -54 528 102 53 77 58 115 58 433 0 321 7 296 -85
296 -42 0 -57 -4 -64 -18 -5 -10 -10 -142 -11 -296 -1 -302 -4 -319 -62 -373
-85 -80 -251 -69 -325 22 -44 53 -53 120 -53 401 0 173 -3 243 -12 252 -19 19
-134 16 -142 -4z"/>
<path d="M18695 7749 c-3 -8 -4 -203 -3 -434 l3 -420 70 0 70 0 5 280 c3 154
8 279 13 278 4 -2 11 -3 17 -3 5 0 34 -33 64 -72 109 -144 218 -283 239 -308
12 -14 44 -53 70 -87 73 -95 71 -94 141 -91 l61 3 3 419 c1 301 -1 423 -9 432
-12 15 -105 19 -126 6 -10 -6 -13 -78 -15 -282 -2 -204 -6 -275 -15 -275 -13
0 -115 121 -286 340 -183 235 -165 218 -236 223 -45 3 -62 1 -66 -9z"/>
<path d="M6825 6104 c-207 -38 -473 -142 -610 -240 -298 -212 -477 -521 -515
-890 -17 -165 27 -475 81 -574 5 -8 29 -57 53 -108 159 -327 477 -561 912
-668 102 -25 123 -27 334 -27 242 1 312 11 531 76 79 24 284 121 319 151 8 8
40 30 70 51 55 39 130 105 202 180 84 87 197 285 239 418 12 40 28 91 36 115
30 96 26 469 -6 567 -58 176 -74 223 -85 240 -7 11 -28 47 -46 80 -87 160
-317 380 -480 461 -152 75 -225 102 -405 151 -93 25 -117 27 -325 29 -165 2
-246 -1 -305 -12z m500 -538 c267 -76 460 -284 511 -549 18 -89 14 -281 -6
-366 -31 -129 -154 -304 -269 -384 -158 -110 -234 -131 -466 -131 -219 0 -283
17 -447 120 -202 128 -341 433 -308 677 46 344 266 580 605 648 68 13 313 4
380 -15z"/>
<path d="M11437 6060 l-267 -5 -16 -30 c-9 -16 -27 -57 -39 -91 -13 -33 -41
-98 -63 -145 -21 -46 -47 -106 -57 -134 -10 -27 -22 -55 -26 -61 -5 -5 -28
-59 -53 -120 -50 -123 -141 -330 -156 -357 -6 -9 -28 -61 -49 -115 -58 -144
-119 -289 -150 -357 -16 -33 -37 -84 -47 -112 -10 -29 -24 -53 -30 -53 -12 0
-73 126 -99 205 -9 27 -20 54 -24 60 -5 5 -25 53 -46 105 -20 52 -50 122 -65
155 -15 33 -35 82 -44 109 -9 27 -34 87 -56 133 -22 46 -40 88 -40 93 0 10
-10 32 -66 155 -17 39 -37 86 -44 105 -17 47 -38 98 -55 135 -8 17 -23 54 -34
82 -11 29 -42 95 -67 148 l-47 95 -333 0 c-184 0 -334 -4 -334 -8 0 -5 15 -40
34 -78 18 -38 43 -94 56 -124 12 -30 32 -77 45 -105 13 -27 35 -79 50 -115 14
-36 44 -102 66 -147 21 -46 39 -87 39 -93 0 -5 18 -49 41 -97 22 -48 52 -116
65 -152 13 -35 28 -69 32 -75 5 -6 23 -47 42 -91 18 -44 53 -122 76 -173 24
-51 44 -96 44 -100 0 -4 36 -91 81 -192 44 -102 94 -216 109 -255 16 -38 41
-95 55 -125 15 -30 43 -95 62 -145 18 -49 38 -94 42 -100 5 -5 25 -52 45 -103
20 -52 44 -105 52 -118 l16 -23 281 5 c155 3 288 7 295 10 7 2 21 23 31 46 10
24 34 77 54 118 19 41 38 86 42 100 4 14 34 80 66 147 33 67 59 124 59 127 0
4 12 30 26 59 14 28 34 78 45 109 11 31 40 97 65 145 24 48 44 91 44 95 0 4
17 42 38 85 21 43 46 101 56 128 10 28 36 84 57 125 20 41 50 107 64 145 15
39 31 75 35 80 5 6 24 48 43 95 20 47 49 113 66 147 17 34 31 64 31 67 0 3 20
48 45 100 25 53 45 99 45 102 0 3 27 62 60 130 33 68 60 127 60 132 0 5 12 32
26 61 14 29 22 56 19 60 -8 7 -52 7 -398 1z"/>
<path d="M13498 6063 l-297 -3 -7 -23 c-8 -26 -87 -203 -149 -332 -23 -49 -46
-101 -50 -115 -4 -14 -25 -61 -47 -105 -22 -44 -49 -102 -60 -130 -11 -27 -39
-91 -64 -142 -24 -50 -44 -94 -44 -97 0 -5 -34 -80 -115 -251 -26 -55 -58
-129 -71 -164 -13 -35 -36 -85 -50 -110 -14 -25 -37 -72 -50 -104 -14 -32 -43
-97 -64 -143 -22 -46 -40 -87 -40 -90 0 -3 -20 -46 -45 -95 -25 -49 -45 -94
-45 -99 0 -5 -26 -65 -58 -132 -32 -68 -67 -143 -77 -168 -10 -25 -25 -53 -33
-62 -7 -9 -12 -25 -10 -35 3 -17 23 -18 318 -19 221 -2 319 1 329 9 13 11 68
122 116 236 14 33 36 85 50 115 14 30 25 60 25 65 0 6 9 20 20 31 19 19 33 20
526 20 297 0 513 -4 523 -9 10 -6 30 -40 45 -78 15 -37 31 -75 36 -84 5 -9 27
-61 50 -115 65 -156 79 -184 93 -185 6 0 155 -1 329 -2 298 -2 318 -1 318 16
0 9 -4 25 -9 35 -5 9 -19 42 -31 72 -12 30 -40 90 -61 134 -22 43 -39 83 -39
88 0 5 -22 56 -50 113 -27 57 -50 107 -50 110 0 3 -16 39 -35 80 -19 41 -46
102 -61 137 -14 35 -44 98 -65 140 -22 43 -39 82 -39 88 0 5 -20 53 -45 106
-25 52 -45 97 -45 99 0 3 -16 40 -37 82 -20 43 -53 119 -73 168 -57 138 -127
294 -159 355 -16 30 -32 66 -36 80 -4 14 -28 68 -52 120 -25 52 -48 104 -53
115 -5 11 -25 55 -44 97 -20 43 -46 99 -57 125 -20 48 -35 65 -54 61 -5 -2
-144 -4 -307 -5z m46 -785 c12 -29 29 -69 36 -88 7 -19 26 -64 43 -100 16 -36
45 -105 64 -155 18 -49 37 -94 42 -100 20 -26 93 -217 87 -230 -5 -13 -42 -15
-258 -15 -295 0 -358 5 -358 29 0 10 4 21 9 27 6 5 31 61 56 124 25 63 54 133
65 155 10 22 33 76 51 120 18 44 36 85 41 91 4 6 19 42 33 80 26 67 50 114 60
114 3 0 16 -24 29 -52z"/>
<path d="M2280 4856 c0 -973 2 -1205 13 -1209 16 -6 589 2 596 8 2 3 3 320 2
705 -2 672 -2 700 16 700 17 0 46 -32 285 -319 57 -68 139 -165 183 -216 44
-51 107 -125 140 -165 62 -76 297 -352 325 -381 8 -9 44 -51 80 -94 36 -44 96
-114 133 -157 l68 -78 302 2 302 3 3 1203 2 1202 -322 -2 -323 -3 0 -692 c0
-505 -3 -695 -11 -703 -11 -11 -132 117 -223 235 -44 56 -101 123 -246 291
-77 89 -169 196 -205 239 -36 42 -74 87 -86 99 -25 26 -178 204 -262 304 -34
42 -94 111 -134 154 l-71 78 -283 0 -284 0 0 -1204z"/>
</g>
<g transform="translate(0.000000,1980.000000) scale(0.100000,-0.100000)"
fill="#b6914b" stroke="none">
<path d="M14730 16515 c0 -657 3 -1005 10 -1005 5 0 39 20 74 44 35 24 68 45
72 47 5 2 50 31 99 63 50 33 133 87 185 121 52 34 142 93 200 131 58 38 110
71 115 74 6 3 51 32 100 64 50 33 133 87 185 121 52 34 142 93 200 131 58 38
110 71 115 74 12 6 164 105 329 215 l121 80 0 420 0 420 -902 3 -903 2 0
-1005z"/>
<path d="M21325 6072 c-395 -1 -723 -6 -727 -10 -5 -5 -8 -548 -8 -1208 0
-1043 2 -1200 14 -1210 18 -13 1974 -14 1994 -1 19 12 17 500 -2 516 -10 8
-195 11 -672 11 -363 0 -665 0 -672 0 -10 0 -12 49 -10 228 l3 227 579 3 c408
1 583 5 593 13 17 15 19 484 2 494 -6 4 -268 7 -583 7 -315 0 -578 3 -584 7
-9 6 -12 59 -10 210 l3 203 672 2 c498 1 675 4 684 13 13 13 14 472 1 484 -10
10 -456 14 -1277 11z"/>
<path d="M15255 6059 c-8 -12 1 -37 60 -164 23 -49 50 -112 60 -140 10 -27 22
-54 26 -60 4 -5 24 -53 44 -105 21 -52 50 -120 65 -150 15 -30 31 -66 35 -80
4 -14 24 -59 43 -100 19 -41 45 -103 58 -137 13 -34 39 -92 58 -130 18 -37 39
-86 46 -108 7 -22 29 -76 50 -120 21 -44 48 -105 60 -135 12 -30 32 -77 45
-105 12 -27 37 -86 55 -130 17 -44 42 -103 55 -131 13 -28 34 -77 46 -110 12
-32 25 -63 29 -69 5 -5 26 -55 48 -110 22 -55 51 -125 64 -155 14 -30 34 -77
44 -103 37 -94 15 -89 351 -82 173 3 301 10 308 15 7 6 20 32 30 58 10 26 38
89 62 140 23 51 43 95 43 98 0 3 24 55 54 117 29 62 57 123 61 137 4 14 28 67
51 118 24 50 44 94 44 97 0 2 19 44 41 92 23 49 52 115 64 148 13 33 39 94 58
135 19 41 37 85 41 97 4 13 27 63 52 112 24 49 44 92 44 95 0 4 20 48 44 99
61 128 136 295 136 302 0 4 29 66 64 138 97 200 136 285 152 330 8 23 22 52
30 65 8 12 12 27 9 32 -4 6 -133 10 -336 10 l-331 0 -19 -22 c-10 -13 -18 -27
-19 -31 0 -11 -10 -34 -88 -202 -109 -237 -124 -269 -153 -345 -17 -41 -50
-116 -74 -167 -25 -50 -45 -96 -45 -101 0 -5 -16 -42 -35 -81 -19 -39 -35 -73
-35 -75 0 -3 -18 -44 -41 -93 -23 -48 -50 -110 -60 -136 -11 -27 -33 -78 -51
-115 -17 -37 -43 -98 -58 -137 -15 -38 -31 -70 -37 -72 -11 -4 -27 28 -50 97
-8 25 -30 81 -48 125 -18 44 -48 118 -66 165 -18 47 -36 90 -41 95 -4 6 -23
51 -41 100 -19 50 -46 115 -60 145 -15 30 -39 89 -55 130 -46 118 -121 301
-144 350 -11 25 -24 54 -29 65 -48 122 -124 292 -133 297 -18 12 -674 10 -681
-3z"/>
<path d="M18835 6061 c-11 -19 -6 -2414 6 -2421 6 -4 150 -7 320 -6 264 1 311
3 319 16 15 24 13 2393 -2 2408 -15 15 -633 17 -643 3z"/>
<path d="M13109 2796 c-72 -16 -115 -43 -177 -110 -152 -167 -113 -440 81
-563 128 -81 358 -55 456 51 l24 26 -30 38 c-39 48 -53 50 -107 13 -92 -64
-197 -63 -282 2 -64 49 -84 92 -84 182 0 156 73 235 217 235 67 0 160 -31 177
-59 11 -17 23 -13 61 20 43 38 44 60 4 93 -88 75 -210 100 -340 72z"/>
<path d="M11831 2787 c-8 -11 -11 -106 -9 -358 l3 -344 70 0 70 0 3 223 c1
122 6 222 11 222 5 0 16 -11 25 -25 9 -13 24 -32 34 -42 19 -19 93 -113 152
-193 19 -26 61 -80 93 -119 57 -70 59 -71 105 -71 27 0 53 5 60 12 18 18 17
682 0 695 -15 11 -107 11 -126 -1 -9 -5 -12 -62 -12 -217 0 -176 -2 -209 -14
-202 -14 8 -194 231 -288 356 -49 64 -52 67 -93 67 -24 0 -50 2 -58 5 -7 3
-19 0 -26 -8z"/>
<path d="M11255 2778 c-3 -7 -4 -166 -3 -353 l3 -340 61 -3 c43 -2 64 1 73 11
8 11 11 105 9 353 l-3 339 -68 3 c-48 2 -69 -1 -72 -10z"/>
<path d="M18435 2430 c-2839 -4 -3560 -8 -3559 -17 1 -7 2 -17 3 -23 0 -7
1198 -10 3570 -10 3245 0 3569 1 3575 16 8 22 8 22 -11 31 -10 4 -1620 6
-3578 3z"/>
<path d="M2703 2414 c-3 -8 -1 -20 4 -25 5 -5 1424 -8 3704 -7 3686 3 3694 3
3694 23 0 20 -8 20 -3698 23 -3351 2 -3698 1 -3704 -14z"/>
<path d="M13859 2221 c-47 -47 -36 -111 24 -136 89 -37 157 84 80 145 -36 28
-69 25 -104 -9z"/>
</g>
</svg>
