<?xml version="1.0" standalone="no"?>
<!DOCTYPE svg PUBLIC "-//W3C//DTD SVG 20010904//EN"
 "http://www.w3.org/TR/2001/REC-SVG-20010904/DTD/svg10.dtd">
<svg version="1.0" xmlns="http://www.w3.org/2000/svg"
 width="1628.000000pt" height="1106.000000pt" viewBox="0 0 1628.000000 1106.000000"
 preserveAspectRatio="xMidYMid meet">
<metadata>
Created by potrace 1.16, written by Peter Selinger 2001-2019
</metadata>
<g transform="translate(0.000000,1106.000000) scale(0.100000,-0.100000)"
fill="currentColor" stroke="none">
<path d="M9660 10809 c-25 -5 -74 -14 -110 -20 -356 -62 -867 -373 -1081 -659
-65 -87 -74 -106 -178 -390 -150 -411 -229 -650 -265 -800 -33 -142 -44 -198
-51 -257 l-7 -62 -971 4 -972 3 -58 74 c-496 624 -1182 848 -1827 595 -199
-78 -318 -152 -600 -373 -139 -109 -256 -165 -485 -234 -33 -10 -87 -27 -120
-39 -33 -12 -80 -29 -105 -37 -207 -71 -403 -205 -495 -338 -27 -39 -51 -61
-84 -77 -233 -108 -616 -545 -824 -939 -132 -251 -186 -433 -223 -754 -53
-467 -17 -705 139 -916 300 -406 817 -682 1283 -684 162 -1 162 -1 185 137 25
144 39 177 78 177 40 0 52 34 22 63 -18 18 -25 20 -50 10 -31 -11 -140 22
-415 127 -286 110 -399 238 -517 585 -215 635 -194 1109 73 1640 89 178 309
518 350 544 86 54 180 111 184 111 13 0 -58 -194 -126 -346 -11 -22 -64 -155
-120 -295 -55 -140 -110 -276 -121 -303 -11 -26 -41 -105 -65 -175 -155 -435
-178 -561 -104 -561 42 0 74 58 156 283 28 77 36 67 29 -34 -10 -132 9 -292
60 -504 13 -55 36 -149 50 -210 54 -227 113 -360 213 -478 85 -100 157 -151
438 -312 107 -61 179 -125 220 -196 111 -192 145 -247 227 -359 423 -578 968
-1167 1164 -1257 165 -76 1003 -77 1773 -2 467 45 724 85 848 131 115 43 145
173 106 458 -27 206 -32 245 -28 251 2 4 63 12 136 18 73 7 160 21 193 32 87
29 88 29 98 -16 12 -55 1 -407 -15 -475 -13 -55 -13 -55 -138 -63 -146 -10
-190 -24 -190 -61 0 -48 39 -67 182 -88 90 -14 118 -6 147 44 11 18 24 38 28
43 6 6 58 8 144 4 258 -13 578 -10 669 6 218 39 470 159 515 245 31 59 -1 88
-110 99 -60 7 -60 7 35 55 221 111 302 176 281 223 -11 24 -15 25 -72 20 -71
-6 -71 -2 -1 52 78 62 109 113 88 146 -18 28 -53 32 -136 15 -57 -11 -59 -9
-21 37 38 46 42 96 9 114 -55 29 -239 -23 -611 -173 -109 -44 -200 -78 -203
-75 -3 2 9 33 26 68 79 164 78 259 -3 259 -49 0 -114 -39 -422 -253 -166 -116
-195 -130 -240 -115 -58 19 -204 14 -305 -11 -103 -26 -124 -36 -139 -68 -12
-25 -12 -25 -329 -20 -174 2 -344 10 -377 16 -157 29 -555 92 -654 103 -110
12 -110 12 -141 75 -23 45 -66 99 -153 191 -67 70 -154 163 -193 207 -127 145
-317 385 -309 393 2 3 23 -3 47 -13 257 -104 713 -162 1060 -136 727 54 1130
313 1246 801 89 369 84 583 -16 802 -90 197 -282 348 -632 501 -122 53 -523
165 -705 196 -570 98 -964 86 -1224 -37 -154 -74 -304 -281 -395 -546 -87
-255 -99 -456 -26 -456 34 0 57 47 89 182 18 73 41 161 52 196 96 307 283 471
589 517 648 96 1281 -39 1548 -330 112 -122 160 -250 197 -523 78 -581 -105
-863 -635 -978 -105 -23 -582 -27 -715 -6 -273 43 -498 111 -682 204 -83 42
-83 42 -204 285 -125 252 -153 292 -191 272 -24 -13 -20 -79 14 -217 11 -46
18 -86 15 -88 -7 -7 -93 92 -131 150 -89 136 -95 171 -102 611 -6 345 -5 377
14 465 35 171 91 252 214 312 133 65 163 72 287 73 133 1 135 2 98 78 -80 163
-96 290 -56 447 14 56 20 103 17 146 -5 73 -1 75 65 45 23 -10 71 -31 107 -47
199 -87 296 -178 378 -354 60 -132 106 -169 216 -177 167 -13 289 57 402 232
27 41 52 75 55 75 3 0 41 -53 84 -117 208 -313 407 -490 496 -443 53 29 -4
192 -152 431 -29 46 -69 111 -89 144 -21 33 -54 84 -74 114 -20 29 -36 57 -36
62 0 16 1274 2 1673 -19 128 -7 128 -7 171 -87 157 -293 399 -610 481 -631 39
-10 166 21 291 71 116 47 116 47 169 11 52 -34 105 -92 105 -114 0 -38 -225
-164 -359 -201 -86 -24 -85 -24 -112 39 -27 63 -53 88 -74 70 -8 -7 -15 -23
-15 -37 0 -28 41 -113 64 -132 9 -7 39 -61 67 -120 150 -311 293 -504 457
-614 100 -68 178 -56 170 24 -4 45 -4 45 53 19 76 -34 119 -19 119 42 0 27 3
30 23 23 56 -18 82 -17 102 5 19 22 19 30 -12 123 -5 16 -2 16 30 -3 59 -35
108 -13 94 42 -10 40 -110 136 -247 237 -69 51 -127 97 -128 102 -2 6 47 7
127 3 153 -8 181 0 181 49 0 34 -35 71 -141 152 -368 279 -581 468 -613 545
-8 19 -26 121 -40 225 -15 105 -36 239 -47 298 -12 59 -19 110 -16 113 12 13
603 -12 632 -26 30 -15 30 -15 37 -210 10 -305 60 -578 135 -739 196 -420 842
-686 1265 -520 50 19 137 66 148 78 3 3 21 18 41 33 129 96 358 481 444 746 9
28 20 52 25 52 14 0 103 -380 108 -460 4 -71 2 -80 -31 -145 -40 -80 -125
-203 -202 -291 -115 -131 -175 -210 -175 -230 0 -28 22 -53 88 -102 86 -64
125 -134 107 -192 -11 -34 -29 -22 -174 124 -139 138 -139 138 -262 127 -349
-34 -467 -76 -431 -156 14 -30 46 -45 126 -60 33 -5 61 -16 64 -23 4 -14 -86
-106 -312 -317 -107 -100 -127 -125 -124 -145 4 -29 43 -39 78 -20 24 13 26 2
5 -26 -33 -43 -8 -94 46 -94 29 0 30 -2 24 -34 -8 -38 21 -68 56 -59 31 8 22
-14 -22 -54 -149 -135 -346 -449 -358 -573 -6 -58 -7 -60 -61 -97 -57 -40 -70
-64 -49 -89 14 -17 35 -14 139 18 112 35 143 45 224 77 85 34 94 34 76 1 -18
-34 -16 -108 4 -128 26 -26 149 -20 261 13 266 79 446 100 537 64 127 -50 333
-102 663 -168 910 -183 952 -195 1002 -282 66 -118 116 -215 178 -351 36 -79
72 -154 80 -168 16 -30 94 -223 105 -262 11 -35 -1 -44 -70 -53 -41 -5 -75 -1
-130 13 -449 119 -909 106 -1195 -33 -261 -127 -431 -409 -471 -780 -7 -70 -7
-70 -21 -37 -38 93 -28 193 42 407 181 554 258 843 241 909 -16 63 -71 58
-151 -15 -30 -29 -58 -49 -61 -47 -2 3 1 29 8 59 7 32 12 133 12 244 1 179 0
193 -22 232 -96 180 -324 5 -513 -392 -45 -95 -55 -122 -100 -275 -33 -113
-68 -394 -53 -433 7 -20 50 -22 170 -7 43 5 138 14 209 20 72 6 156 13 189 16
58 6 59 6 54 -17 -9 -40 -55 -157 -75 -192 -22 -37 -3 -36 -273 -18 -288 20
-314 12 -350 -108 -53 -183 -70 -324 -77 -643 l-6 -266 -66 -6 c-36 -4 -208
-13 -381 -21 -173 -8 -398 -19 -500 -25 -299 -16 -814 -39 -1360 -60 -371 -14
-715 -28 -990 -40 -337 -14 -1032 -36 -1935 -61 -492 -13 -1522 -17 -1628 -6
-90 10 -100 19 -122 115 -46 198 -35 847 25 1387 5 50 10 99 10 110 1 20 1 20
15 1 8 -11 15 -26 15 -33 0 -13 87 -248 115 -308 7 -16 28 -66 45 -110 18 -44
40 -98 50 -121 11 -22 28 -63 38 -90 11 -27 36 -84 56 -127 20 -42 36 -79 36
-81 0 -2 20 -46 44 -98 24 -51 53 -115 66 -143 76 -168 109 -232 121 -237 8
-3 52 -2 99 3 47 4 166 12 265 19 176 11 300 20 555 40 69 5 188 14 265 19
336 24 472 33 650 47 205 16 379 29 870 64 225 16 378 28 565 44 96 8 245 20
330 26 85 6 233 18 328 26 296 25 409 34 667 54 224 18 462 40 775 70 58 6
155 15 215 20 301 27 547 63 583 86 27 17 28 27 5 50 -19 18 -330 16 -593 -6
-127 -10 -320 -24 -565 -40 -216 -14 -417 -29 -550 -40 -242 -21 -481 -38
-870 -65 -121 -8 -242 -17 -270 -20 -52 -5 -387 -28 -660 -45 -88 -5 -236 -14
-330 -20 -93 -6 -246 -15 -340 -20 -852 -50 -1608 -54 -1865 -9 -59 11 -140
42 -140 54 0 62 -187 623 -266 800 -12 28 -32 74 -43 102 -42 106 -175 361
-235 449 -14 21 -26 44 -26 51 0 13 -131 146 -195 198 -79 65 -228 135 -487
229 -26 10 -57 25 -68 34 -20 17 -20 18 27 52 70 52 93 91 93 160 0 72 -21 95
-82 91 -40 -3 -89 -83 -109 -180 -23 -111 -39 -113 -776 -100 -312 5 -929 6
-1370 2 -803 -6 -803 -6 -803 -30 0 -23 0 -23 1198 -25 1728 -4 1619 -5 1685
11 54 14 58 13 80 -6 36 -34 85 -58 192 -93 211 -70 396 -176 481 -276 43 -50
47 -59 45 -102 -1 -26 5 -81 13 -122 7 -41 12 -97 10 -125 -12 -147 -37 -441
-51 -595 -21 -235 -24 -872 -4 -980 16 -91 45 -172 69 -193 37 -33 221 -40
922 -34 777 7 1351 21 2300 57 146 6 387 14 535 20 875 31 1012 37 1490 60
116 6 318 15 450 20 332 14 614 28 850 41 110 6 254 12 320 13 l120 1 11 -110
c24 -231 78 -480 125 -582 10 -24 19 -45 19 -49 0 -25 145 -209 239 -302 127
-127 367 -312 531 -409 19 -11 64 -38 100 -60 118 -73 653 -353 674 -353 2 0
40 -16 83 -36 166 -77 420 -182 573 -237 146 -52 358 -50 865 9 116 13 235 28
265 34 30 5 107 18 170 29 518 89 888 207 1028 326 153 132 309 597 387 1155
72 516 87 1131 33 1325 -45 160 -152 314 -325 471 -79 71 -99 95 -104 124 -6
27 -23 296 -24 358 0 11 84 13 463 12 462 -1 462 -1 462 28 0 28 0 28 -462 30
-254 1 -464 4 -466 7 -3 3 -9 53 -14 113 -4 59 -12 152 -17 207 -11 118 -35
730 -51 1285 -6 217 -15 539 -20 715 -5 176 -14 511 -20 745 -6 234 -15 584
-20 779 -6 194 -10 426 -10 515 0 115 -4 167 -13 179 -12 17 -96 17 -1522 6
-1191 -9 -1513 -14 -1524 -24 -11 -11 -11 -25 -2 -80 7 -37 10 -70 7 -72 -11
-11 -45 64 -71 154 -27 95 -27 95 1 147 114 207 -172 952 -499 1302 -272 292
-863 571 -1402 664 -66 11 -144 25 -174 30 -66 12 -279 11 -341 -1z m385 -60
c647 -96 1304 -413 1567 -756 160 -207 356 -616 414 -861 19 -84 29 -242 15
-262 -14 -20 -12 -24 -60 154 -104 385 -246 760 -337 890 -81 116 -163 183
-324 262 -174 86 -426 145 -785 184 -246 26 -500 64 -620 91 -263 58 -315 -31
-207 -355 27 -81 46 -149 43 -150 -3 -2 -80 59 -171 136 -185 158 -333 260
-436 303 -88 37 -215 42 -277 11 -21 -10 -41 -16 -44 -12 -8 7 -12 4 67 56
404 267 773 365 1155 309z m-130 -354 c72 -20 209 -42 370 -60 200 -21 417
-50 545 -71 312 -52 530 -142 679 -280 113 -105 175 -224 293 -564 76 -218
177 -573 178 -621 0 -26 -72 -48 -202 -64 -58 -6 -58 -6 -58 57 -1 183 -60
387 -172 593 -180 332 -436 469 -842 452 -395 -16 -721 -199 -940 -527 -67
-102 -104 -193 -86 -215 22 -27 37 -17 114 73 283 334 583 458 891 367 370
-109 686 -342 782 -577 52 -129 76 -346 44 -406 -6 -11 -11 -42 -11 -69 0 -87
-74 -294 -166 -470 -336 -634 -870 -960 -1185 -723 -112 84 -165 182 -312 580
-72 196 -157 491 -157 549 0 18 -47 67 -98 103 -17 12 -23 24 -20 44 3 28 5
29 56 29 66 0 72 8 65 104 -13 197 -41 311 -77 311 -36 0 -57 -59 -77 -227
-15 -123 -8 -121 -149 -51 -137 67 -206 135 -269 263 -51 103 -49 89 -32 335
18 240 11 457 -16 502 -40 69 -106 32 -132 -74 -27 -115 -3 -403 49 -579 26
-86 25 -120 -4 -205 -34 -100 -46 -121 -121 -202 -72 -78 -83 -83 -122 -52
-63 49 -183 6 -218 -77 -14 -33 -14 -33 -160 -33 -116 0 -147 3 -151 14 -9 22
15 240 37 351 90 436 300 998 449 1200 202 274 412 247 820 -106 224 -194 257
-214 291 -183 26 24 26 27 -35 208 -68 200 -76 251 -47 288 32 40 84 44 196
13z m-1237 -147 c-116 -142 -219 -361 -343 -733 -117 -351 -154 -510 -179
-775 -13 -139 -13 -140 -92 -125 -31 5 -34 9 -34 39 0 145 139 616 320 1086
15 41 43 113 60 160 55 146 66 164 184 290 48 52 103 100 114 100 2 0 -11 -19
-30 -42z m349 -475 c11 -40 6 -459 -6 -480 -11 -20 -8 -26 -33 92 -17 85 -17
341 1 383 16 39 28 41 38 5z m1963 -9 c227 -45 406 -195 531 -444 21 -43 39
-81 39 -85 0 -3 9 -24 19 -48 59 -133 81 -234 81 -377 0 -98 0 -98 -34 -119
-44 -28 -46 -27 -46 17 0 73 -38 222 -76 299 -115 231 -323 396 -674 535 -156
62 -206 72 -340 72 -220 1 -401 -81 -614 -275 -63 -57 -65 -52 -8 21 261 332
694 488 1122 404z m-6195 -424 c342 -29 670 -196 970 -495 52 -51 170 -188
195 -225 13 -19 25 -37 28 -40 2 -3 342 -5 755 -6 835 -1 1237 -10 1237 -28 0
-11 41 -142 56 -180 7 -19 1 -19 -262 -13 -148 4 -555 10 -904 13 -368 3 -649
10 -667 16 -18 5 -38 6 -45 2 -6 -4 -52 -11 -101 -15 -126 -10 -133 -19 -85
-110 38 -70 38 -70 -12 -152 -50 -85 -130 -172 -188 -207 -51 -31 -162 -47
-220 -32 -63 17 -75 31 -146 166 -116 220 -194 283 -508 409 -105 42 -107 43
-148 104 -83 125 -185 216 -305 274 -68 32 -180 34 -222 3 -116 -87 11 -198
373 -324 90 -31 145 -57 156 -74 15 -23 20 -116 8 -162 -48 -202 -47 -280 6
-440 14 -42 24 -77 22 -78 -1 -1 -41 -8 -88 -14 -265 -37 -430 -164 -486 -375
-39 -148 -38 -862 2 -998 35 -120 134 -263 258 -372 37 -32 76 -77 88 -100 60
-118 157 -230 282 -325 43 -32 94 -85 138 -144 173 -228 344 -430 544 -639 82
-86 134 -157 134 -182 0 -8 -22 -18 -56 -25 -98 -20 -196 -120 -250 -253 -32
-78 -29 -123 7 -127 26 -3 43 12 142 131 20 25 79 81 129 123 90 76 93 77 142
75 67 -2 254 -28 386 -52 294 -54 376 -62 709 -68 l325 -6 23 -160 c31 -219
33 -374 5 -437 -31 -70 -87 -89 -392 -133 -312 -45 -407 -55 -675 -75 -77 -5
-214 -15 -305 -22 -95 -7 -355 -12 -615 -13 -582 0 -623 7 -767 122 -172 136
-661 671 -863 944 -11 15 -65 87 -120 160 -146 194 -204 284 -265 402 -53 105
-126 166 -346 288 -339 188 -431 312 -534 729 -109 445 -121 590 -71 905 31
195 31 195 -4 195 -30 0 -31 -2 -95 -190 -60 -179 -129 -360 -137 -360 -11 0
12 91 62 238 94 277 183 506 444 1137 94 226 85 288 -33 224 -53 -28 -55 -18
-4 26 105 90 259 161 588 269 260 86 321 115 450 213 58 44 141 107 185 140
195 148 379 242 590 301 103 29 129 34 245 42 58 4 110 7 115 8 6 1 60 -3 120
-8z m4292 -417 c63 -114 129 -171 287 -248 104 -51 136 -71 136 -86 0 -22 -1
-23 -37 -7 -19 9 -125 14 -342 18 -377 6 -373 5 -271 97 86 79 144 171 176
281 6 21 12 14 51 -55z m537 -171 c5 -79 3 -94 -10 -99 -34 -13 -43 17 -33
107 16 149 32 146 43 -8z m-5231 27 c78 -26 168 -90 241 -170 85 -95 83 -96
-75 -35 -161 61 -203 81 -265 122 -61 41 -69 65 -26 88 36 20 52 20 125 -5z
m7630 -126 c24 -94 57 -159 111 -221 25 -30 46 -59 46 -65 0 -7 11 -86 24
-177 66 -445 74 -516 85 -728 10 -189 3 -236 -48 -321 -92 -155 -362 -402
-608 -557 -105 -66 -111 -67 -111 -11 1 72 -59 157 -159 226 -18 12 -33 27
-33 33 0 6 44 63 98 127 262 311 317 413 301 559 -11 99 -22 154 -79 373 -47
183 -48 187 -34 240 46 173 79 340 89 454 9 87 11 89 105 99 36 3 88 12 115
20 81 22 79 23 98 -51z m-3314 21 c20 -18 -57 -64 -108 -64 -31 0 -39 13 -22
38 18 28 107 46 130 26z m6424 -31 c3 -5 10 -186 16 -403 22 -797 31 -1124 41
-1510 35 -1414 54 -1984 74 -2225 8 -93 17 -212 21 -264 l7 -94 -129 5 c-92 3
-137 9 -159 21 -37 19 -81 96 -163 282 -87 196 -119 257 -166 320 -180 241
-576 529 -1125 818 -52 27 -99 53 -104 57 -9 9 3 133 44 460 11 81 44 370 60
515 5 50 19 167 30 260 11 94 22 190 25 215 3 25 14 128 25 230 11 102 28 264
40 361 39 337 49 482 35 505 -23 36 -121 44 -716 54 -518 10 -564 12 -598 30
-38 19 -138 102 -157 129 -15 21 -44 194 -35 204 7 7 1390 23 2526 30 215 1
393 3 397 5 4 1 9 -1 11 -5z m-3495 -135 c-20 -135 -46 -270 -54 -277 -27 -28
-40 201 -16 295 13 50 65 119 82 109 4 -2 -1 -60 -12 -127z m-3485 -52 c9
-105 4 -123 -31 -112 -23 8 -67 109 -78 176 -7 41 -7 41 47 38 54 -3 54 -3 62
-102z m517 91 c105 -2 105 -2 122 -71 21 -85 43 -210 58 -336 28 -241 30 -248
96 -327 24 -28 44 -54 44 -57 0 -32 -353 -146 -391 -126 -67 36 -312 370 -427
583 -41 74 -40 77 8 77 47 0 46 -3 29 146 -16 137 -30 128 179 120 97 -4 224
-7 282 -9z m964 -188 c29 -180 215 -712 323 -924 164 -319 503 -364 876 -114
86 58 280 255 364 369 109 150 212 334 288 517 23 56 29 50 44 -49 15 -94 13
-102 -55 -283 -130 -345 -335 -644 -506 -738 -282 -156 -732 -78 -1048 181
-199 164 -276 328 -335 722 -18 121 -31 379 -21 406 12 30 61 -32 70 -87z
m-3561 -45 c7 -8 -22 -54 -34 -54 -16 0 -28 44 -15 52 14 9 40 10 49 2z m129
-11 c89 -100 387 -624 388 -680 0 -45 -141 53 -238 165 -95 110 -272 374 -272
405 0 7 16 38 36 70 37 60 59 70 86 40z m6123 -45 c76 -53 76 -53 558 -60 520
-8 752 -19 769 -36 8 -8 7 -42 -1 -119 -6 -59 -23 -216 -36 -348 -27 -266 -79
-737 -125 -1120 -17 -137 -34 -288 -40 -335 -5 -47 -24 -201 -41 -343 -17
-142 -28 -264 -26 -271 3 -6 60 -40 127 -75 107 -54 259 -139 333 -185 357
-220 517 -337 672 -490 68 -67 185 -220 185 -241 0 -3 23 -56 51 -118 182
-400 196 -416 356 -418 197 -2 186 7 201 -188 7 -96 10 -176 8 -178 -3 -3 -44
21 -92 52 -100 66 -234 145 -282 166 -26 11 -41 30 -68 82 -33 66 -136 210
-233 327 -81 97 -284 334 -326 380 -409 446 -607 625 -773 696 -31 14 -66 29
-77 34 -31 15 -101 39 -205 70 -319 95 -733 159 -1225 190 -245 16 -331 27
-360 46 -19 12 -41 15 -93 12 -37 -3 -103 1 -147 9 -44 8 -129 23 -190 34 -60
11 -126 22 -145 25 -97 14 -100 20 -35 58 117 69 300 288 406 485 19 36 37 52
89 79 291 153 632 458 748 669 37 68 37 68 37 238 -1 94 -6 211 -13 260 -6 50
-21 164 -32 255 -23 179 -48 352 -57 388 -7 31 -3 29 82 -30z m-10122 -170
c-81 -105 -236 -375 -302 -526 -159 -362 -218 -780 -151 -1077 5 -22 19 -85
31 -140 110 -515 273 -811 503 -914 23 -10 64 -28 91 -41 48 -21 188 -73 340
-126 88 -31 87 -30 69 -89 -8 -28 -19 -81 -25 -120 -15 -97 -13 -95 -143 -95
-557 0 -1224 459 -1357 935 -42 150 -29 491 32 845 67 386 432 967 808 1289
73 62 133 96 104 59z m3477 -503 c579 -57 1134 -233 1424 -451 296 -221 371
-563 235 -1064 -127 -471 -606 -729 -1354 -730 -470 0 -894 96 -1059 241 -41
36 -124 164 -113 175 2 3 40 -11 83 -30 522 -229 1281 -259 1664 -66 333 168
444 479 359 1000 -44 269 -93 383 -218 510 -252 256 -764 390 -1354 352 -222
-14 -324 -33 -439 -82 -233 -100 -377 -294 -448 -605 -35 -151 -42 -175 -52
-175 -5 0 -7 8 -4 18 3 9 8 40 12 67 41 309 238 662 422 754 183 91 481 122
842 86z m3644 -107 c299 -236 317 -251 307 -261 -7 -7 -56 -6 -153 2 -147 13
-172 11 -182 -16 -11 -27 20 -59 158 -163 147 -110 229 -180 222 -187 -8 -8
-47 17 -178 114 -132 97 -147 103 -169 77 -11 -13 -6 -21 37 -57 164 -139 285
-287 234 -287 -17 0 -145 91 -259 185 -58 47 -113 85 -122 85 -31 0 -32 -33
-2 -59 189 -159 293 -281 240 -281 -30 0 -178 111 -279 209 -89 85 -112 103
-126 95 -29 -19 -23 -30 47 -100 121 -121 217 -252 198 -271 -26 -25 -214 130
-300 248 -77 105 -247 412 -247 446 0 5 28 17 63 27 164 48 386 181 401 241 9
34 6 35 110 -47z m1963 -887 c86 -84 148 -152 143 -157 -4 -5 -20 -31 -36 -59
-34 -62 -132 -200 -182 -256 -33 -35 -44 -41 -82 -43 -25 -1 -66 -12 -92 -24
-26 -12 -80 -34 -120 -48 -40 -14 -82 -29 -93 -34 -78 -33 -235 -68 -235 -52
0 12 85 63 220 131 133 67 170 92 170 112 0 39 -24 39 -95 -3 -148 -85 -243
-127 -325 -143 -19 -3 -43 -9 -52 -11 -53 -15 25 75 138 160 209 157 225 170
222 190 -6 39 -36 27 -184 -72 -248 -165 -258 -163 -64 13 151 137 230 225
230 256 0 29 -45 69 -77 69 -33 0 -91 16 -113 30 -13 9 -13 11 0 20 37 24 293
67 410 68 65 1 65 1 217 -147z m-6698 -512 c40 -83 70 -153 67 -156 -7 -8 -61
33 -78 59 -19 29 -78 213 -78 243 0 27 29 -20 89 -146z m6295 -164 c-4 -8 -17
-15 -30 -15 -28 0 -32 16 -6 23 33 9 41 7 36 -8z m22 -80 c127 -19 405 -73
412 -80 3 -3 -7 -27 -22 -54 -75 -138 -109 -348 -84 -516 3 -17 -3 -20 -42
-23 -94 -5 -191 -24 -376 -74 -222 -59 -250 -59 -241 -2 11 67 64 124 157 170
100 49 140 85 120 109 -24 29 -101 1 -200 -75 -40 -30 -232 -114 -249 -109 -7
3 26 24 71 49 61 33 83 51 83 65 0 30 -26 29 -101 -6 -38 -17 -93 -42 -122
-56 -95 -43 -101 -21 -32 119 98 195 289 431 392 481 42 21 103 21 234 2z
m-6199 -17 c26 -29 55 -86 51 -100 -4 -11 -98 100 -98 115 0 15 27 6 47 -15z
m6910 -104 c33 -9 46 -66 47 -204 0 -108 -2 -119 -30 -175 -47 -95 -135 -144
-290 -160 -61 -7 -61 -7 -73 26 -38 110 24 440 94 499 33 27 168 35 252 14z
m346 -34 c817 -45 1449 -188 1716 -388 272 -205 1176 -1220 1129 -1268 -2 -2
-49 14 -104 36 -238 93 -424 116 -424 51 0 -68 332 -192 525 -195 105 -2 166
-30 381 -172 146 -97 141 -90 148 -209 3 -55 11 -176 17 -270 6 -93 9 -278 8
-410 -2 -201 0 -251 15 -310 10 -38 45 -178 78 -310 66 -262 64 -257 101 -430
33 -152 41 -226 27 -245 -24 -35 -187 184 -370 495 -124 211 -186 263 -297
252 -152 -16 -304 -166 -689 -682 -297 -396 -480 -563 -641 -582 -99 -11 -301
29 -484 97 -59 22 -109 40 -112 40 -4 0 -30 11 -59 24 -29 13 -82 36 -118 52
-36 15 -303 148 -595 294 -291 147 -536 269 -544 272 -12 3 -10 13 10 54 20
41 24 64 24 141 0 51 3 93 6 93 3 0 35 -37 71 -83 222 -278 560 -525 858 -627
314 -106 692 -74 1032 89 436 209 683 552 665 924 -24 514 -367 1022 -872
1292 -49 26 -92 50 -94 51 -2 2 3 12 12 22 23 25 21 57 -6 139 -54 159 -323
721 -382 798 -41 54 -188 95 -750 206 -265 53 -577 120 -675 146 -52 13 -112
29 -132 34 -47 12 -49 25 -5 34 133 28 228 99 261 196 23 65 32 223 18 299
-13 68 -9 74 40 66 22 -4 117 -11 211 -16z m-1652 -526 c-19 -8 -36 -12 -39
-9 -6 6 37 24 58 24 8 0 0 -6 -19 -15z m-7223 -223 c5 -32 -14 -74 -49 -107
-36 -35 -44 -28 -28 28 27 91 69 134 77 79z m5226 -80 c9 -15 -33 -131 -82
-224 -43 -82 -45 -89 -29 -104 16 -16 20 -16 74 2 32 10 63 22 68 25 27 19
481 192 560 214 172 47 190 43 118 -25 -67 -63 -107 -87 -173 -104 -241 -61
-308 -99 -245 -141 37 -24 124 -3 245 57 123 63 330 114 330 82 0 -33 -215
-188 -288 -208 -118 -33 -298 -96 -322 -114 -33 -24 -37 -56 -9 -71 45 -25
176 16 320 99 40 23 96 48 124 55 78 21 135 29 135 19 0 -13 -121 -83 -232
-136 -205 -98 -204 -98 -378 -127 -94 -16 -100 -19 -100 -45 0 -41 65 -44 185
-9 115 34 355 39 355 8 0 -17 -67 -67 -143 -105 -161 -82 -303 -118 -502 -125
-141 -6 -586 10 -604 20 -5 3 -2 40 6 83 18 97 22 445 5 485 -14 33 -15 31 88
96 41 26 121 80 177 119 209 150 301 200 317 174z m3162 -128 c47 -97 10 -516
-61 -690 -20 -50 -14 -76 17 -71 15 2 25 15 36 48 19 57 61 119 130 193 100
104 106 67 32 -198 -79 -287 -79 -287 -104 -266 -10 8 -34 10 -73 7 -32 -4
-130 -13 -218 -22 -274 -27 -315 -30 -323 -22 -10 10 10 191 33 303 52 257
216 574 365 706 87 79 132 82 166 12z m-5960 -307 c-53 -52 -96 -100 -96 -105
0 -6 -4 -11 -10 -11 -33 0 103 174 158 202 58 29 49 15 -52 -86z m2052 80
c-10 -7 -66 -18 -125 -25 -60 -7 -120 -14 -135 -16 -30 -5 -48 12 -24 21 73
28 317 45 284 20z m-3746 -449 c31 -52 102 -196 170 -347 87 -191 262 -702
293 -856 15 -78 105 -105 425 -129 335 -26 750 -16 1810 41 261 14 372 21 695
44 77 5 277 19 445 30 269 18 519 37 950 69 69 6 224 17 345 25 212 15 343 25
600 46 367 30 515 37 503 24 -6 -5 -56 -11 -268 -34 -269 -29 -1941 -166
-2680 -220 -151 -11 -322 -24 -380 -30 -125 -11 -313 -25 -620 -46 -124 -8
-279 -19 -345 -24 -132 -11 -605 -45 -840 -60 -316 -22 -432 -30 -485 -36 -41
-4 -59 -3 -66 7 -14 19 -109 223 -211 454 -46 105 -90 204 -97 220 -8 17 -35
82 -61 145 -26 63 -51 124 -56 135 -103 246 -190 519 -182 571 8 46 12 43 55
-29z m10773 -7 c138 -47 145 -50 145 -60 0 -15 -199 38 -292 79 -114 49 -14
36 147 -19z m-1810 -210 c211 -24 208 -35 -12 -44 -543 -22 -768 -84 -922
-252 -115 -126 -177 -276 -202 -489 -20 -172 28 -389 104 -472 231 -251 1266
-519 1689 -438 352 67 309 316 -96 554 -205 121 -560 279 -921 411 -448 164
-575 220 -575 255 0 34 120 107 235 143 613 189 1264 47 1638 -358 160 -173
241 -365 254 -605 24 -459 -180 -692 -677 -772 -154 -24 -571 -25 -695 0 -352
70 -601 222 -830 508 -52 65 -107 124 -121 131 -28 14 -49 68 -95 238 -25 96
-36 334 -20 439 19 123 83 302 140 391 191 304 554 422 1106 360z m-5164 -19
c-15 -27 -33 -31 -97 -21 -127 21 -122 40 12 40 90 0 94 -1 85 -19z m5684 -96
c407 -152 773 -540 918 -975 127 -384 54 -704 -221 -961 -388 -362 -959 -483
-1417 -300 -325 130 -748 496 -889 769 -18 35 -13 61 6 29 15 -28 152 -189
182 -214 350 -302 716 -414 1216 -374 624 51 886 241 929 676 66 665 -461
1194 -1260 1266 -264 24 -651 -40 -848 -140 -61 -32 -60 -21 5 38 63 58 190
122 274 140 214 43 507 69 830 74 177 2 199 0 275 -28z m2216 -242 c229 -239
262 -339 262 -788 0 -829 -175 -1704 -395 -1969 -135 -163 -653 -311 -1453
-415 -433 -56 -747 -63 -846 -18 -19 8 -124 51 -234 95 -1031 412 -1760 900
-1958 1312 -29 61 -79 253 -101 394 -23 140 -38 285 -32 295 3 5 50 12 104 15
53 4 165 11 247 17 243 15 399 31 410 40 21 20 33 4 58 -78 75 -249 88 -415
39 -491 -19 -29 -28 -27 -167 21 -127 45 -214 56 -238 32 -77 -76 175 -201
327 -162 72 18 83 14 466 -181 713 -363 895 -447 1147 -531 232 -76 450 -91
553 -38 159 82 314 242 583 602 351 468 472 594 606 624 95 21 150 -27 271
-234 128 -219 245 -391 313 -461 154 -157 199 -22 110 331 -14 55 -38 152 -53
215 -142 581 -148 612 -132 669 7 21 12 72 12 113 0 84 -27 616 -34 665 -9 62
19 47 135 -74z m-4297 -73 c88 -6 163 -13 168 -16 5 -4 21 5 35 17 25 24 25
24 17 -6 -4 -16 -20 -69 -36 -118 -56 -174 -49 -229 73 -588 54 -161 52 -182
-16 -193 -105 -16 -696 -59 -704 -50 -12 12 -3 433 13 572 29 253 66 380 116
393 26 7 74 5 334 -11z m586 -95 c19 -35 104 -74 424 -191 515 -190 990 -398
1110 -488 17 -13 45 -31 61 -39 48 -25 174 -146 195 -188 45 -87 15 -154 -86
-193 -63 -25 -358 -34 -503 -16 -439 54 -965 224 -1171 377 -145 108 -187 473
-81 716 23 54 32 57 51 22z m-405 -1441 c95 -31 114 -44 62 -44 -44 0 -156 35
-177 56 -23 23 23 18 115 -12z"/>
</g>
</svg>
