<?xml version="1.0" standalone="no"?>
<!DOCTYPE svg PUBLIC "-//W3C//DTD SVG 20010904//EN"
 "http://www.w3.org/TR/2001/REC-SVG-20010904/DTD/svg10.dtd">
<svg version="1.0" xmlns="http://www.w3.org/2000/svg"
 width="1568.000000pt" height="920.000000pt" viewBox="0 0 1568.000000 920.000000"
 preserveAspectRatio="xMidYMid meet">
<metadata>
Created by potrace 1.16, written by Peter Selinger 2001-2019
</metadata>
<g transform="translate(0.000000,920.000000) scale(0.100000,-0.100000)"
fill="currentColor" stroke="none">
<path d="M7228 8953 c-26 -4 -88 -63 -88 -83 0 -5 -24 -9 -52 -8 -51 1 -76 -7
-208 -64 -93 -41 -113 -55 -173 -118 -121 -127 -177 -288 -197 -562 -12 -174
-44 -232 -138 -247 -127 -20 -138 -91 -12 -76 33 4 67 13 75 21 53 53 890 120
1060 85 91 -19 157 -41 182 -61 14 -11 24 -20 22 -20 -2 0 -141 -2 -309 -4
-498 -7 -759 -17 -864 -32 -55 -8 -114 -14 -131 -14 -72 0 -75 -58 -7 -132 56
-63 134 -164 152 -197 10 -19 10 -38 0 -98 -30 -175 27 -494 93 -524 17 -8 31
-35 56 -112 42 -130 47 -143 93 -255 78 -187 52 -274 -104 -353 -95 -48 -95
-87 1 -187 88 -92 338 -258 420 -279 14 -3 36 -12 50 -19 15 -8 59 -14 105
-14 76 0 80 1 120 35 23 20 79 68 126 108 100 85 139 118 154 133 6 6 63 54
126 108 63 54 117 102 118 107 2 5 8 9 13 9 14 0 10 -33 -6 -54 -8 -11 -15
-28 -15 -39 0 -10 -6 -33 -14 -50 -8 -18 -26 -71 -41 -120 -15 -48 -31 -90
-36 -93 -5 -3 -9 -14 -9 -26 0 -11 -6 -32 -14 -46 -7 -15 -24 -54 -36 -87 -47
-127 -65 -171 -77 -190 -7 -11 -13 -27 -13 -36 0 -9 -7 -22 -15 -29 -8 -7 -15
-20 -15 -30 0 -10 -14 -45 -30 -79 -17 -33 -35 -71 -40 -83 -6 -13 -14 -30
-19 -38 -4 -8 -15 -31 -24 -50 -8 -19 -40 -87 -71 -152 -31 -64 -56 -120 -56
-124 0 -7 -31 -78 -49 -114 -4 -8 -18 -49 -30 -90 -12 -41 -24 -81 -27 -89 -4
-11 -7 -11 -21 0 -18 15 -151 189 -169 221 -7 11 -29 39 -51 62 -39 42 -83
100 -83 111 0 4 -13 25 -28 48 -52 76 -119 218 -161 337 -13 36 -30 79 -37 97
-8 17 -14 36 -14 43 0 7 -7 26 -15 43 -8 18 -25 75 -39 127 -14 52 -29 109
-35 125 -12 35 -26 101 -47 208 -34 181 -53 182 -329 21 -158 -92 -188 -115
-208 -157 -22 -45 -26 -45 -52 -5 -69 109 -139 86 -398 -132 -126 -107 -191
-186 -204 -250 -3 -16 -12 -35 -19 -41 -8 -6 -14 -22 -14 -36 0 -13 -5 -34
-12 -46 -11 -22 -27 -81 -54 -210 -7 -38 -16 -72 -18 -76 -7 -11 -55 -291 -81
-471 -15 -105 -30 -208 -45 -315 -6 -38 -15 -113 -21 -165 -5 -52 -16 -131
-24 -175 -8 -44 -15 -103 -15 -130 0 -28 -7 -78 -16 -110 -10 -35 -17 -102
-18 -161 -1 -102 -1 -102 42 -152 53 -63 53 -62 -12 -62 -40 0 -55 -4 -60 -16
-10 -26 -7 -73 7 -107 34 -80 28 -147 -11 -147 -20 0 -72 -49 -72 -68 0 -28
25 -59 70 -87 59 -36 55 -12 70 -383 6 -150 15 -284 20 -298 13 -33 13 -91 0
-99 -6 -3 -10 0 -10 7 0 7 -9 30 -20 51 -11 20 -20 42 -20 48 0 6 -6 25 -14
42 -7 18 -23 59 -35 92 -12 33 -28 74 -35 90 -7 17 -25 66 -39 110 -15 44 -37
112 -50 150 -13 39 -34 104 -46 145 -13 41 -27 89 -33 105 -6 17 -14 55 -19
86 -4 31 -14 69 -20 85 -13 31 -27 548 -28 1041 -1 161 -5 283 -11 299 -16 42
1 50 57 29 67 -26 176 -25 225 2 108 59 149 150 150 331 1 113 4 136 18 150
43 42 62 192 41 332 -20 138 -40 255 -52 300 -21 82 -75 218 -95 241 -8 8 -14
21 -14 27 0 17 -82 92 -100 92 -8 0 -24 7 -34 15 -11 8 -35 15 -54 15 -44 0
-72 16 -72 42 0 25 -56 112 -95 148 -50 46 -111 135 -149 216 -21 43 -42 88
-48 99 -6 11 -17 40 -24 65 -12 44 -24 80 -50 150 -7 19 -24 71 -38 115 -35
112 -75 223 -97 272 -10 23 -19 45 -19 49 0 4 -6 15 -14 23 -8 9 -17 30 -21
48 -8 41 13 53 93 53 56 0 64 3 121 46 104 78 131 128 93 174 -16 19 -28 22
-137 25 -66 1 -123 3 -127 4 -5 0 -8 58 -8 129 0 70 -5 144 -10 165 -6 20 -14
53 -19 73 -13 51 -80 184 -108 214 -13 14 -36 43 -51 65 -34 51 -81 96 -157
152 -54 41 -63 44 -101 38 -38 -5 -43 -3 -66 27 -48 62 -151 101 -319 123
-154 19 -202 7 -248 -61 -23 -33 -34 -40 -75 -46 -26 -4 -56 -14 -65 -22 -10
-9 -22 -16 -28 -16 -5 0 -32 -16 -59 -35 -27 -19 -52 -35 -56 -35 -37 0 -167
-141 -207 -225 -36 -75 -80 -194 -90 -245 -4 -19 -15 -55 -23 -80 -9 -25 -26
-79 -39 -120 -27 -92 -38 -106 -93 -113 -116 -16 -127 -61 -29 -111 47 -24 62
-20 103 27 38 42 38 42 843 45 789 3 806 3 816 -16 8 -16 6 -26 -11 -47 -11
-15 -24 -41 -27 -58 -7 -32 -7 -32 -371 -35 -269 -2 -408 1 -528 13 -90 8
-186 15 -215 15 -80 0 -190 24 -225 50 -17 13 -38 20 -46 17 -19 -7 -22 -63
-4 -69 8 -3 13 -39 15 -109 5 -193 35 -513 49 -536 8 -12 14 -29 14 -38 0 -58
127 -277 227 -390 131 -150 250 -221 357 -213 34 3 71 10 82 16 10 6 39 20 64
32 50 25 162 112 228 177 120 121 129 -12 33 -497 -14 -70 -51 -174 -85 -242
-47 -91 -98 -124 -211 -133 -89 -8 -255 1 -315 15 -168 42 -286 83 -316 111
-11 10 -25 19 -31 19 -6 0 -23 14 -38 32 -47 55 -36 103 72 323 30 61 58 117
63 125 48 83 63 153 39 177 -13 13 -93 -10 -122 -35 -10 -9 -35 -15 -61 -14
-39 0 -48 -4 -79 -39 -37 -41 -74 -60 -147 -77 -82 -19 -79 1 29 218 4 8 25
69 47 135 39 120 39 120 37 428 -2 421 -22 557 -83 557 -22 0 -60 -82 -60
-130 0 -21 -5 -51 -11 -67 -12 -32 -24 -182 -39 -483 -5 -113 -14 -227 -20
-255 -16 -87 -49 -225 -56 -236 -3 -6 -6 -51 -5 -101 0 -92 0 -92 -45 -147
-46 -57 -102 -182 -133 -298 -7 -24 -16 -43 -21 -43 -6 0 -10 -7 -10 -16 0 -8
-4 -12 -10 -9 -5 3 -10 43 -10 88 0 133 -33 200 -89 182 -30 -9 -86 -107 -141
-245 -12 -30 -28 -68 -35 -85 -13 -28 -41 -102 -70 -185 -7 -19 -18 -51 -24
-70 -7 -19 -18 -53 -23 -75 -6 -22 -15 -45 -19 -51 -5 -6 -13 -31 -18 -55 -9
-42 -14 -59 -41 -139 -11 -32 -24 -87 -49 -215 -10 -54 -30 -176 -55 -345 -30
-197 -37 -245 -47 -340 -6 -52 -17 -123 -25 -157 -8 -34 -14 -85 -14 -113 0
-28 -6 -83 -14 -123 -8 -40 -18 -108 -21 -152 -4 -44 -13 -109 -21 -145 -7
-36 -14 -90 -14 -122 0 -31 -7 -92 -15 -135 -8 -43 -15 -98 -15 -122 0 -24 -7
-89 -15 -145 -8 -55 -19 -159 -25 -231 -5 -71 -14 -173 -19 -225 -5 -52 -15
-201 -22 -331 -18 -352 1 -483 74 -509 29 -10 29 -10 21 -107 -9 -113 -8 -139
6 -288 19 -196 69 -433 99 -469 6 -7 12 -31 14 -52 2 -39 2 -39 -72 -44 -40
-3 -223 -2 -405 1 -182 4 -508 7 -723 8 -393 1 -393 1 -393 -29 0 -30 0 -30
598 -30 972 -1 1493 -10 1559 -29 57 -17 77 24 32 65 -24 22 -27 249 -5 389 8
50 18 123 22 163 4 40 11 75 17 79 6 3 51 7 101 8 110 3 176 27 255 91 56 46
96 53 151 24 21 -11 182 -31 295 -37 97 -6 212 9 259 33 40 20 56 5 50 -49 -3
-23 -8 -115 -13 -205 -7 -148 -10 -165 -29 -185 -22 -21 -22 -21 -41 -2 -10
11 -27 27 -37 35 -165 132 -220 174 -276 213 -38 26 -70 47 -72 47 -3 0 -24
13 -48 29 -44 30 -148 71 -180 71 -9 0 -35 -17 -56 -37 -39 -38 -39 -38 -35
-153 4 -152 31 -382 49 -425 8 -19 14 -42 14 -52 1 -27 51 -79 90 -93 49 -17
895 -25 1190 -11 426 20 595 32 662 47 37 8 82 14 101 14 18 0 53 6 78 14 24
7 63 19 86 25 59 16 103 60 103 103 0 54 8 52 89 -27 72 -70 171 -145 192
-145 6 0 40 -14 77 -31 128 -59 147 -67 196 -83 61 -20 61 -20 80 0 23 23 21
28 -36 87 -69 70 -117 181 -163 382 -8 33 -18 78 -24 100 -30 125 -41 176 -41
202 0 15 -9 64 -20 108 -11 44 -20 97 -20 118 0 21 -6 66 -14 100 -16 70 -30
169 -51 372 -8 77 -19 172 -24 210 -6 39 -11 104 -11 145 0 41 -7 125 -15 185
-15 116 -20 370 -7 379 8 4 90 -14 147 -32 201 -67 417 -91 478 -53 54 33 57
50 43 217 -7 82 -18 161 -23 175 -14 32 -62 89 -75 89 -6 0 -29 8 -52 19 -64
29 -122 41 -244 52 -155 13 -223 48 -288 151 -26 41 -32 106 -14 154 6 15 15
63 20 108 10 89 26 206 41 306 5 36 14 103 19 150 12 116 54 407 81 560 6 36
17 101 24 145 7 44 17 100 23 125 5 25 18 81 27 125 16 73 29 124 72 270 9 28
21 59 28 70 6 11 15 31 18 45 8 29 40 64 122 135 32 28 66 57 74 65 83 77 206
160 240 160 52 0 85 -144 60 -260 -9 -42 -23 -166 -49 -425 -6 -60 -17 -144
-25 -185 -8 -42 -15 -94 -15 -118 0 -23 -6 -59 -14 -79 -8 -21 -17 -60 -20
-88 -3 -27 -12 -70 -20 -95 -8 -25 -19 -65 -25 -90 -38 -153 -68 -268 -105
-401 -24 -84 -42 -263 -30 -296 17 -50 55 -61 98 -28 39 30 86 112 86 151 0
27 36 104 48 104 5 0 28 -10 53 -22 117 -57 598 -117 1264 -158 88 -6 205 -15
260 -20 55 -6 219 -15 365 -20 146 -6 290 -15 320 -19 30 -5 196 -10 369 -10
314 -2 314 -2 357 -47 54 -55 69 -111 78 -274 3 -63 10 -142 16 -175 5 -33 14
-116 20 -185 5 -69 14 -156 19 -195 5 -38 15 -119 21 -180 7 -60 18 -168 25
-240 8 -71 19 -182 25 -245 6 -63 18 -153 26 -200 8 -47 14 -114 15 -150 0
-36 5 -90 10 -120 10 -58 30 -236 49 -435 6 -66 15 -148 19 -183 10 -83 -19
-204 -63 -260 -46 -59 -124 -111 -140 -94 -3 3 -6 91 -6 195 0 190 0 190 31
241 43 69 45 111 4 111 -25 0 -33 -7 -52 -45 -12 -25 -22 -53 -22 -62 -1 -20
-50 -95 -80 -122 -12 -11 -21 -25 -21 -32 0 -7 -6 -17 -12 -21 -7 -4 -34 -33
-60 -64 -46 -55 -98 -107 -188 -188 -43 -39 -82 -52 -95 -32 -3 6 -27 13 -52
17 -26 4 -83 20 -128 36 -44 16 -94 34 -112 39 -18 5 -35 14 -38 19 -4 6 -13
10 -21 10 -28 0 -148 78 -196 127 -43 45 -110 141 -204 291 -246 396 -377 454
-452 201 -6 -19 -20 -59 -32 -89 -12 -30 -26 -68 -32 -84 -65 -173 -225 -269
-563 -337 -27 -5 -72 -14 -100 -20 -177 -35 -689 -29 -728 9 -17 17 -20 43
-28 218 -5 110 -13 255 -19 324 -6 69 -15 226 -20 350 -5 124 -14 259 -20 300
-5 41 -10 114 -10 161 0 92 -13 124 -45 117 -34 -6 -51 -123 -65 -439 -5 -115
-12 -214 -15 -218 -3 -5 -9 -132 -15 -283 -5 -150 -12 -321 -16 -380 -7 -107
-7 -107 25 -137 17 -16 56 -37 85 -45 29 -9 58 -21 64 -28 15 -18 42 -326 42
-477 0 -135 9 -166 46 -159 17 3 20 14 24 93 5 90 5 90 80 93 41 2 128 -4 192
-13 186 -27 720 -27 768 -1 63 35 127 28 198 -21 67 -48 74 -50 93 -27 10 13
7 25 -20 77 -58 110 -93 172 -106 187 -19 22 -30 70 -15 70 6 0 32 -16 57 -35
72 -55 228 -124 281 -125 33 0 59 16 75 47 13 24 14 22 20 -46 7 -83 40 -154
73 -159 21 -3 64 62 64 96 0 19 21 24 38 9 35 -32 169 -57 296 -57 115 1 143
4 246 30 58 15 196 83 286 143 72 47 72 47 170 36 55 -6 133 -8 175 -4 81 7
105 -4 97 -42 -3 -16 -21 -18 -216 -23 -222 -5 -237 -8 -229 -50 7 -41 426
-72 468 -34 23 21 319 20 544 -1 83 -8 233 -17 335 -20 108 -3 199 -10 220
-17 45 -16 248 -17 276 -1 16 9 42 9 115 -2 261 -38 1369 -58 1903 -35 154 7
368 15 474 19 188 6 194 7 213 30 10 13 19 30 19 37 0 8 4 22 10 32 12 21 38
93 52 147 6 22 14 45 18 50 4 6 11 26 15 45 11 59 37 131 45 128 4 -2 33 -33
65 -71 140 -164 246 -200 303 -103 30 51 56 270 42 362 -5 38 -10 102 -10 143
0 73 0 73 28 66 291 -76 953 -86 1312 -21 99 18 187 42 204 55 6 5 22 11 36
13 25 3 25 2 33 -87 15 -171 4 -675 -16 -712 -10 -18 -19 -33 -20 -34 -1 0
-108 -5 -237 -9 -291 -10 -400 -31 -400 -76 0 -39 103 -50 323 -34 167 12 342
41 362 61 5 5 107 9 237 9 228 0 228 0 228 25 0 25 0 25 -214 25 -118 0 -217
3 -219 8 -2 4 0 39 5 77 24 200 20 478 -11 805 -6 62 -7 65 -33 68 -22 3 -28
-1 -28 -16 0 -34 -100 -102 -151 -102 -11 0 -35 -6 -52 -14 -18 -8 -86 -20
-152 -26 -66 -7 -158 -16 -205 -20 -357 -35 -974 17 -1031 86 -15 18 -43 18
-59 -1 -10 -12 -9 -41 4 -142 20 -159 21 -337 2 -395 -8 -24 -17 -55 -20 -70
-16 -69 -70 -54 -171 45 -138 138 -146 155 -139 286 6 98 4 122 -10 148 -24
48 -20 57 37 86 100 51 161 126 228 282 13 31 33 104 49 185 5 25 9 107 9 182
1 75 4 143 7 152 7 19 54 -64 54 -97 0 -32 44 -145 105 -266 133 -268 239
-326 595 -326 210 0 237 4 410 52 161 45 212 66 408 169 66 35 200 155 224
203 32 62 16 159 -57 336 -31 78 -61 146 -92 213 -18 40 -33 77 -33 82 0 4 -7
21 -15 37 -8 15 -24 51 -35 78 -12 28 -28 65 -36 83 -8 17 -20 47 -28 65 -8
17 -31 75 -50 127 -20 52 -43 110 -51 128 -8 18 -15 38 -15 45 0 7 -6 23 -13
37 -28 55 -82 246 -107 388 -24 126 -25 182 -6 271 8 36 20 98 25 136 17 112
39 217 55 260 8 22 15 48 16 57 1 37 44 88 156 183 270 230 298 272 359 537
20 89 20 327 0 383 -8 22 -15 48 -15 58 0 11 -6 33 -14 50 -7 18 -23 59 -36
92 -66 173 -179 305 -261 305 -12 0 -41 21 -69 50 -54 56 -76 61 -118 25 -31
-26 -31 -26 -139 -11 -190 27 -237 37 -303 69 -69 34 -200 150 -200 179 0 17
65 48 101 48 25 0 73 49 98 99 58 116 72 358 34 567 -11 62 -23 117 -27 122
-3 6 -10 30 -16 54 -17 80 -42 137 -69 155 -53 37 -843 21 -1235 -24 -117 -13
-139 -14 -147 -2 -11 17 -12 100 -1 115 14 21 755 55 1205 54 154 0 169 -2
187 -20 11 -11 20 -28 20 -38 0 -68 88 -86 146 -28 64 64 37 118 -66 135 -34
6 -34 6 -56 141 -33 207 -60 278 -153 419 -31 46 -60 91 -65 100 -26 44 -94
91 -142 98 -27 3 -66 17 -86 29 -99 63 -325 82 -466 42 -66 -20 -84 -30 -129
-75 -40 -41 -63 -55 -99 -63 -77 -17 -190 -114 -257 -221 -76 -120 -95 -194
-96 -366 -1 -140 -3 -143 -86 -143 -99 0 -135 -34 -135 -125 0 -67 26 -100 86
-110 89 -13 109 -20 112 -39 4 -20 -21 -120 -42 -171 -7 -16 -22 -55 -33 -85
-11 -30 -26 -71 -33 -90 -11 -30 -25 -129 -30 -205 -1 -20 -1 -20 -51 72 -15
28 -61 47 -93 39 -97 -24 -150 -323 -96 -537 23 -90 23 -92 -29 -119 -43 -21
-91 -73 -91 -97 0 -9 14 -42 32 -73 32 -59 32 -59 1 -90 -79 -81 -84 -322 -10
-449 64 -108 227 -211 334 -211 83 0 92 -17 36 -67 -59 -51 -165 -44 -310 23
-17 7 -36 14 -41 14 -6 0 -12 4 -14 8 -7 17 -81 52 -108 52 -35 0 -60 -39 -60
-92 0 -18 -6 -45 -14 -59 -7 -14 -16 -37 -20 -52 -3 -15 -12 -27 -18 -27 -13
0 -118 108 -118 121 0 5 -13 31 -30 59 -16 28 -30 56 -30 63 -1 7 -9 30 -20
52 -11 22 -19 50 -20 61 0 12 -7 39 -17 60 -29 68 -25 336 7 394 66 125 169
224 307 296 95 50 99 65 28 107 -36 22 -74 33 -137 42 -53 7 -97 19 -113 31
-46 32 -109 63 -130 63 -11 1 -40 7 -65 15 -25 8 -83 25 -130 37 -47 11 -100
27 -118 35 -18 8 -40 14 -48 14 -8 0 -35 9 -60 21 -85 38 -98 29 -106 -76 -7
-101 -29 -217 -45 -237 -6 -7 -14 -27 -17 -45 -4 -17 -14 -37 -22 -44 -8 -6
-14 -16 -14 -22 0 -16 -89 -122 -205 -243 -22 -24 -54 -59 -70 -79 -17 -20
-45 -53 -62 -73 -18 -21 -33 -40 -33 -43 0 -4 -13 -22 -30 -40 -16 -19 -30
-37 -30 -41 0 -3 -15 -24 -32 -45 -18 -21 -55 -71 -81 -110 -59 -88 -75 -102
-88 -82 -5 8 -9 22 -9 31 0 42 -131 240 -248 376 -67 78 -100 127 -142 207
-14 28 -31 59 -37 70 -27 53 -73 168 -73 185 0 14 33 13 47 -1 16 -16 68 -44
178 -94 17 -8 56 -26 89 -41 32 -14 84 -36 115 -48 32 -13 57 -29 59 -39 3
-13 -65 -168 -109 -249 -35 -67 16 -112 63 -55 28 33 91 153 103 197 24 83 60
80 188 -19 90 -69 166 -54 167 34 0 44 -22 70 -91 106 -33 18 -58 37 -56 43 2
6 39 36 83 66 161 110 207 155 255 245 23 43 26 158 5 207 -32 76 -48 147 -44
189 6 55 56 221 97 319 32 78 39 124 20 136 -12 7 -58 -43 -59 -63 -1 -41 -74
-207 -115 -263 -14 -19 -25 -38 -25 -42 0 -14 -152 -168 -165 -168 -7 0 -18
-7 -25 -15 -7 -8 -19 -15 -27 -15 -8 0 -30 -7 -49 -16 -69 -33 -281 12 -342
73 -7 7 -18 13 -23 13 -5 0 -45 35 -87 78 -95 97 -144 185 -167 300 -20 101
-25 328 -8 392 6 25 21 90 33 145 51 244 63 265 181 307 72 25 264 30 369 9
281 -56 470 -117 509 -165 17 -20 10 -185 -11 -287 -9 -44 -10 -63 -2 -66 32
-11 47 -34 55 -83 11 -68 45 -108 77 -91 28 15 62 125 62 200 0 64 10 87 35
78 12 -5 20 2 30 26 12 29 51 85 88 127 90 103 50 192 -128 282 -87 44 -119
58 -152 64 -18 4 -33 10 -33 14 0 5 -19 11 -42 15 -24 4 -52 12 -63 18 -19 11
-72 23 -200 47 -33 6 -80 16 -105 22 -25 7 -128 13 -230 15 -102 1 -186 6
-188 11 -1 4 12 19 30 32 54 40 229 39 388 -1 94 -24 186 -51 203 -60 9 -5 38
-12 62 -16 25 -3 50 -12 56 -19 6 -8 22 -14 36 -14 13 0 38 -7 55 -16 17 -9
66 -18 109 -21 77 -6 77 -6 94 27 25 49 6 156 -49 271 -13 30 -30 65 -36 79
-30 68 -105 172 -164 229 -49 45 -71 57 -100 52 -56 -10 -79 -3 -115 38 -82
92 -214 119 -299 61 -42 -28 -45 -28 -68 -13 -41 27 -137 13 -222 -32 -71 -37
-197 -137 -215 -172 -6 -10 -14 -21 -19 -24 -13 -9 -141 -266 -173 -349 -16
-41 -32 -79 -35 -85 -4 -5 -17 -39 -30 -75 -38 -103 -86 -188 -135 -237 -53
-52 -54 -57 -19 -80 27 -17 27 -17 66 27 21 25 41 53 44 63 3 9 9 17 13 17 4
0 37 21 72 48 95 69 88 65 195 114 73 33 84 26 58 -38 -21 -50 -17 -48 -53
-30 -50 26 -68 20 -133 -46 -96 -99 -126 -168 -79 -183 28 -9 102 28 124 63 9
14 57 17 57 3 0 -9 -24 -129 -35 -178 -8 -35 -42 -30 -50 7 -15 68 -83 73
-115 9 -50 -98 10 -355 115 -494 30 -39 30 -39 30 -290 0 -230 -2 -255 -22
-310 -17 -47 -26 -61 -45 -63 -33 -5 -48 -21 -48 -51 -1 -35 -25 -61 -89 -95
-30 -15 -62 -32 -70 -36 -41 -22 -257 -77 -334 -86 -64 -8 -82 -25 -71 -69 5
-20 1 -26 -19 -34 -14 -6 -31 -19 -36 -30 -19 -34 -13 -141 10 -201 42 -108
73 -179 90 -210 5 -8 16 -31 24 -49 9 -19 27 -49 40 -67 14 -18 25 -35 25 -38
0 -14 89 -133 149 -198 84 -92 106 -124 126 -179 21 -57 56 -186 61 -224 18
-127 39 -251 44 -258 4 -4 263 -3 576 4 639 14 984 5 1088 -28 56 -18 56 -18
56 -170 0 -83 -4 -154 -8 -157 -5 -3 -288 -10 -630 -16 -341 -6 -666 -15 -721
-20 -54 -5 -180 -12 -278 -15 -98 -4 -227 -13 -288 -21 -60 -8 -132 -14 -160
-14 -62 0 -144 -25 -167 -51 -39 -44 -69 -269 -107 -784 -6 -82 -16 -208 -22
-280 -23 -274 -37 -934 -23 -1039 10 -71 57 -86 84 -28 15 31 36 125 51 227 5
39 17 115 25 170 19 128 51 271 69 310 7 17 16 37 19 45 32 81 91 126 192 145
254 49 557 58 638 20 59 -28 66 -46 76 -206 5 -79 15 -198 21 -264 11 -125 6
-384 -10 -445 -5 -19 -12 -52 -16 -73 -6 -36 -11 -41 -71 -68 -59 -27 -65 -32
-62 -57 6 -55 81 -55 144 0 37 33 147 59 167 39 17 -17 -10 -148 -40 -190 -33
-46 -120 -96 -208 -119 -80 -21 -493 -24 -518 -4 -12 10 -16 40 -19 138 -3
117 -5 127 -26 144 -23 19 -72 11 -72 -11 0 -5 -15 -15 -32 -23 -111 -50 -190
-105 -218 -151 -22 -35 -22 -35 -1 -64 24 -33 85 -61 139 -62 63 -2 167 -32
170 -50 5 -26 -26 -49 -66 -49 -52 0 -117 -35 -144 -78 -21 -34 -23 -48 -22
-162 0 -125 0 -125 39 -190 27 -46 56 -79 98 -110 115 -87 157 -136 129 -154
-4 -2 -53 0 -107 5 -55 5 -199 14 -320 19 -121 6 -276 16 -345 23 -125 12
-125 12 -128 52 -2 39 -1 41 58 75 168 96 242 298 191 522 -6 29 -16 109 -21
178 -11 143 -24 275 -45 440 -8 63 -19 158 -24 210 -6 52 -15 145 -21 205 -6
61 -18 157 -26 215 -8 58 -14 128 -14 155 0 28 -7 88 -15 135 -8 47 -19 139
-24 205 -6 66 -15 163 -21 215 -49 435 -51 486 -36 808 10 213 12 218 73 169
62 -50 165 -86 305 -108 207 -32 375 72 489 301 125 253 99 458 -84 645 -43
44 -80 91 -83 105 -11 46 -37 115 -51 131 -7 8 -13 21 -13 28 0 7 -13 32 -29
56 -16 24 -32 54 -36 67 -7 24 -32 82 -47 108 -4 8 -11 22 -14 30 -3 8 -30 63
-59 122 -142 285 -247 377 -485 423 -41 8 -97 20 -125 26 -60 12 -198 3 -237
-17 -36 -19 -61 -18 -138 5 -116 35 -174 49 -224 56 -27 4 -56 10 -65 14 -127
60 -141 73 -194 171 -40 74 -54 163 -38 245 18 94 49 186 69 208 85 93 135
434 83 570 -6 16 -11 67 -11 115 0 69 -5 102 -26 159 -26 72 -26 72 11 109 37
37 37 37 103 31 89 -9 92 -16 28 -71 -59 -50 -75 -79 -56 -101 29 -35 140 16
181 82 13 21 41 54 61 74 42 40 46 54 22 87 -46 66 -285 118 -654 142 -211 14
-370 29 -383 37 -5 3 -61 12 -124 18 -118 13 -138 19 -113 35 28 18 385 7 695
-21 150 -13 291 5 332 43 24 22 25 27 20 103 -3 44 -13 94 -21 110 -9 17 -16
38 -16 47 0 9 -6 29 -14 45 -18 38 -43 93 -56 123 -38 93 -131 230 -193 286
-49 43 -54 46 -95 40 -42 -6 -44 -5 -57 28 -25 59 -79 86 -215 106 -56 9 -224
10 -272 3z m293 -62 c103 -22 127 -36 139 -81 12 -46 30 -247 30 -337 0 -87 5
-103 35 -103 31 0 35 23 23 117 -5 43 -7 115 -3 161 14 170 67 147 223 -94 6
-10 16 -29 22 -42 5 -12 23 -50 40 -83 16 -34 30 -66 30 -73 0 -6 7 -24 15
-40 8 -16 18 -46 21 -68 4 -21 11 -41 15 -44 5 -3 9 -25 9 -50 0 -44 -1 -46
-47 -66 -45 -20 -58 -21 -239 -14 -105 4 -215 11 -245 17 -84 15 -486 23 -536
10 -24 -6 -62 -16 -85 -22 -72 -18 -96 -62 -40 -75 65 -14 81 -23 82 -45 0 -4
-55 -10 -122 -14 -68 -4 -154 -13 -193 -21 -38 -8 -92 -14 -119 -14 -45 0 -48
1 -42 23 21 75 36 168 37 230 0 97 23 212 56 287 78 176 130 233 269 294 49
21 102 45 118 53 40 18 66 16 68 -4 1 -10 2 -98 2 -197 1 -155 3 -180 18 -189
40 -26 48 4 48 185 0 200 19 264 93 305 33 18 182 15 278 -6z m3453 -336 c88
-37 121 -90 128 -208 6 -93 18 -120 52 -115 19 3 21 10 22 93 1 119 0 115 33
115 69 0 243 -242 277 -385 4 -16 10 -34 14 -40 30 -38 22 -135 -10 -135 -20
0 -123 27 -190 51 -69 24 -213 67 -315 94 -157 43 -331 56 -381 30 -16 -8 -36
-15 -46 -15 -9 0 -45 -30 -81 -66 -64 -64 -122 -104 -152 -104 -22 0 -142 -59
-199 -98 -26 -19 -52 -30 -56 -25 -8 8 16 78 46 135 8 14 14 32 14 38 0 7 9
31 19 54 11 23 33 70 49 106 31 67 77 161 100 206 24 45 152 167 202 191 14 7
32 17 40 22 39 23 94 41 124 41 43 0 46 -10 46 -161 0 -104 2 -118 20 -134 32
-29 41 -8 50 112 10 128 18 152 62 187 38 30 79 33 132 11z m-7434 -202 c79
-18 141 -46 166 -74 21 -23 22 -146 4 -264 -16 -99 -13 -250 6 -265 33 -29 43
5 50 175 8 209 31 295 79 295 37 0 173 -128 235 -220 8 -12 23 -33 33 -45 9
-13 17 -28 17 -33 0 -5 6 -15 14 -21 8 -7 18 -27 22 -44 3 -17 12 -41 19 -52
29 -46 42 -343 16 -359 -11 -7 -1610 -10 -1617 -4 -3 4 1 28 10 55 13 44 26
85 71 243 9 30 23 68 31 83 7 16 14 36 14 46 0 9 6 25 14 36 7 11 17 31 21 44
27 87 136 194 260 255 17 8 44 24 60 36 65 44 84 16 66 -99 -6 -38 -11 -157
-11 -264 0 -180 1 -197 20 -218 20 -24 20 -24 35 -5 12 17 15 65 15 285 0 322
17 405 90 434 23 10 188 -3 260 -20z m10363 -237 c66 -30 69 -38 57 -128 -14
-99 -14 -336 0 -353 9 -11 17 -11 34 -3 41 18 100 285 77 349 -13 39 -14 79
-1 79 24 0 190 -216 190 -248 0 -5 6 -14 13 -20 12 -10 43 -98 71 -202 21 -81
30 -216 13 -223 -7 -2 -172 -5 -367 -6 -195 -1 -411 -6 -480 -12 -69 -5 -217
-11 -330 -12 l-205 -2 0 141 c1 114 5 150 19 185 32 76 61 133 74 147 6 7 12
17 12 21 0 35 177 171 223 171 34 0 34 0 40 -142 7 -144 19 -188 52 -188 48 0
64 205 24 309 -26 69 -19 94 33 127 56 36 111 44 265 38 111 -4 140 -8 186
-28z m-6033 -231 c47 -8 103 -15 125 -15 40 0 251 -40 270 -51 6 -4 22 -9 38
-13 20 -5 27 -12 27 -31 0 -30 2 -30 -79 -1 -54 20 -94 25 -221 31 -160 6
-198 15 -267 61 -56 37 -27 43 107 19z m3043 -15 c48 -5 102 -13 120 -19 17
-5 75 -19 127 -31 109 -25 298 -87 320 -105 8 -7 27 -15 43 -19 15 -3 27 -11
27 -16 0 -6 7 -10 15 -10 8 0 33 -18 56 -40 48 -45 50 -83 8 -140 -29 -38 -38
-35 -68 23 -31 61 -66 65 -107 12 -29 -39 -44 -38 -44 3 0 29 -53 102 -73 102
-7 0 -25 7 -42 16 -40 21 -98 42 -165 61 -51 14 -88 23 -210 51 -118 28 -318
46 -352 33 -15 -6 -57 -13 -93 -17 -59 -6 -65 -5 -65 12 0 91 160 118 503 84z
m-3078 -110 c15 -6 23 -15 19 -21 -7 -11 -349 -2 -369 10 -28 17 306 28 350
11z m-1130 -30 c3 -6 -2 -13 -12 -16 -117 -40 -149 -75 -137 -152 5 -32 4 -43
-5 -38 -6 4 -11 11 -11 15 0 8 -17 29 -94 117 -51 58 -42 67 77 75 155 9 176
9 182 -1z m570 -20 c77 -6 201 -15 275 -21 74 -7 171 -14 215 -16 44 -3 84 -9
89 -13 4 -5 7 -68 7 -141 -2 -119 8 -242 39 -499 13 -105 -7 -218 -59 -335 -5
-11 -21 -46 -35 -77 -59 -135 -190 -290 -275 -325 -16 -7 -32 -17 -36 -23 -3
-5 -14 -10 -23 -10 -9 0 -30 -8 -47 -17 -36 -20 -246 -25 -286 -7 -64 30 -76
36 -101 50 -76 41 -204 206 -247 319 -13 33 -27 69 -32 80 -4 11 -13 40 -19
65 -7 25 -23 65 -37 89 -23 39 -24 47 -13 80 14 43 9 212 -9 309 -8 44 -9 74
-2 99 8 29 6 47 -10 92 -11 31 -24 71 -29 90 -5 18 -13 38 -19 44 -38 38 19
108 102 124 18 3 38 10 44 15 38 30 290 44 508 28z m2955 -61 c0 -5 -7 -9 -15
-9 -15 0 -20 12 -9 23 8 8 24 -1 24 -14z m-2231 -88 c22 -61 31 -246 12 -266
-4 -6 -18 -43 -30 -83 -30 -101 -44 -91 -52 39 -23 375 3 492 70 310z m-3553
-179 c46 -2 64 -24 38 -44 -9 -7 -30 -26 -47 -41 -42 -39 -94 -58 -167 -60
-73 -2 -82 8 -46 50 14 16 28 41 31 56 11 42 34 47 191 39z m7026 -115 c-12
-93 -27 -141 -42 -132 -16 10 -12 126 6 181 27 84 25 81 37 56 7 -16 7 -47 -1
-105z m-1332 41 c12 -40 26 -78 30 -83 5 -6 8 -55 8 -108 -1 -98 -1 -98 -22
-78 -18 19 -27 42 -56 151 -11 40 -13 150 -4 174 11 30 22 16 44 -56z m-3525
-50 c21 -52 34 -283 17 -300 -14 -14 -16 -9 -32 97 -17 108 -24 245 -12 245 5
0 17 -19 27 -42z m7885 25 c10 -9 -19 -38 -36 -35 -25 5 -35 23 -22 39 10 12
43 9 58 -4z m-1585 -35 c3 -7 1 -35 -3 -63 -7 -50 -7 -50 -61 -53 -83 -5 -126
48 -85 106 18 26 140 34 149 10z m-9920 -39 c64 -13 452 -29 850 -34 237 -3
312 -8 317 -17 4 -7 24 -49 44 -93 19 -44 42 -92 50 -107 8 -14 14 -35 14 -46
0 -12 4 -23 9 -26 5 -3 21 -45 35 -93 15 -49 33 -104 40 -123 24 -65 38 -105
47 -140 6 -19 14 -44 18 -55 5 -11 18 -47 31 -80 26 -71 52 -124 92 -183 15
-24 28 -45 28 -48 0 -3 29 -38 65 -79 55 -63 85 -116 58 -103 -41 20 -80 35
-198 78 -83 30 -198 97 -243 142 -73 73 -113 164 -202 468 -12 41 -28 95 -35
120 -18 60 -42 162 -55 231 -12 63 -44 105 -60 79 -15 -23 -12 -61 10 -122 18
-52 46 -402 34 -433 -2 -5 -8 -61 -13 -123 -5 -62 -11 -115 -13 -118 -2 -2
-18 2 -36 8 -31 12 -33 11 -109 -63 -127 -122 -214 -182 -311 -214 -51 -16
-56 -16 -110 0 -107 34 -286 203 -363 344 -11 20 -31 55 -44 79 -59 106 -95
239 -96 357 0 61 -4 175 -8 255 -6 103 -5 147 3 152 12 8 69 3 151 -13z m-339
-231 c19 -228 18 -452 -2 -531 -45 -182 -106 -339 -147 -380 -26 -26 -32 -15
-13 22 9 16 16 45 16 63 0 18 6 53 14 78 31 99 48 229 52 410 4 157 25 416 41
499 11 57 26 -7 39 -161z m11387 143 c5 -5 4 -17 -3 -31 -19 -35 18 -172 83
-305 76 -156 81 -188 42 -300 -103 -299 -280 -480 -470 -480 -88 1 -127 17
-212 90 -88 75 -243 302 -243 356 0 10 -4 20 -9 23 -5 3 -12 21 -15 41 -5 24
-15 38 -34 47 -43 21 -39 53 24 189 31 68 61 128 65 134 5 5 9 16 9 25 0 8 7
29 16 45 10 20 14 49 12 90 -3 60 -3 60 52 67 149 21 664 28 683 9z m288 -4
c18 -14 46 -90 60 -162 5 -27 17 -79 26 -115 11 -46 16 -117 16 -245 1 -211
-17 -289 -82 -351 -42 -42 -56 -39 -55 12 7 188 5 233 -15 290 -15 42 -21 83
-21 149 0 50 -6 111 -14 136 -7 24 -21 71 -30 104 -10 33 -30 87 -46 119 -16
33 -27 63 -24 68 8 13 167 9 185 -5z m-1101 -34 c0 -4 -11 -18 -24 -32 -44
-48 -88 -193 -102 -336 -5 -56 -15 -86 -50 -152 -69 -130 -86 -188 -82 -288 4
-103 -5 -107 -58 -22 -123 193 -131 284 -44 507 48 123 62 168 72 225 11 65
28 91 62 98 37 7 226 7 226 0z m890 -35 c1 -7 9 -31 20 -53 11 -22 20 -49 20
-60 0 -11 7 -31 15 -45 16 -28 20 -80 6 -80 -22 0 -98 207 -87 235 7 18 26 20
26 3z m-880 -87 c0 -28 -15 -49 -27 -38 -8 8 7 67 18 67 5 0 9 -13 9 -29z
m-43 -93 c-3 -7 -5 -2 -5 12 0 14 2 19 5 13 2 -7 2 -19 0 -25z m-2900 -230
c50 -110 206 -230 357 -277 113 -35 278 -18 337 35 8 8 19 14 23 14 4 0 34 27
67 60 72 73 89 76 89 18 1 -24 8 -61 16 -83 50 -132 51 -230 5 -284 -9 -11
-23 -29 -31 -41 -15 -21 -176 -147 -217 -168 -23 -13 -59 -45 -81 -73 -15 -20
1 -64 27 -73 54 -20 116 -63 119 -84 6 -40 -25 -37 -83 9 -74 59 -125 89 -152
89 -12 0 -33 11 -46 24 -14 14 -43 30 -65 36 -23 6 -44 15 -47 20 -3 6 -13 10
-22 10 -16 0 -44 12 -179 76 -39 19 -74 34 -78 34 -16 0 -122 75 -148 104 -30
34 -35 71 -14 95 39 43 85 239 86 363 0 114 13 148 37 96z m-2427 -104 c-10
-41 -10 -64 -1 -106 7 -29 15 -69 20 -88 4 -19 19 -53 33 -75 31 -49 26 -67
-33 -115 -24 -19 -51 -43 -61 -52 -9 -9 -48 -43 -86 -75 -121 -102 -216 -185
-262 -227 -157 -143 -194 -161 -287 -136 -136 36 -349 165 -465 281 -70 69
-71 79 -12 116 100 61 164 144 164 213 0 54 11 56 61 12 250 -216 598 -157
822 141 30 39 57 82 61 95 11 34 50 91 55 79 2 -5 -2 -34 -9 -63z m-3840 19
c0 -12 6 -37 14 -55 8 -18 24 -64 36 -103 53 -167 133 -261 285 -335 75 -36
106 -49 212 -87 71 -25 41 -37 -78 -30 -184 11 -341 81 -481 216 -48 45 -48
45 -48 123 0 42 7 103 15 135 8 31 15 83 15 113 0 31 3 60 7 63 9 10 23 -14
23 -40z m8646 -35 c19 -37 39 -136 54 -276 15 -134 52 -191 166 -262 72 -43
79 -61 78 -180 0 -89 -4 -112 -23 -147 -12 -23 -26 -68 -31 -100 -11 -74 -16
-88 -58 -146 -42 -58 -66 -73 -96 -59 -11 6 -48 12 -82 14 -48 3 -70 11 -108
36 -26 18 -50 32 -53 32 -14 0 -54 54 -49 66 5 12 12 12 43 -3 56 -25 166 -29
215 -7 34 15 39 21 36 48 -3 31 -3 31 -140 36 -154 6 -164 10 -159 71 2 24 54
42 98 35 133 -21 183 -15 183 23 0 38 -43 49 -193 51 -30 0 -73 38 -88 79 -20
50 90 111 163 90 44 -12 125 -12 149 1 55 30 -6 77 -88 67 -109 -12 -128 31
-127 288 0 165 2 184 23 228 28 59 60 65 87 15z m512 -105 c11 -38 26 -90 32
-118 7 -27 19 -77 27 -110 30 -122 29 -130 -13 -185 -63 -82 -66 -72 -83 240
-14 253 -3 302 37 173z m1066 30 c9 -58 -22 -222 -47 -251 -39 -45 -22 -108
57 -206 26 -31 54 -70 64 -85 9 -16 32 -53 50 -82 18 -30 36 -61 41 -69 4 -8
13 -24 19 -35 69 -123 70 -142 12 -164 -17 -6 -43 -16 -59 -22 -107 -40 -86
-113 37 -130 30 -4 57 -10 60 -14 12 -12 5 -86 -13 -128 -10 -23 -23 -55 -30
-72 -7 -16 -23 -55 -35 -85 -13 -30 -35 -82 -50 -115 -15 -33 -38 -82 -50
-110 -31 -70 -69 -152 -129 -277 -28 -59 -51 -110 -51 -113 0 -4 -18 -44 -39
-88 -21 -45 -62 -131 -91 -192 -29 -60 -90 -187 -136 -281 -46 -94 -84 -175
-84 -181 0 -6 -7 -16 -15 -23 -8 -7 -15 -20 -15 -30 0 -10 -6 -23 -14 -29 -8
-7 -18 -26 -21 -42 -4 -16 -11 -29 -16 -29 -5 0 -14 -12 -20 -26 -17 -47 -21
-18 -4 37 9 30 23 79 32 109 9 30 22 71 29 90 7 19 16 53 19 75 4 21 13 52 21
67 8 15 14 39 14 53 0 14 6 38 14 53 7 15 17 46 21 69 4 24 11 45 16 49 5 3 9
15 9 27 0 12 9 51 21 87 32 98 41 130 56 195 32 134 41 171 48 187 3 9 13 45
21 80 8 35 21 90 29 123 8 33 20 85 26 115 6 30 15 71 20 90 14 49 38 207 50
325 5 55 14 125 20 155 5 30 14 125 19 210 6 85 15 165 20 178 17 40 -1 92
-32 92 -8 0 -58 -104 -58 -122 0 -12 -111 -238 -152 -310 -253 -439 -499 -454
-703 -43 -40 80 -50 111 -60 193 -15 116 -16 112 46 157 28 20 53 43 56 53 4
9 15 28 26 42 16 21 18 38 15 100 -3 77 6 101 26 65 24 -44 153 -156 216 -187
129 -64 265 -40 385 68 22 20 47 41 56 47 46 34 141 185 184 292 42 106 59
121 69 58z m-1161 -59 c8 -63 12 -463 6 -559 -1 -22 1 -97 6 -166 8 -129 3
-178 -15 -149 -6 8 -10 31 -10 50 0 19 -9 52 -20 73 -16 29 -20 56 -20 130 0
149 -24 202 -122 268 -101 69 -126 116 -142 264 -6 54 8 96 19 60 11 -32 13
-37 48 -97 69 -121 167 -210 207 -188 21 11 28 64 11 74 -15 10 -44 144 -38
179 26 156 56 182 70 61z m-1533 -158 c41 -13 93 -29 115 -35 203 -53 299 -84
298 -96 -1 -5 -27 -14 -58 -20 -126 -22 -194 -139 -226 -385 -27 -212 1 -776
47 -936 8 -28 14 -60 14 -71 0 -37 65 -242 97 -306 48 -94 138 -159 228 -162
50 -2 50 -2 47 -89 -1 -48 -7 -106 -13 -129 -17 -64 -24 -698 -9 -772 7 -33
18 -94 25 -135 19 -111 36 -189 51 -242 8 -26 14 -59 14 -75 0 -15 6 -39 13
-54 8 -14 17 -51 21 -83 3 -32 13 -68 21 -79 8 -12 15 -37 15 -55 0 -19 6 -48
13 -65 13 -29 37 -118 57 -207 4 -19 13 -48 18 -65 6 -16 15 -50 22 -75 26
-105 41 -163 80 -310 22 -84 40 -162 40 -171 0 -20 -57 -72 -73 -66 -11 3 -38
106 -55 217 -31 187 -30 186 -68 385 -7 39 -18 97 -24 130 -6 33 -18 86 -26
117 -8 32 -14 75 -14 95 0 21 -7 51 -15 67 -8 15 -15 51 -15 78 0 61 -33 100
-101 119 -66 19 -456 15 -543 -6 -37 -8 -85 -15 -107 -15 -89 0 -185 -61 -220
-139 -22 -50 -28 -259 -8 -321 6 -19 17 -62 24 -95 21 -93 36 -147 51 -183 8
-18 14 -55 14 -83 0 -45 -3 -50 -27 -59 -16 -6 -37 -15 -48 -20 -26 -11 -167
-46 -225 -54 -25 -4 -55 -9 -67 -12 -26 -7 -56 45 -67 116 -3 25 -13 74 -21
110 -49 218 -64 405 -71 889 -6 399 -10 451 -38 451 -38 0 -39 -19 -31 -368
17 -697 5 -1223 -28 -1244 -20 -12 -119 -20 -129 -10 -7 7 -7 21 1 43 19 54
14 604 -8 791 -20 180 -32 202 -126 231 -122 37 -480 22 -660 -28 -27 -8 -61
-16 -75 -19 -114 -23 -214 -260 -245 -581 -8 -86 -38 -225 -48 -225 -40 0 60
1636 113 1845 5 22 10 55 10 73 0 47 27 68 106 82 88 16 372 36 679 49 132 6
359 15 505 22 196 8 893 20 1068 19 24 0 12 32 -17 43 -48 18 -60 57 -54 183
7 129 -4 175 -45 194 -124 58 -787 75 -1470 39 -117 -7 -215 -9 -219 -6 -3 4
-9 42 -14 84 -18 178 -58 330 -110 423 -5 8 -13 24 -18 36 -5 12 -40 54 -78
95 -117 127 -130 148 -135 209 -9 104 -81 423 -122 541 -20 56 -4 73 81 83 98
11 296 81 365 128 14 10 31 18 36 18 11 0 12 -1 37 -95 9 -33 22 -73 30 -90
40 -92 101 -214 119 -240 12 -16 26 -37 31 -46 23 -38 54 -79 125 -166 173
-211 234 -338 208 -437 -8 -32 -7 -42 7 -55 20 -19 22 -17 128 144 167 252
363 502 461 585 39 32 143 173 163 219 47 110 63 173 64 253 2 115 -4 110 109
74z m-3526 -95 c12 -18 93 -49 186 -70 299 -70 281 -56 230 -176 -44 -105
-115 -251 -150 -309 -25 -41 -68 -121 -120 -221 -17 -33 -49 -94 -71 -135 -84
-153 -219 -433 -219 -451 0 -6 -6 -23 -14 -37 -21 -40 -52 -139 -65 -208 -34
-183 18 -233 299 -292 179 -38 265 -52 310 -52 25 -1 65 -5 90 -10 25 -6 71
-15 103 -21 211 -41 -271 -30 -718 16 -77 8 -174 17 -215 20 -67 5 -175 18
-268 31 -27 4 -36 12 -49 42 -8 20 -24 56 -35 80 -28 60 -3 174 84 372 11 25
23 54 28 65 4 11 30 67 58 125 27 58 53 116 57 130 4 13 14 30 21 38 8 7 14
22 14 31 0 10 7 24 15 31 8 7 15 18 15 24 0 6 7 25 16 41 9 17 26 57 39 90 13
33 30 74 38 90 9 17 23 50 32 75 9 25 23 58 31 73 8 16 14 34 14 40 0 7 7 25
15 40 8 15 19 42 24 60 13 42 39 117 50 142 5 11 19 49 30 85 12 36 26 79 32
95 6 17 19 58 30 93 19 60 45 82 63 53z m-3960 -170 c47 -70 97 -150 112 -177
14 -27 38 -71 54 -99 43 -75 40 -85 -46 -173 -168 -170 -176 -234 -32 -266 94
-21 96 -23 107 -81 13 -70 -7 -177 -55 -293 -8 -18 -14 -39 -14 -46 0 -12 -36
-115 -85 -246 -7 -19 -23 -62 -36 -95 -12 -33 -28 -73 -34 -90 -7 -16 -20 -48
-28 -70 -9 -22 -32 -83 -52 -135 -33 -86 -46 -116 -90 -215 -8 -16 -24 -57
-36 -90 -13 -33 -26 -64 -30 -70 -3 -5 -26 -55 -50 -110 -24 -55 -76 -163
-116 -240 -150 -292 -223 -438 -223 -447 0 -6 -6 -24 -14 -41 -31 -71 -49
-146 -54 -224 -5 -84 6 -130 68 -293 11 -30 34 -93 50 -140 16 -47 38 -110 50
-140 12 -30 26 -68 31 -85 5 -16 15 -43 23 -60 8 -16 24 -52 36 -80 11 -27 25
-58 31 -67 5 -10 9 -23 9 -30 0 -16 148 -311 160 -318 5 -3 14 -17 20 -30 30
-69 116 -179 203 -262 122 -116 247 -158 379 -128 43 10 81 19 193 47 33 8 89
21 124 29 35 8 72 19 82 24 10 6 26 10 36 10 10 1 36 9 58 20 22 11 44 19 49
20 45 1 150 75 193 135 12 16 24 28 27 25 7 -7 33 -140 41 -210 4 -30 11 -72
16 -92 5 -20 16 -69 23 -110 8 -40 21 -102 30 -138 9 -36 22 -92 29 -125 7
-33 19 -70 25 -82 7 -12 12 -33 12 -46 0 -14 7 -30 15 -37 8 -7 15 -19 15 -27
0 -8 12 -39 26 -69 14 -31 24 -58 21 -61 -6 -5 -113 32 -132 46 -5 4 -34 18
-64 30 -74 31 -150 91 -220 172 -74 85 -88 126 -96 272 -6 101 -10 122 -29
144 -21 24 -22 25 -44 6 -43 -34 -42 -147 3 -263 36 -95 40 -137 18 -213 -6
-23 -101 -67 -143 -67 -17 0 -40 -4 -50 -10 -84 -45 -1119 -89 -1660 -70 -162
6 -300 12 -307 15 -19 7 -54 84 -63 139 -5 28 -13 69 -19 91 -6 22 -11 120
-11 217 0 221 1 222 140 160 56 -24 245 -151 308 -206 245 -213 271 -217 307
-46 8 41 18 157 22 258 6 184 6 184 41 210 100 77 142 128 164 200 18 62 -36
105 -96 77 -71 -34 -103 -87 -142 -236 -7 -27 -35 -45 -103 -68 -72 -23 -301
-30 -391 -11 -25 6 -72 15 -105 21 -33 6 -64 15 -69 20 -6 5 11 50 42 111 28
57 61 130 74 163 12 33 28 69 35 80 7 11 13 28 13 38 0 10 6 31 14 45 40 73
168 514 187 641 4 29 12 65 18 80 5 14 17 103 27 196 9 94 20 174 24 178 4 5
19 1 33 -8 47 -31 112 13 153 104 47 102 54 119 54 129 0 5 7 23 15 38 8 16
15 36 15 44 0 8 6 27 14 42 8 15 17 42 21 60 4 18 11 38 16 43 4 6 12 29 18
50 11 47 68 216 88 262 7 17 13 41 13 53 0 12 6 34 14 48 7 15 24 61 36 102
13 41 27 84 32 95 9 21 31 95 52 180 7 28 18 60 24 72 7 12 12 35 12 50 0 16
4 33 9 39 8 8 51 166 86 314 7 30 20 82 28 115 32 129 47 204 47 231 0 16 7
54 15 84 12 44 15 132 15 438 0 330 11 595 25 640 11 31 40 3 119 -117z
m-1124 72 c0 -10 -9 -29 -20 -43 -11 -14 -20 -30 -20 -36 0 -6 -7 -17 -15 -24
-8 -7 -15 -19 -15 -28 0 -8 -6 -23 -13 -31 -35 -42 -117 -261 -117 -315 0 -32
29 -84 57 -104 71 -49 129 -83 151 -89 15 -3 36 -12 47 -19 11 -8 30 -14 43
-14 13 0 35 -6 50 -14 51 -25 223 -51 347 -51 136 0 216 19 275 65 35 28 101
140 114 195 7 29 32 65 45 65 14 0 10 -414 -5 -490 -8 -41 -14 -88 -14 -104 0
-15 -7 -58 -15 -95 -8 -36 -19 -88 -24 -116 -10 -54 -24 -111 -46 -190 -8 -27
-19 -72 -25 -100 -6 -27 -15 -70 -21 -95 -5 -25 -14 -53 -20 -63 -5 -10 -14
-37 -19 -60 -5 -23 -18 -73 -30 -112 -12 -38 -27 -92 -34 -120 -6 -27 -17 -60
-24 -72 -6 -12 -12 -30 -12 -40 0 -10 -6 -30 -14 -45 -8 -15 -17 -42 -21 -60
-3 -18 -10 -42 -15 -53 -4 -11 -30 -87 -56 -170 -26 -82 -51 -157 -55 -165 -5
-8 -26 -69 -48 -135 -92 -274 -124 -353 -161 -393 -27 -28 -33 -28 -70 6 -33
30 -56 103 -66 211 -3 36 -10 80 -15 96 -5 17 -14 62 -20 100 -5 39 -14 84
-18 100 -5 17 -19 84 -31 150 -12 66 -28 149 -35 185 -25 119 -56 264 -70 335
-8 39 -21 102 -29 140 -8 39 -18 94 -21 124 -3 30 -10 62 -15 71 -5 9 -13 45
-18 81 -6 35 -20 114 -32 174 -22 113 -40 219 -59 360 -6 44 -16 111 -21 149
-27 183 -20 358 22 521 5 22 16 66 23 99 8 32 18 63 24 69 6 6 11 20 11 32 0
30 35 82 62 90 13 4 34 16 47 26 30 24 61 25 61 2z m9278 -13 c40 -18 56 -40
29 -40 -37 0 -200 -130 -256 -205 -128 -171 -139 -314 -49 -650 30 -111 118
-258 194 -323 46 -39 46 -39 25 -78 -12 -21 -21 -43 -21 -49 0 -5 -20 -36 -45
-67 -78 -100 -109 -82 -165 97 -13 39 -29 89 -36 113 -8 23 -14 53 -14 66 0
13 -6 41 -14 62 -7 22 -16 68 -20 104 -4 36 -11 79 -16 95 -16 53 -29 334 -20
445 12 145 69 262 194 397 49 53 49 53 110 53 38 0 77 -8 104 -20z m-274 -12
c-4 -13 -12 -27 -19 -33 -48 -41 -139 -199 -150 -260 -3 -22 -13 -59 -21 -83
-16 -47 -18 -188 -5 -292 20 -150 33 -238 43 -290 5 -30 14 -77 18 -105 7 -45
17 -87 64 -251 20 -72 64 -158 95 -189 56 -53 148 10 222 151 31 59 40 69 60
66 13 -2 72 -3 130 -4 107 -2 107 -2 122 -77 23 -108 35 -188 52 -331 8 -69
19 -154 26 -190 19 -111 17 -667 -4 -850 -9 -85 -20 -185 -23 -222 -8 -91 -21
-86 -29 10 -6 72 -12 117 -51 377 -25 167 -55 338 -64 370 -5 17 -12 48 -15
70 -40 235 -116 370 -155 274 -17 -39 3 -409 30 -574 5 -33 14 -103 20 -155
25 -221 39 -339 49 -395 14 -83 29 -190 46 -323 8 -62 17 -117 20 -122 3 -5
10 -47 15 -92 16 -134 40 -202 74 -206 21 -3 29 1 33 17 4 17 23 31 23 17 0
-2 9 -64 20 -138 11 -73 20 -155 20 -181 0 -108 63 -272 182 -475 64 -110 64
-108 -33 -116 -119 -11 -179 -31 -179 -60 0 -13 6 -28 13 -33 12 -10 197 -34
288 -38 64 -3 55 5 175 -180 21 -33 47 -69 57 -80 29 -31 38 -62 26 -93 -6
-15 -15 -52 -21 -82 -5 -30 -13 -59 -18 -65 -4 -5 -12 -30 -18 -55 -11 -49
-27 -98 -47 -145 -8 -16 -16 -42 -19 -56 -12 -57 -121 -62 -1296 -62 -893 -1
-1017 1 -1114 16 -60 9 -128 17 -151 17 -125 0 -479 88 -533 132 -9 8 -12 69
-10 262 3 251 3 251 48 249 60 -2 209 -36 380 -87 179 -53 310 -82 437 -96
140 -17 146 -24 108 -128 -36 -97 -43 -163 -20 -182 12 -10 21 -11 33 -3 17
10 62 114 88 203 54 181 80 198 98 65 4 -27 14 -72 22 -99 8 -27 14 -66 15
-85 0 -20 8 -61 17 -91 16 -50 21 -57 67 -79 50 -25 52 -25 420 -29 458 -5
878 17 909 48 14 14 10 151 -8 260 -18 108 -34 209 -52 335 -7 55 -18 118 -24
140 -5 22 -10 57 -10 78 0 21 -4 47 -10 57 -8 15 -4 23 21 42 96 72 102 82 95
160 -3 40 -13 93 -21 120 -8 26 -22 70 -30 97 -8 27 -15 56 -15 65 0 9 -8 42
-19 73 -10 32 -26 87 -35 123 -9 36 -23 85 -31 110 -7 25 -17 63 -21 85 -3 22
-10 45 -14 50 -5 6 -11 28 -15 50 -4 22 -14 65 -22 95 -53 198 -74 287 -83
347 -5 28 -11 57 -15 63 -4 6 -13 46 -20 88 -8 42 -18 100 -24 127 -47 247
-47 520 0 900 5 44 14 121 20 170 5 50 14 99 19 110 17 35 48 170 55 242 14
141 -51 99 -75 -49 -18 -113 -38 -189 -55 -208 -50 -55 -159 -18 -219 73 -39
60 -97 213 -96 256 0 7 -7 34 -14 60 -16 51 -31 132 -46 261 -6 47 -15 119
-20 160 -31 230 -11 649 35 736 8 16 15 36 15 44 1 34 60 111 90 117 17 3 33
10 36 14 3 5 14 9 25 9 17 0 19 -4 13 -22z m-3139 -2 c18 -13 18 -16 5 -33
-24 -29 -45 -74 -63 -133 -38 -129 -46 -157 -52 -195 -13 -82 -15 -89 -28 -76
-18 18 -17 412 2 434 17 21 109 23 136 3z m-4601 -50 c39 -19 96 -39 126 -45
127 -24 176 -31 216 -31 23 0 54 -4 68 -10 25 -9 25 -9 10 -57 -25 -74 -34
-202 -23 -300 17 -154 21 -137 -38 -143 -97 -10 -143 -78 -88 -130 25 -24 25
-24 -10 -60 -44 -46 -54 -89 -29 -136 15 -28 17 -38 6 -54 -20 -32 -14 -63 19
-108 30 -41 33 -75 7 -71 -29 4 -38 -2 -38 -26 0 -14 4 -33 9 -43 5 -9 17 -37
27 -62 11 -25 44 -77 76 -116 127 -161 121 -123 125 -779 3 -645 13 -756 84
-978 11 -31 19 -64 19 -72 0 -8 6 -29 14 -47 8 -18 26 -69 40 -114 14 -44 55
-161 92 -260 37 -98 81 -219 98 -269 17 -49 34 -94 38 -100 10 -16 64 -212 80
-290 32 -159 -69 -304 -247 -352 -22 -6 -53 -16 -70 -21 -49 -17 -125 -37
-330 -88 -38 -10 -109 -19 -156 -22 -83 -3 -89 -2 -157 33 -61 32 -212 167
-212 190 0 3 -20 31 -45 62 -24 32 -56 81 -71 108 -74 138 -118 226 -140 280
-14 33 -32 76 -40 95 -8 19 -21 48 -29 63 -8 16 -15 33 -15 39 0 5 -6 24 -14
41 -35 81 -129 341 -158 437 -5 19 -14 40 -18 45 -22 28 -40 167 -30 228 18
101 75 258 130 357 5 8 28 53 52 100 23 47 55 104 70 126 16 23 28 45 28 49 0
3 20 48 44 98 74 155 124 265 147 320 12 28 27 66 34 82 7 17 20 48 29 70 23
60 86 216 101 250 27 62 95 246 95 258 0 6 7 21 15 31 8 11 15 29 15 41 0 11
6 29 13 40 8 11 19 38 25 60 6 22 18 60 28 85 33 86 77 248 94 340 13 76 -14
146 -70 176 -25 13 -61 24 -81 24 -41 0 -64 20 -54 49 3 10 50 66 105 123 112
116 115 126 74 204 -95 179 -136 250 -154 264 -9 7 -19 50 -12 50 3 0 38 -15
76 -34z m2284 12 c5 -7 12 -26 15 -43 14 -76 63 -282 76 -320 5 -16 31 -95 56
-175 69 -217 194 -510 217 -510 5 0 8 -5 8 -11 0 -21 120 -193 157 -224 6 -5
22 -26 35 -45 13 -20 29 -42 36 -50 51 -60 65 -79 82 -110 10 -19 30 -50 43
-68 29 -39 56 -157 39 -174 -7 -7 -33 -7 -87 1 -42 6 -102 11 -133 11 -31 0
-109 7 -172 15 -155 20 -521 45 -645 45 -146 -1 -204 -17 -260 -74 -55 -57
-66 -53 -49 16 8 29 14 80 14 113 0 33 5 78 10 100 20 83 52 510 56 765 5 287
17 374 61 461 27 56 93 124 138 145 17 8 46 24 65 36 78 47 196 107 211 108 9
0 21 -6 27 -12z m2605 -25 c59 -29 151 -119 199 -193 43 -66 167 -312 217
-430 6 -14 15 -32 20 -40 14 -25 71 -141 71 -146 0 -9 -49 -3 -55 7 -8 12
-108 59 -127 59 -45 0 -48 -44 -6 -87 38 -39 31 -52 -16 -29 -19 9 -37 16 -41
16 -3 0 -54 30 -113 67 -275 171 -321 243 -287 449 10 67 16 150 15 227 -1 67
-2 126 -1 130 2 13 73 -4 124 -30z m-500 -255 c6 -298 4 -318 -38 -318 -14 0
-42 -7 -62 -15 -21 -8 -56 -19 -78 -24 -215 -52 -260 -154 -100 -226 22 -10
42 -20 45 -22 2 -2 -18 -25 -46 -51 -87 -79 -108 -151 -58 -191 15 -12 35 -21
45 -21 34 0 31 -21 -9 -58 -95 -88 -89 -143 18 -167 46 -10 46 -10 49 -71 1
-12 19 -40 41 -63 39 -40 42 -41 136 -52 54 -6 107 -8 120 -5 16 4 26 1 33
-12 14 -26 40 -162 34 -178 -6 -17 2 -17 -153 1 -193 22 -279 35 -350 50 -36
8 -87 17 -114 21 -69 10 -205 59 -233 85 -28 28 -34 153 -8 203 8 15 15 35 15
43 0 8 8 33 18 56 10 23 26 62 36 87 30 76 131 284 201 415 18 33 56 104 84
158 28 53 62 114 75 135 12 20 27 48 31 62 4 14 12 31 18 39 28 34 123 227
147 297 27 78 46 104 74 104 23 0 23 0 29 -282z m314 240 c20 -39 23 -159 4
-225 -21 -76 -16 -271 7 -323 52 -112 287 -283 512 -370 131 -51 134 -54 172
-127 55 -105 69 -198 47 -315 -27 -147 -69 -230 -144 -290 -41 -32 -148 -37
-200 -9 -22 11 -43 21 -48 21 -20 0 -105 68 -183 147 -96 96 -82 93 -224 54
-113 -31 -112 -31 -124 126 -4 39 -11 84 -16 98 -6 14 -10 51 -10 82 0 30 -6
109 -14 176 -27 231 -30 373 -9 401 18 22 38 93 62 221 38 195 104 365 142
365 5 0 16 -15 26 -32z m-6305 -29 c9 -6 2 -20 -28 -51 -22 -24 -58 -65 -79
-93 -22 -27 -42 -52 -45 -55 -18 -16 -90 -109 -90 -116 0 -11 -41 -54 -52 -54
-14 0 -8 32 18 105 14 39 29 81 33 95 9 28 30 63 80 132 35 48 35 48 93 46 31
-1 63 -5 70 -9z m98 -22 c0 -12 -6 -31 -14 -42 -7 -11 -17 -45 -21 -75 -4 -30
-12 -66 -17 -80 -29 -76 -28 -410 2 -610 18 -122 50 -311 62 -365 11 -55 28
-145 51 -275 9 -47 20 -98 26 -113 6 -16 11 -45 11 -67 0 -21 7 -60 15 -86 17
-58 55 -254 55 -285 0 -12 6 -42 14 -68 15 -46 25 -96 51 -241 8 -41 19 -91
24 -110 6 -19 11 -47 11 -61 0 -15 7 -49 16 -77 10 -29 13 -58 9 -69 -6 -15
-9 -12 -17 17 -5 19 -16 42 -24 51 -8 8 -14 22 -14 30 0 15 -65 184 -81 209
-5 8 -13 24 -18 35 -13 30 -81 168 -90 185 -5 8 -28 53 -51 100 -23 47 -54
105 -67 130 -14 25 -53 98 -87 163 -33 65 -84 162 -112 215 -101 192 -174 337
-174 346 0 5 -6 17 -14 25 -7 9 -18 37 -24 62 -18 74 -6 91 171 234 112 90
102 120 -87 277 -28 23 -28 24 -12 58 20 45 166 246 216 300 29 29 135 162
150 186 19 30 40 31 40 1z m11840 -25 c25 -5 90 -18 145 -28 98 -17 130 -29
120 -44 -3 -4 -14 -56 -25 -115 -21 -108 -17 -197 12 -232 15 -19 2 -30 -60
-49 -101 -30 -145 -101 -92 -149 25 -23 25 -26 -5 -59 -40 -43 -31 -82 28
-121 34 -22 34 -58 -1 -63 -58 -8 -53 -51 24 -242 96 -235 149 -323 220 -367
18 -11 17 -13 -12 -40 -33 -29 -74 -97 -74 -122 0 -7 -6 -34 -14 -60 -27 -88
-44 -156 -56 -226 -6 -38 -15 -92 -20 -120 -12 -72 -11 -343 1 -390 6 -22 17
-65 24 -95 31 -123 38 -146 50 -170 7 -14 16 -41 20 -60 4 -19 11 -39 15 -45
4 -5 13 -26 18 -45 19 -63 43 -125 53 -134 5 -6 9 -17 9 -25 0 -13 10 -39 55
-136 8 -16 24 -55 36 -85 12 -30 35 -83 50 -118 16 -34 29 -65 29 -70 0 -4 7
-20 16 -37 9 -16 27 -59 41 -94 13 -35 30 -73 38 -85 8 -11 15 -30 15 -41 0
-12 5 -26 11 -32 6 -6 14 -26 19 -44 5 -19 15 -52 24 -74 26 -69 21 -135 -14
-182 -27 -36 -150 -143 -165 -143 -2 0 -40 -19 -83 -43 -77 -43 -97 -51 -242
-100 -301 -101 -640 -115 -809 -33 -119 57 -232 233 -314 486 -41 129 -48 152
-57 192 -5 24 -19 81 -30 128 -13 49 -25 144 -30 225 -14 233 -40 552 -55 695
-77 697 -78 700 -125 685 -20 -6 -21 -11 -16 -73 3 -37 11 -161 16 -277 6
-115 15 -253 21 -305 5 -52 14 -140 19 -195 4 -55 13 -134 19 -175 6 -41 20
-138 32 -215 11 -77 25 -162 31 -190 16 -71 22 -420 9 -550 -15 -158 -31 -268
-40 -280 -5 -5 -11 -23 -15 -40 -24 -101 -105 -212 -191 -260 -74 -42 -82 -42
-171 -10 -38 14 -83 25 -101 25 -28 0 -37 7 -69 57 -93 145 -214 391 -214 435
0 18 -5 51 -10 73 -5 22 -14 99 -20 170 -6 72 -18 180 -27 240 -18 125 -20
391 -3 550 5 55 14 165 20 245 6 80 17 197 25 260 25 193 19 412 -21 755 -24
213 -31 189 56 197 105 9 252 69 397 164 89 59 90 60 92 245 1 90 4 165 6 168
12 12 17 -17 26 -156 6 -81 12 -161 14 -178 3 -16 9 -77 15 -135 12 -111 26
-155 50 -155 25 0 40 47 40 130 -1 86 -22 315 -39 405 -6 30 -20 120 -32 200
-11 80 -25 159 -31 175 -18 56 -23 208 -7 203 8 -2 20 -17 28 -33 24 -49 152
-170 206 -194 154 -69 308 15 472 257 62 91 133 221 133 242 0 7 12 24 26 37
27 25 27 25 20 -9 -4 -18 -11 -87 -16 -153 -6 -66 -15 -145 -20 -175 -5 -30
-14 -93 -19 -140 -15 -122 -47 -288 -76 -390 -7 -25 -16 -63 -19 -85 -4 -22
-13 -60 -21 -85 -7 -25 -18 -65 -25 -90 -6 -25 -18 -70 -26 -100 -9 -30 -22
-80 -29 -110 -31 -120 -38 -146 -51 -180 -7 -19 -16 -53 -20 -74 -4 -22 -13
-51 -20 -65 -8 -14 -14 -36 -14 -49 0 -12 -6 -38 -14 -56 -7 -18 -17 -52 -21
-74 -4 -23 -10 -44 -15 -47 -5 -3 -11 -24 -15 -48 -4 -23 -13 -53 -20 -67 -7
-14 -16 -44 -20 -67 -4 -24 -10 -45 -15 -48 -5 -3 -11 -24 -15 -48 -4 -23 -13
-62 -20 -87 -58 -190 -59 -222 -6 -205 16 5 81 102 104 155 4 8 11 22 15 30
33 58 242 483 256 520 3 8 10 22 15 30 5 8 25 51 46 95 21 44 42 87 46 95 5 8
13 24 18 35 5 11 30 64 55 118 25 53 46 99 46 102 0 3 25 58 56 123 83 176
126 269 167 367 14 33 32 74 41 90 9 17 16 35 16 42 0 6 6 24 14 40 95 195 90
293 -15 293 -37 0 -51 4 -56 16 -8 22 22 44 58 44 57 0 104 63 80 108 -5 9
-25 50 -45 90 -19 40 -47 93 -62 118 -31 52 -23 66 30 54 17 -4 51 -12 76 -18z
m-9572 -59 c41 -46 91 -152 116 -248 50 -191 65 -289 52 -340 -10 -39 -16 -26
-26 53 -17 128 -60 170 -190 181 -75 6 -75 6 -78 38 -2 18 1 41 7 51 13 24
-10 243 -29 284 -7 15 -10 33 -7 41 8 23 120 -21 155 -60z m-225 39 c67 -73
78 -359 17 -392 -32 -17 -88 -12 -94 8 -31 110 -19 303 22 375 19 32 33 34 55
9z m10199 -59 c21 -19 23 -85 7 -203 -10 -68 -13 -88 -17 -142 -5 -52 -95 17
-105 79 -7 45 6 188 21 223 6 14 13 33 16 43 7 22 53 23 78 0z m-5394 -71 c12
-31 24 -70 28 -87 3 -16 13 -52 22 -78 24 -76 0 -84 -33 -11 -42 92 -43 97
-54 139 -28 108 1 137 37 37z m5541 43 c46 -23 111 -108 157 -205 45 -94 54
-117 54 -135 0 -9 6 -28 14 -43 41 -81 41 -423 0 -504 -8 -15 -14 -36 -14 -46
0 -27 -54 -143 -79 -169 -38 -40 -121 -38 -205 5 -28 14 -29 15 -11 28 10 8
27 14 38 14 26 0 97 43 132 80 30 31 30 31 30 253 0 222 0 222 -30 282 -28 56
-35 63 -105 98 -60 31 -75 43 -74 60 1 12 5 84 9 160 7 137 7 137 32 137 13 0
37 -7 52 -15z m-12943 -67 c3 -11 7 -101 8 -199 1 -191 8 -219 44 -186 10 9
24 17 31 17 31 0 181 -132 181 -159 0 -5 -15 -22 -33 -37 -39 -34 -121 -102
-141 -118 -64 -51 -100 -173 -61 -206 8 -7 15 -20 15 -29 0 -19 129 -275 305
-606 29 -55 119 -233 200 -395 81 -162 153 -307 161 -322 8 -14 14 -34 14 -45
0 -10 7 -27 15 -37 8 -11 15 -29 15 -40 1 -12 9 -39 20 -61 11 -22 19 -45 20
-52 0 -7 8 -29 17 -50 9 -21 24 -56 33 -78 10 -22 25 -56 34 -77 18 -41 22
-236 6 -348 -20 -144 -39 -246 -49 -273 -6 -16 -11 -39 -11 -52 0 -12 -7 -45
-15 -71 -8 -27 -23 -83 -35 -124 -11 -41 -25 -88 -31 -105 -6 -16 -15 -48 -20
-70 -6 -21 -14 -44 -18 -50 -5 -5 -12 -26 -16 -45 -6 -32 -32 -99 -56 -142 -5
-10 -9 -23 -9 -30 -1 -7 -9 -31 -20 -53 -11 -22 -19 -44 -20 -50 0 -5 -26 -61
-57 -123 -62 -122 -78 -135 -129 -109 -16 8 -44 18 -62 22 -18 4 -45 13 -60
21 -15 8 -31 14 -36 14 -20 0 -152 69 -169 88 -25 28 -18 118 24 292 6 25 17
74 25 110 7 36 20 94 28 130 71 300 95 400 121 495 8 28 24 91 36 140 12 50
28 110 35 135 28 93 34 222 19 386 -8 85 -17 159 -20 164 -3 5 -12 42 -20 82
-17 87 -40 181 -53 223 -6 17 -20 64 -32 105 -12 41 -28 89 -35 105 -8 17 -23
63 -35 103 -21 69 -24 73 -49 70 -26 -3 -26 -3 -34 -188 -4 -102 -14 -226 -22
-276 -8 -50 -15 -109 -15 -130 0 -22 -5 -55 -10 -74 -12 -40 -40 -216 -75
-465 -8 -60 -20 -144 -26 -185 -13 -91 -35 -270 -49 -405 -6 -55 -18 -159 -26
-232 -9 -78 -14 -199 -13 -300 2 -191 2 -192 -99 -159 -32 11 -89 17 -168 18
-134 2 -188 -18 -213 -79 -22 -54 -48 -59 -71 -13 -26 51 -30 473 -5 636 8 54
15 131 15 169 0 39 6 122 14 185 9 63 20 162 26 220 25 246 39 376 49 443 19
128 33 240 47 357 16 140 30 246 49 365 13 84 19 128 46 345 6 47 17 110 25
140 8 30 14 71 14 91 0 20 5 61 11 90 6 30 17 86 24 124 15 79 38 168 52 205
6 14 20 59 33 100 13 41 34 107 47 145 13 39 29 86 34 105 6 19 16 49 24 65 7
17 20 48 28 70 35 95 114 272 129 292 13 16 36 6 44 -19z m10877 -356 c-3 -18
-9 -35 -14 -38 -5 -3 -9 -17 -9 -32 0 -37 -40 -147 -65 -178 -20 -24 -21 -25
-53 -9 -18 9 -40 14 -49 11 -51 -20 -303 73 -303 111 0 13 75 9 140 -8 93 -24
211 2 265 58 19 20 35 41 35 46 0 6 7 18 15 27 9 10 17 51 22 115 8 100 8 100
15 15 4 -47 4 -100 1 -118z m-79 50 c-27 -97 -104 -157 -178 -138 -36 9 -32
18 16 40 47 22 101 75 138 134 34 55 45 38 24 -36z m164 -341 c4 -365 4 -379
-15 -397 -50 -48 -83 -71 -153 -105 -202 -99 -288 -120 -324 -81 -20 23 -52
144 -61 232 -6 65 -6 65 42 90 26 14 78 46 116 72 38 25 85 49 104 53 49 9
152 111 186 185 45 99 83 253 70 287 -9 24 7 67 20 54 8 -8 12 -124 15 -390z
m-8171 316 c-4 -30 -2 -50 8 -65 9 -11 24 -64 35 -117 61 -297 -42 -475 -276
-475 -70 0 -118 29 -150 92 -19 37 -1 45 68 29 154 -35 221 25 99 90 -39 20
-59 24 -133 23 -88 -1 -88 -1 -88 26 0 37 17 50 70 50 103 1 179 31 180 72 0
38 -178 44 -214 8 -32 -32 -80 8 -50 41 42 47 91 69 153 69 91 0 113 17 72 54
-14 13 -34 16 -87 15 -158 -5 -149 49 12 69 48 6 99 20 129 36 37 19 66 25
114 25 64 1 64 1 58 -42z m81 7 c12 -8 22 -23 22 -32 0 -9 7 -35 16 -59 19
-50 11 -120 -9 -73 -5 14 -18 43 -28 66 -11 22 -19 45 -19 51 0 6 -7 16 -15
23 -37 31 -8 53 33 24z m7519 -6 c36 -25 41 -39 19 -57 -18 -15 -50 2 -65 36
-23 49 -7 56 46 21z m2553 -18 c22 -17 40 -40 40 -50 0 -9 7 -34 15 -53 19
-45 22 -355 4 -390 -43 -83 -218 -144 -295 -104 -38 20 -90 75 -80 84 4 5 47
8 94 9 83 1 87 2 90 24 5 29 -12 40 -61 40 -57 0 -136 37 -143 67 -9 34 -2 37
87 42 80 3 80 3 77 30 -3 25 -6 26 -78 32 -73 6 -170 39 -170 57 0 27 38 37
159 42 112 4 126 7 129 24 6 30 -11 37 -104 42 -130 7 -205 46 -160 83 24 20
129 42 194 40 39 -1 67 2 75 10 20 20 83 6 127 -29z m-6486 -26 c3 -8 10 -99
16 -202 6 -103 17 -223 25 -267 8 -44 17 -122 20 -173 3 -51 10 -104 15 -118
23 -59 14 -82 -33 -89 -91 -14 -213 27 -231 76 -16 46 11 80 97 124 88 46 112
67 104 89 -13 34 -88 11 -182 -55 -50 -35 -132 -49 -141 -25 -14 37 119 141
224 175 54 18 72 28 72 42 0 28 -14 31 -82 15 -126 -28 -168 -33 -191 -22 -76
38 68 186 182 186 50 0 91 23 91 50 0 17 -41 31 -71 25 -59 -13 -119 -7 -174
19 -62 28 -78 52 -50 72 25 19 142 62 190 70 22 4 51 12 65 19 27 14 46 10 54
-11z m1006 -276 c0 -24 -9 -23 -37 4 -34 32 -30 51 7 30 16 -9 30 -25 30 -34z
m2815 -81 c40 -22 113 -48 150 -53 81 -13 80 -12 55 -39 -12 -13 -35 -27 -51
-30 -16 -4 -29 -10 -29 -15 0 -5 -15 -11 -32 -15 -18 -4 -52 -13 -76 -21 -85
-28 -190 -5 -179 40 43 171 57 194 101 167 17 -10 45 -26 61 -34z m-2741 22
c25 -12 108 -110 138 -164 43 -79 45 -317 3 -382 -8 -12 -15 -27 -15 -32 0
-57 -170 -254 -252 -291 -143 -65 -456 20 -568 155 -7 9 -16 33 -19 53 -5 28
-11 37 -26 37 -19 0 -20 -6 -16 -165 3 -155 2 -167 -18 -192 -12 -14 -21 -40
-21 -58 0 -38 -16 -70 -34 -70 -15 0 -26 30 -26 76 0 17 -7 51 -15 74 -19 55
-19 79 2 102 18 20 12 38 -26 88 -14 19 -21 49 -26 117 -6 92 -6 92 22 99 15
3 47 12 71 20 96 31 115 30 151 -12 111 -126 288 -234 384 -234 41 0 128 27
152 48 32 26 105 122 105 137 0 7 6 26 14 42 71 144 68 344 -8 488 -31 58 -19
85 28 64z m-4598 -125 c28 -164 -6 -294 -95 -370 -50 -42 -163 -41 -249 2 -86
43 -175 145 -149 170 3 3 33 1 66 -4 120 -18 273 35 320 109 43 71 61 112 61
141 1 113 23 90 46 -48z m9652 28 c2 -7 -2 -10 -12 -6 -9 3 -16 11 -16 16 0
13 23 5 28 -10z m183 -240 c19 -10 41 -22 49 -27 8 -5 42 -19 74 -30 78 -27
79 -36 7 -84 -59 -41 -125 -54 -157 -33 -17 11 -94 162 -94 184 0 25 64 19
121 -10z m-9044 -144 c-4 -103 -14 -173 -44 -323 -8 -44 -19 -105 -22 -135
-17 -137 -92 -303 -123 -272 -21 21 53 391 117 582 8 25 15 55 15 66 0 12 6
37 14 55 7 19 17 55 20 82 13 88 28 53 23 -55z m788 -257 c33 -6 116 -15 185
-21 195 -15 347 -29 440 -41 47 -6 157 -17 245 -25 88 -8 183 -18 210 -23 28
-6 86 -10 130 -10 44 -1 132 -8 195 -17 71 -9 223 -16 395 -19 318 -5 285 7
304 -105 6 -36 16 -89 23 -118 16 -70 6 -86 -58 -91 -72 -5 -794 18 -901 29
-50 6 -190 14 -310 20 -120 5 -256 14 -303 20 -47 5 -152 14 -235 20 -334 22
-599 50 -875 91 -147 22 -249 74 -235 119 8 24 149 172 175 184 23 9 548 -2
615 -13z m5654 -279 c1 -18 6 -43 13 -55 6 -12 18 -58 26 -102 7 -44 20 -114
27 -155 7 -41 18 -109 25 -150 6 -41 17 -115 25 -165 15 -94 28 -195 46 -355
5 -52 17 -136 24 -186 15 -91 20 -280 9 -321 -16 -59 -37 -3 -59 152 -8 55
-19 129 -25 165 -35 232 -57 396 -75 550 -7 69 -18 161 -24 205 -35 267 -48
452 -36 482 10 22 22 -13 24 -65z m-9991 -199 c6 -26 18 -73 27 -103 39 -134
58 -211 71 -295 8 -49 19 -103 24 -119 13 -39 13 -327 -1 -363 -6 -15 -17 -57
-25 -93 -9 -36 -22 -90 -29 -120 -8 -30 -19 -75 -25 -100 -6 -25 -17 -65 -25
-90 -7 -25 -17 -63 -20 -85 -4 -22 -13 -62 -20 -90 -27 -100 -79 -315 -89
-365 -3 -14 -14 -70 -26 -125 -51 -232 -53 -304 -12 -343 41 -39 74 -62 88
-62 7 0 25 -6 41 -14 55 -28 119 -53 178 -72 33 -10 62 -20 64 -21 8 -5 -42
-53 -55 -53 -6 0 -17 -6 -23 -14 -28 -33 -223 -43 -243 -12 -4 6 -8 25 -8 43
0 17 -4 34 -9 38 -5 3 -12 19 -16 35 -6 29 -56 80 -78 80 -22 0 -57 -44 -57
-72 0 -37 41 -117 75 -146 27 -24 29 -64 5 -147 -14 -48 -35 -310 -34 -432 0
-132 20 -120 -186 -113 -181 6 -171 -4 -149 143 14 96 21 102 65 56 65 -69
122 -69 145 0 13 40 7 238 -10 311 -6 25 -15 95 -21 155 -6 61 -13 134 -16
164 -5 43 -2 61 14 90 36 64 -15 114 -63 61 -21 -24 -68 -26 -213 -9 -125 15
-148 33 -101 80 62 62 308 45 491 -35 32 -14 44 31 16 61 -23 25 -23 25 -21
304 1 168 6 300 13 332 6 29 18 115 26 192 20 203 33 301 49 383 8 40 15 92
15 115 0 23 7 69 15 102 8 33 14 76 15 95 0 19 9 87 20 150 44 250 50 289 57
385 4 55 6 104 4 110 -1 5 0 24 4 42 9 48 39 29 53 -34z m3032 -646 c121 -58
170 -92 170 -117 0 -27 -22 -30 -128 -18 -53 6 -142 12 -197 14 -110 3 -125
11 -125 68 0 17 -4 45 -9 63 -13 46 -1 51 97 45 78 -5 98 -10 192 -55z m246
-2 c81 -37 113 -78 114 -142 0 -28 4 -62 9 -75 21 -59 22 -157 1 -178 -43 -43
-230 -24 -470 48 -146 44 -144 43 -152 103 -3 29 -4 58 -1 63 7 11 277 0 346
-14 41 -8 54 -7 87 10 80 41 56 130 -48 176 -18 8 -30 19 -27 24 11 18 86 10
141 -15z m-562 -218 c8 -13 7 -20 -4 -27 -20 -12 -43 11 -34 34 8 20 23 17 38
-7z m7004 -187 c72 -14 88 -34 98 -117 3 -27 11 -77 19 -113 20 -93 50 -249
70 -360 9 -52 23 -124 30 -160 8 -36 17 -92 20 -125 4 -33 11 -67 15 -75 7
-13 24 -121 33 -214 1 -12 -9 -26 -29 -37 -48 -29 -303 -92 -484 -120 -36 -5
-94 -15 -130 -22 -96 -17 -429 -14 -507 5 -102 26 -175 101 -231 240 -31 76
-27 101 18 109 103 19 291 72 335 95 63 33 69 54 39 159 -14 50 -29 110 -35
134 -5 24 -16 67 -24 95 -19 67 -45 213 -45 252 0 16 10 61 23 98 38 112 79
127 462 166 98 10 238 6 323 -10z m-1251 -743 c6 -40 18 -100 26 -134 16 -71
9 -87 -40 -81 -28 3 -28 3 -25 98 3 121 12 204 20 195 4 -4 12 -39 19 -78z
m-5104 -97 c10 -55 19 -190 22 -320 3 -124 10 -263 15 -310 13 -119 19 -276
10 -290 -13 -22 -120 34 -121 62 -3 107 5 320 16 447 8 85 15 216 15 291 0
271 13 306 43 120z m5173 -195 c9 -13 21 -41 28 -62 32 -105 131 -235 209
-274 74 -38 429 -49 632 -19 186 28 301 50 385 75 25 7 63 16 85 20 22 4 45
11 50 15 6 5 30 12 53 16 39 6 41 5 47 -22 3 -16 10 -45 15 -64 5 -19 12 -62
15 -95 3 -33 12 -94 20 -135 44 -237 73 -499 55 -510 -7 -4 -65 -11 -129 -14
-64 -4 -186 -11 -271 -17 -274 -19 -843 0 -872 29 -10 10 -32 102 -53 222 -32
180 -58 240 -105 240 -25 0 -32 -8 -55 -55 -30 -60 -43 -66 -82 -35 -19 15
-41 20 -85 20 -61 0 -205 27 -338 62 -41 11 -100 27 -130 35 -53 13 -108 28
-215 58 -61 17 -136 34 -190 43 -36 6 -40 10 -40 35 0 28 0 28 250 30 215 2
258 5 305 21 197 67 243 123 280 334 4 23 9 45 12 47 4 5 62 18 100 24 4 1 15
-10 24 -24z m-7341 -135 c8 -13 -12 -44 -62 -99 -43 -46 -43 -46 -43 -13 0 64
81 151 105 112z m3969 -52 c31 -35 59 -67 64 -73 11 -16 46 -69 52 -80 3 -5
23 -37 44 -70 234 -359 247 -373 393 -446 59 -30 122 -59 138 -65 17 -6 55
-21 85 -32 31 -12 63 -22 72 -22 9 0 38 -9 65 -21 48 -21 48 -21 18 -45 -92
-73 -245 -129 -397 -144 -189 -18 -303 5 -400 81 -40 33 -41 32 -58 -29 -13
-50 -43 -56 -48 -10 -4 31 63 108 94 108 10 0 37 7 59 15 22 8 60 14 84 15 38
0 142 19 211 38 17 5 26 16 28 33 3 28 -37 52 -108 64 -19 3 -62 12 -95 20
-33 7 -85 18 -115 24 -188 34 -407 106 -440 146 -16 19 -56 20 -64 0 -4 -13
36 -76 80 -125 29 -32 84 -111 84 -120 0 -6 4 -10 9 -10 15 0 63 -110 57 -127
-12 -29 -125 2 -211 57 -16 11 -43 27 -60 34 -16 8 -52 33 -79 55 -63 53 -116
58 -116 11 0 -28 39 -115 101 -228 33 -59 31 -80 -6 -56 -30 20 -78 15 -160
-17 -95 -37 -518 -31 -923 13 -136 15 -132 10 -133 171 -1 73 -2 150 -3 172
-1 47 -24 44 209 27 434 -30 949 79 1113 237 67 64 134 188 172 316 49 166 92
185 184 83z m2321 53 c10 -17 22 -176 14 -185 -21 -23 -236 14 -247 42 -5 15
62 81 83 82 6 0 35 16 65 35 57 36 75 41 85 26z m-8195 -108 c8 -3 69 -11 135
-17 l120 -11 11 -130 c6 -71 16 -150 22 -175 13 -57 27 -330 17 -359 -3 -11
-11 -21 -17 -21 -22 0 -79 77 -124 168 -48 95 -50 97 -73 83 -12 -8 -12 -16
-1 -55 21 -75 10 -354 -15 -372 -25 -18 -35 -18 -41 4 -6 20 -24 63 -47 112
-9 19 -19 53 -23 75 -3 22 -12 63 -19 90 -35 132 -46 233 -46 419 0 218 3 224
101 189z m11230 -73 c0 -5 -4 -10 -10 -10 -5 0 -10 5 -10 10 0 6 5 10 10 10 6
0 10 -4 10 -10z m-10696 -46 c7 -18 0 -34 -15 -34 -5 0 -9 11 -9 25 0 28 15
34 24 9z m10969 -43 c15 -15 21 -159 7 -176 -11 -13 -19 -6 -55 52 -24 38 -50
76 -59 86 -36 38 -8 60 64 50 19 -2 39 -8 43 -12z m-3309 -121 c26 -10 26 -10
26 -240 0 -212 -1 -230 -17 -230 -20 1 -88 61 -118 106 -86 128 -70 330 30
360 51 16 49 16 79 4z m-903 -281 c3 -74 3 -140 1 -146 -12 -35 -246 -54 -277
-22 -14 14 -6 25 85 119 56 57 115 123 132 147 18 24 36 42 42 40 7 -2 13 -57
17 -138z m-1491 -13 c70 -23 314 -78 405 -92 63 -9 13 -28 -145 -53 -65 -10
-125 -36 -162 -69 -32 -29 -53 -24 -61 15 -3 16 -22 53 -41 82 -20 29 -36 56
-36 60 0 5 -9 16 -20 26 -46 41 -18 56 60 31z"/>
</g>
</svg>
