<?xml version="1.0" standalone="no"?>
<!DOCTYPE svg PUBLIC "-//W3C//DTD SVG 20010904//EN"
 "http://www.w3.org/TR/2001/REC-SVG-20010904/DTD/svg10.dtd">
<svg version="1.0" xmlns="http://www.w3.org/2000/svg"
 width="736.000000pt" height="736.000000pt" viewBox="0 0 736.000000 736.000000"
 preserveAspectRatio="xMidYMid meet">

<g transform="translate(0.000000,736.000000) scale(0.100000,-0.100000)"
fill="#000000" stroke="none">
<path d="M4724 6780 c-79 -14 -186 -56 -337 -131 -243 -121 -323 -189 -275
-237 25 -25 73 -9 270 88 249 122 330 150 430 150 115 0 205 -53 223 -131 6
-24 1 -31 -39 -58 -50 -35 -96 -103 -96 -144 0 -35 33 -67 67 -67 42 0 111 38
145 81 43 53 78 53 129 0 106 -112 48 -300 -127 -411 -25 -16 -93 -47 -152
-70 -59 -24 -113 -47 -119 -53 -20 -15 -15 -55 7 -67 46 -25 250 38 359 111
108 72 178 166 207 278 20 82 12 151 -27 231 -37 73 -95 125 -166 147 -50 16
-53 19 -67 65 -37 127 -154 210 -311 222 -39 2 -93 1 -121 -4z"/>
<path d="M3205 6532 c-105 -36 -203 -133 -330 -324 -32 -49 -62 -88 -67 -88
-24 0 -209 -336 -243 -443 -70 -218 -7 -420 216 -693 66 -81 100 -98 132 -66
28 28 18 56 -49 132 -156 179 -224 318 -224 455 0 98 32 169 169 380 51 77 94
151 97 165 14 64 124 232 204 310 30 30 88 72 128 93 72 38 87 58 60 85 -16
16 -33 15 -93 -6z"/>
<path d="M4785 6081 c-22 -10 -74 -39 -115 -65 -244 -151 -517 -175 -798 -69
-112 42 -164 48 -170 20 -9 -44 105 -113 259 -157 93 -27 293 -37 411 -21 175
25 395 118 471 201 29 32 36 77 15 98 -16 16 -26 15 -73 -7z"/>
<path d="M3475 5750 c-3 -5 13 -65 36 -133 37 -108 43 -135 47 -237 5 -118 -4
-187 -35 -268 -12 -33 -20 -41 -32 -36 -74 32 -105 37 -159 26 -110 -23 -173
-104 -180 -231 -5 -94 19 -167 79 -234 42 -49 137 -101 164 -91 35 14 35 38
-1 84 -97 127 -114 160 -114 223 0 54 3 62 34 93 19 19 44 34 55 34 28 0 71
-23 93 -49 20 -24 70 -28 86 -8 35 42 92 295 92 407 0 136 -46 307 -103 382
-34 45 -51 55 -62 38z"/>
<path d="M4822 5568 c-19 -19 -14 -83 20 -274 39 -225 45 -465 14 -599 -73
-315 -275 -507 -536 -508 -99 0 -175 23 -252 78 -99 70 -107 73 -129 47 -25
-31 -9 -73 50 -132 83 -82 191 -120 341 -120 82 0 164 12 221 35 12 5 20 -2
28 -26 39 -112 -33 -164 -195 -141 -108 16 -193 43 -328 103 -113 51 -144 57
-164 37 -19 -19 -14 -44 15 -79 110 -130 474 -237 649 -190 137 37 205 187
141 313 l-23 45 72 71 c74 72 139 169 179 267 12 31 24 58 27 61 7 6 185 -65
293 -116 492 -236 949 -715 1139 -1195 36 -91 89 -282 101 -365 l7 -45 -119
-1 c-132 -1 -213 -14 -322 -50 -85 -29 -125 -54 -151 -97 -27 -44 -12 -67 44
-67 24 0 63 7 87 16 126 45 228 65 350 71 147 7 137 14 140 -107 l2 -75 -124
-7 c-227 -12 -460 -53 -651 -112 l-48 -15 0 78 c0 50 7 100 19 138 16 49 20
97 22 249 2 104 0 199 -4 210 -8 23 -38 36 -54 25 -42 -27 -61 -221 -55 -564
1 -48 -3 -109 -9 -135 -24 -111 -58 -555 -47 -606 6 -27 2 -113 -12 -260 -29
-313 -26 -400 12 -412 12 -3 26 0 33 7 28 31 37 94 46 354 5 149 15 284 21
300 6 17 16 136 22 265 l11 235 145 37 c216 54 455 88 623 88 l57 0 0 -147 c0
-82 -7 -192 -15 -245 -15 -102 -79 -352 -164 -646 -57 -196 -81 -342 -61 -367
7 -8 23 -15 36 -15 49 0 137 225 208 533 36 155 94 516 117 722 8 76 17 118
30 137 23 33 24 56 5 84 -11 15 -36 176 -36 230 0 2 15 6 34 10 62 11 55 59
-13 91 -37 16 -41 23 -52 73 -51 243 -223 653 -367 875 -163 250 -427 503
-700 669 -163 99 -440 224 -535 242 -38 6 -39 7 -33 43 17 104 18 329 2 439
-30 206 -93 420 -130 444 -15 10 -20 10 -34 -4z"/>
<path d="M4647 5438 c-38 -30 -45 -122 -11 -159 21 -24 66 -25 87 -1 27 30 26
123 -3 152 -23 23 -49 26 -73 8z"/>
<path d="M3887 5409 c-25 -19 -27 -26 -27 -97 0 -83 4 -93 37 -111 23 -12 65
-2 78 19 12 20 6 173 -8 186 -25 24 -53 25 -80 3z"/>
<path d="M4440 5385 c-27 -32 9 -124 80 -210 55 -65 72 -100 68 -138 -2 -23
-10 -35 -30 -45 -23 -10 -37 -9 -107 15 -89 30 -113 26 -119 -17 -5 -31 50
-85 106 -105 157 -53 289 42 261 189 -12 65 -31 98 -113 190 -39 44 -79 93
-89 109 -20 30 -38 34 -57 12z"/>
<path d="M4070 4655 c-18 -21 -4 -50 44 -92 62 -54 150 -84 267 -90 88 -5 101
-3 152 20 58 26 78 56 56 83 -10 12 -32 14 -133 8 -134 -7 -166 -1 -288 55
-77 35 -81 36 -98 16z"/>
<path d="M2780 4634 c-14 -2 -65 -9 -115 -15 -128 -15 -300 -54 -444 -101
-768 -248 -1284 -760 -1506 -1493 -20 -67 -45 -127 -55 -138 -22 -20 -27 -53
-9 -59 9 -3 7 -28 -4 -93 -45 -247 -48 -641 -9 -900 59 -377 152 -683 263
-864 173 -281 415 -403 798 -403 384 0 863 103 1311 281 278 111 571 286 578
345 4 32 -13 56 -39 56 -11 0 -135 -56 -277 -124 -265 -128 -417 -191 -583
-244 -338 -108 -706 -172 -992 -172 -488 0 -702 204 -852 812 -80 325 -114
684 -88 952 l6 68 95 44 c310 144 587 206 922 207 256 0 416 -26 662 -106 115
-37 151 -33 156 18 4 41 -25 67 -113 98 -207 74 -440 111 -695 111 -338 0
-608 -59 -899 -195 -57 -27 -106 -47 -108 -45 -7 7 29 175 41 190 24 30 357
125 573 163 136 24 574 24 716 1 60 -10 107 -14 121 -8 51 19 57 66 12 95 -43
28 -229 48 -461 49 -303 1 -507 -30 -783 -119 -75 -24 -138 -42 -141 -40 -9 9
64 197 124 320 169 346 403 605 743 818 138 87 334 178 507 236 215 71 340 97
728 150 37 5 74 15 82 21 22 18 19 67 -4 80 -18 9 -203 12 -261 4z"/>
<path d="M3012 4027 c-38 -41 -58 -221 -27 -247 31 -26 61 12 86 109 l11 45
25 -32 c14 -18 39 -40 56 -49 34 -17 118 -22 180 -9 l38 7 -17 -33 c-25 -47
-31 -173 -11 -221 l16 -37 -82 6 c-73 6 -88 4 -127 -16 -25 -12 -54 -30 -64
-39 -11 -9 -21 -12 -23 -6 -21 60 -86 115 -135 115 -26 0 -58 -22 -58 -41 0
-13 46 -59 59 -59 21 0 41 -60 41 -124 0 -69 14 -96 51 -96 21 0 35 13 91 89
55 73 83 83 219 75 133 -8 159 0 159 45 0 16 -7 35 -17 42 -27 23 -53 91 -53
142 0 59 20 108 65 158 70 78 4 110 -156 74 -105 -24 -147 -14 -172 40 -29 62
-55 85 -97 85 -25 0 -43 -7 -58 -23z"/>
<path d="M4382 3678 c-16 -16 -15 -75 3 -134 8 -27 15 -54 15 -60 0 -6 -24
-16 -52 -23 -59 -13 -154 -54 -180 -78 -26 -23 -23 -69 5 -87 43 -28 151 -58
213 -59 66 0 94 12 94 43 0 25 -17 36 -78 50 -69 16 -56 29 38 37 83 7 116 28
106 68 l-6 22 43 -21 c63 -31 141 -27 252 17 50 19 106 38 125 42 l35 7 -20
-23 c-12 -13 -49 -55 -83 -92 -34 -37 -62 -77 -62 -87 0 -18 19 -40 78 -87 23
-18 23 -18 -45 -19 -78 -1 -140 -24 -192 -72 -18 -18 -34 -32 -36 -32 -1 0 -6
27 -9 61 -4 33 -12 71 -18 85 -15 32 -46 41 -63 17 -17 -21 -19 -49 -15 -193
2 -117 17 -165 55 -174 51 -13 89 18 109 88 17 58 43 88 98 111 49 20 72 19
143 -6 62 -22 97 -19 129 9 53 48 38 104 -46 168 l-60 46 24 27 c13 14 45 50
71 78 59 65 72 97 56 135 -18 44 -46 58 -115 58 -46 0 -82 -8 -150 -35 -103
-41 -171 -53 -211 -36 -15 6 -45 37 -67 67 -21 31 -53 64 -70 75 -35 21 -96
25 -114 7z"/>
<path d="M3645 3491 c-43 -19 -89 -67 -108 -110 -6 -14 -13 -96 -16 -181 -6
-150 -7 -158 -38 -220 -64 -130 -175 -223 -363 -306 -101 -44 -456 -173 -601
-217 -107 -33 -135 -53 -125 -90 6 -24 11 -27 51 -27 75 0 498 136 718 230
181 78 309 175 385 292 68 104 84 163 87 309 2 69 6 140 10 157 17 79 134 84
213 9 83 -79 112 -196 94 -380 -17 -167 -16 -191 8 -212 28 -25 62 -13 83 31
20 40 47 202 47 276 0 252 -162 459 -359 458 -25 0 -64 -9 -86 -19z"/>
<path d="M4086 2817 c-24 -18 -17 -50 14 -59 14 -4 88 -14 165 -23 253 -28
532 -101 597 -156 l33 -27 -25 -10 c-14 -5 -144 -15 -288 -23 -232 -11 -267
-15 -288 -31 -31 -25 -31 -61 0 -86 21 -16 48 -20 153 -25 216 -10 450 -64
418 -96 -23 -23 -257 -69 -400 -78 -114 -7 -145 -22 -145 -67 0 -53 23 -66
121 -66 98 0 177 -12 266 -41 77 -25 93 -41 67 -70 -18 -20 -25 -21 -104 -13
-131 12 -201 9 -240 -11 -42 -21 -50 -32 -50 -66 0 -36 24 -53 105 -74 77 -20
135 -65 135 -104 0 -27 -37 -62 -81 -78 -19 -7 -153 -42 -298 -78 -145 -36
-276 -72 -292 -80 -38 -20 -52 -47 -40 -78 10 -26 29 -37 66 -37 35 0 583 138
629 159 53 23 103 66 123 104 21 42 21 124 0 166 -21 42 -21 41 1 41 36 0 92
22 122 47 85 71 82 187 -7 247 -24 17 -32 27 -22 30 110 32 164 73 175 131 8
45 -20 103 -63 130 -39 24 -40 31 -8 39 30 8 71 60 78 101 6 32 -13 88 -41
118 -50 56 -273 129 -490 162 -125 19 -361 20 -386 2z"/>
</g>
</svg>
