<?xml version="1.0" standalone="no"?>
<!DOCTYPE svg PUBLIC "-//W3C//DTD SVG 20010904//EN"
 "http://www.w3.org/TR/2001/REC-SVG-20010904/DTD/svg10.dtd">
<svg version="1.0" xmlns="http://www.w3.org/2000/svg"
 width="736.000000pt" height="736.000000pt" viewBox="0 0 736.000000 736.000000"
 preserveAspectRatio="xMidYMid meet">

<g transform="translate(0.000000,736.000000) scale(0.100000,-0.100000)"
fill="#000000" stroke="none">
<path d="M4388 6630 c-147 -25 -276 -88 -396 -192 -153 -133 -159 -136 -402
-167 -125 -16 -213 -62 -315 -165 -92 -93 -146 -180 -230 -371 -150 -338 -172
-515 -88 -680 28 -55 92 -117 117 -113 40 6 42 32 8 105 -45 99 -59 186 -43
279 20 117 81 285 171 466 62 124 94 170 169 241 84 81 142 105 295 123 191
22 228 39 388 177 147 127 273 177 443 177 253 0 454 -132 568 -373 49 -101
59 -107 146 -83 77 22 139 20 206 -5 82 -30 135 -76 170 -143 26 -51 30 -70
30 -140 0 -91 -15 -136 -70 -219 -40 -59 -42 -68 -17 -90 27 -25 48 -21 90 17
52 47 90 120 108 208 46 217 -71 415 -287 488 -53 19 -80 21 -160 18 l-95 -5
-35 65 c-43 82 -171 219 -253 271 -161 101 -343 140 -518 111z"/>
<path d="M4295 5540 c-19 -37 -19 -125 0 -181 22 -62 75 -125 155 -185 87 -66
152 -88 236 -81 l63 5 47 -45 c65 -60 171 -129 246 -160 86 -35 213 -43 292
-18 70 22 145 87 176 151 45 92 26 206 -41 257 -55 40 -103 -10 -75 -78 51
-120 -33 -225 -179 -225 -97 1 -243 72 -337 165 l-46 46 15 46 c18 53 13 195
-9 240 -25 51 -106 47 -152 -8 -48 -57 -55 -133 -20 -231 13 -37 12 -38 -9
-38 -39 0 -145 58 -198 107 -65 61 -92 113 -94 185 -2 31 -6 61 -9 67 -13 21
-45 11 -61 -19z"/>
<path d="M3771 5164 c-16 -14 -48 -52 -69 -84 l-39 -60 -29 31 c-58 63 -155
86 -228 55 -45 -19 -83 -71 -97 -133 -33 -142 82 -427 203 -507 21 -14 31 -15
47 -6 12 6 21 17 21 26 0 8 -27 67 -60 132 -75 146 -109 271 -91 332 14 46 43
59 88 38 41 -19 63 -71 63 -149 0 -79 19 -111 65 -111 37 0 58 26 81 99 10 32
44 109 76 171 32 62 58 124 58 137 0 21 -32 55 -51 55 -4 0 -21 -11 -38 -26z"/>
<path d="M4137 4973 c-22 -6 -67 -101 -67 -142 0 -55 69 -82 109 -42 26 26 44
94 36 132 -6 25 -40 61 -55 58 -3 -1 -13 -3 -23 -6z"/>
<path d="M5550 4885 c-20 -24 9 -48 144 -117 286 -145 428 -257 652 -513 80
-92 132 -170 188 -283 43 -86 49 -93 74 -90 22 2 28 9 30 36 4 36 -68 181
-173 352 -100 161 -294 346 -495 471 -182 112 -388 183 -420 144z"/>
<path d="M4545 4840 c-3 -5 9 -37 26 -72 42 -84 79 -183 79 -213 0 -34 -23
-32 -130 6 -115 41 -146 46 -170 24 -49 -44 -2 -107 111 -149 97 -36 176 -44
231 -22 116 45 108 163 -20 332 -41 54 -96 104 -115 104 -3 0 -8 -4 -12 -10z"/>
<path d="M4850 4760 c-39 -41 -57 -99 -41 -129 16 -29 54 -43 86 -31 47 18 85
141 52 168 -6 6 -24 13 -40 17 -22 6 -32 2 -57 -25z"/>
<path d="M1960 4735 c-185 -37 -460 -162 -685 -311 -212 -139 -399 -314 -537
-498 -197 -264 -291 -587 -248 -854 56 -343 289 -587 657 -689 90 -25 113 -27
278 -27 200 0 306 17 472 75 159 55 210 97 178 145 -22 34 -57 31 -215 -16
-341 -102 -595 -101 -826 5 -214 98 -345 249 -400 462 -23 87 -25 112 -21 223
6 152 29 245 97 387 67 141 155 266 278 394 223 233 469 398 802 539 294 124
310 132 310 157 0 20 -5 23 -37 22 -21 0 -67 -7 -103 -14z"/>
<path d="M3960 4548 c-17 -59 8 -144 65 -229 94 -138 220 -203 395 -204 113 0
150 16 150 64 0 47 -22 56 -134 57 -112 0 -159 14 -239 70 -55 39 -98 100
-141 201 -28 66 -37 78 -59 81 -23 3 -27 -2 -37 -40z"/>
<path d="M5057 4508 c-14 -18 -37 -58 -52 -88 -96 -194 -262 -361 -432 -436
-146 -65 -342 -82 -483 -43 -152 41 -291 147 -370 279 -49 84 -65 100 -95 100
-58 0 -64 -75 -12 -162 94 -160 268 -290 454 -339 99 -27 276 -30 379 -7 161
37 329 130 445 248 113 114 213 281 239 395 19 83 -26 115 -73 53z"/>
<path d="M5560 4156 c-6 -8 -21 -16 -33 -18 -20 -3 -22 -9 -22 -63 -1 -114
-55 -163 -217 -199 -15 -4 -35 -17 -44 -31 -15 -23 -15 -27 -1 -49 13 -19 26
-24 74 -28 33 -2 77 -13 98 -24 49 -26 85 -89 85 -151 0 -47 25 -83 59 -83 19
0 51 24 51 38 0 4 7 38 15 76 20 94 46 120 139 141 89 20 116 37 116 73 0 44
-14 55 -81 63 -100 12 -148 62 -169 176 -17 90 -39 115 -70 79z m31 -282 l28
-27 -32 -38 -32 -38 -31 30 -31 30 31 33 c17 19 33 34 35 35 3 0 17 -11 32
-25z"/>
<path d="M2564 3979 c-23 -4 -68 -21 -100 -37 -52 -25 -62 -27 -83 -16 -37 19
-177 28 -245 15 -119 -22 -222 -89 -257 -166 -51 -112 16 -156 91 -60 56 73
128 106 263 120 31 4 57 3 57 -2 0 -5 -23 -31 -51 -58 -49 -49 -123 -153 -147
-208 -17 -39 -15 -83 4 -101 18 -19 17 -19 47 -5 13 6 43 41 68 77 138 209
385 375 453 306 34 -33 20 -57 -52 -91 -257 -121 -472 -545 -472 -931 0 -57 6
-123 12 -146 17 -57 82 -120 139 -134 63 -15 684 -35 1156 -36 372 -1 404 0
420 17 23 22 9 48 -33 59 -66 18 -335 33 -1108 63 -219 9 -407 20 -417 26 -10
5 -24 19 -31 32 -15 28 -15 197 1 287 50 279 217 567 377 648 118 60 220 53
729 -49 282 -57 403 -89 588 -154 145 -51 167 -54 167 -25 0 15 -18 29 -72 55
-84 40 -368 149 -538 206 -172 57 -552 129 -684 129 -56 0 -56 0 -56 30 0 100
-109 172 -226 149z"/>
<path d="M6730 3800 c-14 -5 -117 -34 -230 -65 -113 -32 -293 -83 -400 -115
-107 -32 -312 -93 -455 -135 -143 -42 -280 -84 -305 -92 -42 -13 -80 -44 -80
-63 0 -17 32 -40 55 -40 32 0 566 160 1160 347 334 105 365 118 365 149 0 22
-4 24 -42 23 -24 0 -54 -4 -68 -9z"/>
<path d="M4565 3598 c-40 -22 -68 -55 -101 -119 -20 -41 -48 -79 -73 -98 l-41
-32 -70 22 c-79 26 -105 20 -105 -22 0 -21 16 -31 135 -82 174 -75 552 -230
954 -392 176 -71 332 -140 348 -153 31 -26 38 -69 13 -78 -9 -4 -170 49 -359
116 -189 67 -352 120 -361 118 -10 -1 -27 -15 -37 -29 -33 -44 -11 -70 101
-119 221 -97 523 -262 508 -277 -3 -2 -173 59 -379 137 -205 77 -385 140 -399
140 -29 0 -59 -28 -59 -54 0 -47 38 -72 262 -171 119 -53 230 -120 272 -164
28 -29 28 -31 8 -31 -43 0 -211 63 -350 132 -79 39 -155 71 -169 71 -16 0 -34
-10 -45 -23 -39 -48 -18 -80 90 -134 92 -46 172 -114 122 -102 -187 45 -372
93 -490 129 -188 57 -230 64 -260 39 -62 -51 18 -105 260 -176 329 -96 590
-152 623 -134 31 16 37 27 37 74 l0 42 82 -24 c65 -19 207 -44 250 -44 18 0
48 42 48 68 0 15 -14 51 -30 81 -17 30 -28 56 -26 59 3 2 30 -5 61 -17 32 -12
79 -21 111 -21 51 0 59 3 91 35 31 31 35 40 31 78 -3 23 -8 49 -12 58 -6 13 1
18 33 23 144 23 158 214 22 300 -39 25 -257 113 -855 347 -181 70 -331 131
-334 133 -3 3 7 18 22 33 16 15 37 46 48 68 36 70 59 96 81 93 11 -2 54 -43
97 -93 135 -159 310 -279 493 -339 44 -14 145 -35 225 -47 171 -24 243 -49
294 -98 40 -41 52 -76 74 -219 17 -116 48 -186 112 -255 101 -109 113 -147 72
-227 -40 -79 -120 -118 -312 -150 -392 -66 -697 -205 -989 -448 -201 -169
-397 -415 -495 -624 l-17 -38 -25 38 c-98 146 -249 256 -390 285 l-63 13 52
69 c133 181 298 311 494 390 103 41 276 82 385 90 111 8 120 11 120 40 0 31
-6 34 -90 44 -149 19 -346 -16 -520 -92 -200 -87 -351 -213 -513 -428 -145
-194 -233 -259 -348 -259 -76 0 -167 45 -214 107 -55 72 -76 141 -85 285 -10
139 -20 190 -55 258 -52 103 -190 189 -316 198 -38 2 -69 7 -69 11 1 8 213
155 340 235 191 119 229 156 200 191 -18 22 -51 18 -122 -12 -173 -75 -433
-249 -665 -446 -86 -73 -100 -96 -80 -136 20 -40 44 -41 152 -5 162 54 293 44
391 -31 61 -47 93 -146 94 -290 1 -293 213 -515 469 -491 88 8 175 52 259 130
l67 63 108 -61 c59 -34 132 -80 162 -104 69 -54 138 -150 179 -250 25 -61 37
-79 60 -87 47 -16 73 8 116 112 81 200 206 387 368 555 173 179 320 287 527
389 158 77 291 120 507 163 97 20 201 45 230 56 185 71 282 258 211 407 -9 20
-47 69 -85 110 -38 40 -73 85 -79 100 -5 15 -19 81 -30 147 -43 257 -142 344
-429 376 -147 17 -256 47 -365 100 -122 60 -219 137 -319 252 -42 47 -91 96
-110 107 -36 23 -99 27 -131 9z"/>
<path d="M6492 3410 c-21 -23 -42 -83 -42 -123 0 -24 -3 -25 -34 -20 -34 5
-35 5 -69 -64 -20 -38 -53 -86 -76 -106 -39 -35 -119 -67 -168 -67 -15 0 -27
-9 -34 -24 -20 -42 -5 -69 55 -98 106 -52 175 -136 198 -240 14 -65 32 -88 69
-88 35 0 54 27 63 89 16 108 103 198 224 230 48 13 77 49 67 81 -4 11 -24 32
-44 45 -52 32 -98 90 -116 146 -9 27 -17 89 -18 150 l-2 104 -27 3 c-17 2 -33
-4 -46 -18z m24 -371 l36 -54 -24 -14 c-12 -8 -50 -42 -84 -76 l-60 -62 -22
31 c-12 18 -35 45 -52 61 l-29 28 63 58 c35 32 68 71 74 86 6 15 17 42 23 58
l11 30 14 -47 c8 -25 30 -70 50 -99z"/>
<path d="M1757 2252 c-10 -10 -17 -34 -17 -53 0 -106 -88 -236 -173 -258 -24
-6 -50 -18 -57 -26 -19 -23 -1 -68 30 -77 14 -4 44 -12 68 -18 79 -20 115 -66
137 -172 7 -36 39 -54 71 -39 27 12 44 47 44 92 0 32 22 82 49 113 23 26 68
48 126 61 41 9 52 17 60 39 13 39 -3 58 -65 78 -105 34 -163 97 -182 195 -15
79 -53 107 -91 65z m75 -357 l-44 -44 -39 31 c-21 17 -39 33 -39 35 0 3 19 26
42 53 l43 50 41 -41 41 -40 -45 -44z"/>
<path d="M6485 2081 c-369 -126 -1081 -386 -1350 -492 -167 -65 -215 -91 -215
-114 0 -44 64 -29 388 86 476 170 1253 462 1375 517 65 29 77 39 75 56 -2 12
-11 22 -23 23 -11 2 -123 -33 -250 -76z"/>
<path d="M6505 1835 c-351 -47 -676 -146 -1010 -310 -194 -96 -248 -134 -243
-174 6 -50 44 -41 237 57 252 129 461 209 709 272 126 32 340 73 437 85 80 9
125 29 125 53 0 35 -77 40 -255 17z"/>
</g>
</svg>
