<?xml version="1.0" standalone="no"?>
<!DOCTYPE svg PUBLIC "-//W3C//DTD SVG 20010904//EN"
 "http://www.w3.org/TR/2001/REC-SVG-20010904/DTD/svg10.dtd">
<svg version="1.0" xmlns="http://www.w3.org/2000/svg"
 width="736.000000pt" height="736.000000pt" viewBox="0 0 736.000000 736.000000"
 preserveAspectRatio="xMidYMid meet">

<g transform="translate(0.000000,736.000000) scale(0.100000,-0.100000)"
fill="#000000" stroke="none">
<path d="M3675 6999 c-323 -47 -605 -282 -708 -589 -14 -41 -31 -96 -37 -122
-12 -45 -15 -48 -87 -84 -73 -36 -113 -76 -113 -115 0 -14 -23 -15 -182 -15
-438 0 -675 -88 -911 -341 -105 -113 -169 -204 -222 -314 -54 -114 -60 -167
-35 -296 30 -158 76 -308 121 -397 l40 -78 -59 -72 c-221 -268 -539 -731 -584
-850 -20 -52 -13 -76 22 -76 22 0 82 65 140 150 104 154 244 349 387 542 145
195 156 207 176 196 12 -6 74 -61 137 -122 151 -146 302 -246 465 -307 76 -28
100 -24 100 21 0 33 -2 35 -70 60 -222 83 -481 270 -530 382 -11 24 -38 70
-61 103 -57 82 -159 278 -178 344 -21 71 -20 125 3 254 27 151 56 209 170 346
86 102 328 255 494 311 134 45 192 54 347 55 163 0 257 -17 609 -107 110 -28
204 -47 217 -44 13 4 28 15 34 26 9 17 6 24 -15 44 -30 28 -193 84 -364 126
-121 29 -147 39 -126 47 6 2 39 18 74 36 78 39 92 60 133 200 113 393 475 631
878 576 137 -18 180 -18 194 3 15 25 -16 53 -87 78 -105 37 -242 48 -372 29z"/>
<path d="M4263 6890 c-65 -32 -144 -109 -304 -295 -161 -187 -221 -266 -216
-286 4 -14 -2 -21 -21 -25 -171 -41 -342 -337 -311 -535 25 -158 162 -269 332
-269 167 0 315 129 366 317 26 98 27 153 1 234 -37 121 -117 221 -163 203 -28
-10 -27 -35 2 -102 37 -84 58 -160 66 -238 4 -49 1 -73 -16 -120 -28 -73 -108
-157 -165 -173 -109 -30 -227 3 -283 79 -40 56 -49 117 -27 199 35 135 112
247 213 306 63 38 77 54 67 80 -4 9 30 53 94 122 54 60 148 164 208 232 120
137 174 184 235 202 47 14 92 3 97 -24 2 -10 -19 -40 -51 -74 -30 -32 -66 -77
-80 -100 -14 -22 -59 -81 -100 -130 -41 -49 -80 -100 -87 -112 -6 -13 -27 -44
-46 -68 -39 -51 -43 -78 -14 -93 18 -9 29 -1 94 67 40 43 95 105 121 138 26
33 73 87 104 120 43 46 114 140 136 183 1 1 54 -7 117 -17 185 -32 330 -89
479 -187 202 -134 252 -307 128 -448 -23 -26 -86 -74 -141 -107 -131 -81 -157
-122 -94 -150 36 -17 114 11 213 77 93 62 140 114 180 200 24 50 28 72 28 144
0 77 -3 92 -34 153 -92 187 -365 355 -670 412 -46 8 -106 15 -135 15 -46 1
-53 4 -71 33 -45 73 -150 88 -252 37z"/>
<path d="M4795 6324 c-185 -103 -320 -130 -499 -101 -108 17 -130 16 -140 -9
-14 -38 24 -65 126 -89 175 -41 405 1 555 100 85 57 131 146 78 153 -11 1 -65
-23 -120 -54z"/>
<path d="M4558 6009 c-10 -5 -21 -26 -25 -47 l-7 -37 -6 40 c-10 80 -80 37
-80 -49 0 -105 133 -116 185 -16 38 73 -6 145 -67 109z"/>
<path d="M4777 5933 c-15 -14 -6 -72 16 -102 12 -17 35 -49 51 -71 41 -57 32
-70 -52 -70 -83 0 -92 -8 -103 -87 -10 -70 -47 -126 -113 -171 -86 -57 -135
-66 -347 -58 -167 7 -188 6 -203 -10 -27 -27 0 -55 80 -83 95 -33 302 -42 388
-17 58 17 58 17 83 -6 85 -78 224 -318 274 -471 37 -114 73 -308 94 -507 9
-85 23 -184 30 -220 8 -36 17 -99 20 -140 8 -92 21 -130 46 -130 31 0 38 38
40 202 2 209 -21 361 -102 681 -87 341 -140 461 -263 594 l-66 71 34 25 c43
33 94 110 108 162 10 39 14 42 62 53 72 17 116 65 116 128 0 60 -9 76 -93 162
-68 69 -86 80 -100 65z"/>
<path d="M4321 5651 c-59 -59 68 -181 187 -181 71 0 131 46 117 90 -8 25 -44
34 -95 26 -48 -8 -83 5 -132 49 -44 40 -51 42 -77 16z"/>
<path d="M3692 5318 c-29 -29 -4 -121 85 -308 89 -188 260 -427 334 -465 64
-34 134 -7 162 62 23 59 39 186 40 323 1 130 -12 204 -38 214 -30 11 -43 -21
-49 -121 -9 -151 -33 -339 -47 -364 -12 -23 -12 -23 -51 21 -110 126 -266 401
-317 559 -12 35 -26 70 -32 77 -14 17 -71 18 -87 2z"/>
<path d="M5292 5110 c-25 -27 -45 -104 -37 -142 6 -24 1 -35 -32 -67 -23 -24
-56 -44 -81 -50 -43 -12 -66 -38 -56 -65 3 -9 28 -31 55 -51 49 -35 90 -100
119 -188 14 -44 50 -72 79 -62 22 7 26 19 35 98 3 26 15 65 26 87 22 43 91
100 121 100 20 0 49 36 49 61 0 26 -32 46 -84 52 -37 4 -56 12 -80 36 -29 29
-31 37 -36 119 -5 85 -6 87 -32 90 -17 2 -33 -4 -46 -18z m44 -281 l23 -22
-32 -44 -31 -44 -27 33 -27 33 31 32 c18 18 34 33 36 33 3 0 15 -10 27 -21z"/>
<path d="M2856 5084 c-37 -37 -24 -55 208 -291 72 -73 128 -134 126 -135 -3
-2 -30 -12 -60 -22 -122 -41 -308 -174 -457 -328 -104 -108 -124 -149 -103
-212 9 -29 42 -62 154 -155 150 -125 390 -344 440 -402 16 -19 49 -55 73 -81
23 -26 43 -51 43 -56 0 -4 -17 -16 -37 -26 -103 -49 -193 -147 -243 -266 -32
-76 -40 -232 -15 -315 25 -89 59 -148 109 -192 63 -56 106 -66 237 -57 76 4
117 3 138 -5 28 -12 29 -15 33 -99 4 -76 11 -105 58 -222 64 -162 185 -409
247 -502 119 -180 251 -203 635 -107 129 32 142 34 133 19 -22 -35 32 -118 98
-152 58 -29 164 -20 325 26 68 20 126 36 130 36 4 0 15 -18 25 -40 36 -79 537
-814 707 -1038 56 -74 71 -87 98 -90 26 -3 34 1 43 21 10 21 7 33 -15 74 -26
46 -473 684 -678 966 -55 76 -98 140 -96 141 1 1 23 11 48 21 80 33 177 94
233 144 l54 50 85 -137 c47 -75 171 -272 275 -437 104 -165 247 -394 318 -508
71 -115 139 -216 152 -224 14 -9 33 -13 48 -9 21 5 25 12 25 45 0 42 -9 58
-295 516 -195 313 -505 783 -533 809 -20 17 -20 18 4 70 49 108 54 214 14 319
-11 27 -17 54 -14 58 15 24 22 124 13 179 -13 81 -30 129 -105 299 -90 203
-209 414 -271 481 -56 61 -141 110 -190 110 -30 0 -33 4 -43 43 -18 73 -71
200 -107 255 -129 195 -397 266 -619 163 l-61 -29 -32 67 c-110 223 -333 475
-638 718 -129 102 -147 112 -215 109 -56 -3 -57 -2 -85 38 -16 23 -101 117
-188 209 -130 138 -163 167 -186 167 -15 0 -35 -7 -43 -16z m689 -615 c464
-421 586 -611 729 -1134 38 -137 45 -205 23 -205 -23 0 -50 38 -172 235 -64
105 -128 205 -142 223 -36 47 -93 40 -93 -13 0 -11 47 -94 104 -184 l104 -164
-12 -40 c-21 -74 -18 -78 -146 163 -39 74 -78 141 -87 148 -26 19 -51 14 -69
-13 -15 -23 -13 -30 50 -171 36 -81 65 -149 63 -150 -1 -2 -52 60 -112 136
-61 76 -117 140 -125 143 -26 7 -59 -11 -65 -35 -3 -14 12 -73 40 -151 25 -70
45 -132 45 -137 0 -25 -25 -1 -106 103 -211 268 -531 606 -760 803 -68 59
-124 110 -124 114 0 21 245 241 323 290 49 30 130 82 181 116 51 33 110 68
132 77 36 15 40 15 54 -1 8 -10 83 -79 165 -153z m1117 -727 c123 -61 183
-131 252 -297 21 -49 39 -94 42 -100 4 -9 -175 -82 -179 -73 -1 2 -17 34 -36
73 -43 91 -82 139 -139 173 -39 22 -59 27 -117 27 -47 0 -81 -6 -104 -18 -19
-9 -35 -16 -36 -15 -5 8 -65 188 -65 196 0 9 94 55 135 65 11 3 57 5 102 3 68
-2 92 -8 145 -34z m-147 -303 c22 -12 53 -33 69 -48 30 -28 106 -134 106 -149
0 -4 -60 -35 -134 -69 l-134 -60 0 56 c1 31 -11 100 -26 154 -14 55 -26 105
-26 112 0 30 92 32 145 4z m-1115 -171 c24 -29 50 -60 57 -69 12 -14 7 -19
-41 -43 -160 -78 -182 -299 -38 -389 42 -27 117 -53 182 -62 25 -4 48 -9 51
-11 4 -2 -11 -21 -32 -43 l-39 -39 -38 20 c-33 18 -50 19 -159 13 -141 -7
-165 0 -213 67 -93 128 -77 347 35 484 38 47 147 124 175 124 9 0 36 -24 60
-52z m1725 -30 c59 -57 306 -521 369 -696 30 -85 34 -167 10 -218 -23 -47
-112 -127 -232 -207 -117 -77 -132 -85 -132 -64 0 8 -23 63 -51 123 -82 174
-153 355 -219 559 -34 105 -77 239 -97 298 -19 60 -33 110 -31 111 1 1 50 24
108 51 58 27 112 55 120 62 8 7 38 13 67 13 46 0 58 -4 88 -32z m-1562 -172
c40 -41 62 -56 92 -62 57 -10 105 18 126 75 l16 43 22 -28 c48 -61 113 -81
159 -49 16 12 27 13 41 5 11 -5 30 -10 43 -10 32 0 85 34 93 59 6 20 10 19 54
-21 l48 -43 -186 -96 c-102 -53 -220 -115 -260 -138 -74 -42 -75 -42 -110 -27
-20 9 -74 22 -121 31 -147 27 -200 67 -200 150 0 51 22 87 77 128 26 20 50 37
51 37 2 0 27 -24 55 -54z m1121 -23 c3 -38 22 -128 41 -200 19 -73 35 -136 35
-140 0 -5 -18 -14 -40 -21 -39 -12 -41 -11 -86 24 -105 80 -185 97 -223 48
-39 -50 -28 -89 61 -222 l49 -73 -45 -40 c-71 -63 -60 -119 24 -119 27 0 30
-2 20 -19 -5 -11 -10 -34 -10 -51 0 -24 7 -35 28 -47 25 -14 29 -22 28 -61 -1
-36 4 -48 27 -68 33 -28 47 -29 86 -9 55 28 65 109 15 121 -16 4 -24 13 -24
29 0 12 -9 30 -20 40 -15 13 -17 22 -10 36 13 24 13 65 -1 91 -8 14 -8 23 0
31 22 22 10 50 -64 157 -96 139 -100 148 -49 122 80 -42 106 -66 109 -100 3
-39 60 -186 87 -224 28 -40 84 -54 133 -34 21 9 39 15 41 14 1 -2 32 -68 68
-147 36 -80 76 -155 88 -168 l21 -23 -163 -79 c-148 -72 -412 -172 -423 -161
-3 3 -59 140 -125 305 -67 165 -160 395 -207 510 -48 116 -89 218 -92 227 -4
13 19 29 108 75 144 73 492 243 500 243 3 0 9 -30 13 -67z m-672 -339 c10 -31
18 -58 16 -59 -2 -2 -82 -41 -178 -88 -184 -89 -222 -116 -204 -145 21 -34 65
-25 189 37 66 33 144 74 173 91 l52 31 9 -23 c4 -13 18 -49 30 -81 20 -54 20
-58 3 -64 -9 -4 -67 -25 -128 -49 -61 -23 -129 -47 -152 -53 -71 -20 -97 -70
-47 -93 21 -9 41 -5 127 27 57 20 134 53 172 72 38 18 70 32 71 31 7 -9 67
-189 64 -192 -2 -2 -62 -27 -134 -55 -134 -53 -165 -72 -165 -101 0 -20 19
-40 40 -40 8 0 77 29 152 64 l137 64 20 -52 19 -51 -41 -13 c-23 -7 -88 -24
-145 -37 -98 -22 -152 -45 -152 -65 0 -16 31 -40 53 -40 33 0 177 36 238 60
30 11 59 20 64 20 11 0 82 -177 74 -184 -9 -7 -177 -38 -239 -43 -87 -7 -137
8 -187 57 -94 94 -318 573 -330 711 -6 61 7 97 50 137 29 27 319 193 325 187
3 -3 14 -30 24 -61z m813 -181 c35 -98 35 -100 -13 -127 -14 -8 -92 146 -92
183 0 22 32 42 59 38 7 -1 28 -43 46 -94z m715 -490 c-15 -69 -77 -162 -141
-213 -99 -78 -223 -131 -458 -195 -151 -42 -209 -45 -238 -12 -50 55 -49 58
45 95 251 97 598 293 748 423 l49 42 3 -44 c2 -24 -1 -67 -8 -96z"/>
<path d="M5602 3543 c-6 -10 -13 -37 -17 -61 -11 -67 -61 -132 -123 -162 -82
-39 -85 -97 -4 -113 61 -12 97 -55 130 -156 26 -82 29 -86 58 -89 39 -4 51 11
64 77 19 102 59 151 125 151 62 0 51 90 -14 103 -18 4 -40 20 -58 43 -46 61
-71 84 -85 79 -10 -4 -12 6 -10 42 4 61 -11 103 -37 103 -11 0 -24 -8 -29 -17z
m76 -272 l20 -27 -24 -27 c-13 -15 -25 -27 -27 -27 -2 0 -18 18 -36 40 l-32
40 33 46 33 46 6 -32 c4 -18 16 -44 27 -59z"/>
<path d="M1120 3255 c-40 -49 69 -157 345 -342 485 -326 1104 -526 1630 -526
162 -1 205 9 205 43 0 27 -27 36 -151 50 -469 51 -667 93 -976 207 -263 96
-638 307 -843 473 -129 104 -182 129 -210 95z"/>
<path d="M855 3008 c-8 -13 -27 -59 -41 -103 -94 -296 -111 -859 -44 -1400 58
-463 236 -1095 309 -1095 42 0 39 25 -31 270 -134 470 -197 843 -218 1287 -17
351 6 680 64 928 24 101 21 135 -9 135 -8 0 -21 -10 -30 -22z"/>
<path d="M2795 2111 c-43 -26 -80 -72 -100 -125 -29 -77 -16 -221 43 -471 109
-460 221 -775 308 -862 27 -27 37 -28 59 -7 21 21 18 31 -55 219 -95 244 -149
428 -229 776 -60 259 -54 333 30 401 46 37 53 53 33 73 -21 20 -52 19 -89 -4z"/>
<path d="M3844 1536 c-13 -35 135 -425 277 -729 144 -310 193 -381 235 -347
25 22 13 57 -101 287 -121 244 -202 424 -290 643 -57 141 -65 155 -89 158 -16
2 -28 -2 -32 -12z"/>
</g>
</svg>
