<?xml version="1.0" standalone="no"?>
<!DOCTYPE svg PUBLIC "-//W3C//DTD SVG 20010904//EN"
 "http://www.w3.org/TR/2001/REC-SVG-20010904/DTD/svg10.dtd">
<svg version="1.0" xmlns="http://www.w3.org/2000/svg"
 width="736.000000pt" height="736.000000pt" viewBox="0 0 736.000000 736.000000"
 preserveAspectRatio="xMidYMid meet">

<g transform="translate(0.000000,736.000000) scale(0.100000,-0.100000)"
fill="#000000" stroke="none">
<path d="M3070 6590 c-29 -7 -28 -4 -12 -175 24 -241 34 -574 26 -916 -7 -385
-3 -459 26 -459 13 0 22 11 30 38 57 201 65 827 15 1301 -7 69 -12 127 -11
127 0 1 66 -2 146 -7 236 -14 794 -29 1069 -29 141 0 273 -3 294 -6 l37 -7 0
-161 c0 -166 9 -230 35 -240 9 -3 22 5 32 21 16 23 18 52 18 204 l0 176 525 7
c607 8 1258 23 1346 32 l61 6 -8 -69 c-16 -137 -47 -933 -67 -1709 l-7 -262
-548 -5 c-486 -4 -550 -6 -566 -21 -16 -15 -22 -15 -72 0 -77 23 -131 57 -188
119 -106 117 -119 297 -31 433 20 32 70 95 110 142 145 168 186 256 178 385
-12 188 -164 351 -403 430 -359 120 -785 84 -1136 -96 -102 -52 -182 -107
-277 -187 -42 -36 -52 -51 -50 -71 5 -43 41 -39 106 12 289 226 679 343 1027
307 390 -40 631 -201 629 -420 -1 -78 -27 -134 -104 -225 -130 -154 -175 -214
-201 -270 -119 -255 4 -555 265 -645 33 -11 73 -20 90 -20 58 0 57 -9 -20
-145 -41 -71 -118 -212 -171 -312 -60 -112 -104 -183 -113 -183 -31 0 -137 59
-187 104 -70 63 -98 116 -132 244 -16 60 -36 125 -46 146 -25 52 -71 88 -108
84 -50 -5 -54 -26 -19 -104 17 -38 41 -107 52 -154 30 -125 71 -201 154 -285
96 -98 216 -155 323 -155 50 0 45 -6 133 160 157 298 291 574 296 613 l6 43
502 -4 501 -4 -2 -21 c0 -12 -4 -404 -9 -870 l-7 -848 -76 6 c-257 20 -472 27
-1011 32 -618 6 -1066 -3 -1580 -32 -341 -20 -435 -29 -488 -50 -37 -15 -43
-21 -40 -44 6 -52 78 -61 343 -41 520 38 769 45 1665 44 821 -1 1190 -10 1247
-29 16 -5 28 -1 47 19 l26 25 0 911 c0 903 0 912 20 917 24 6 27 43 3 43 -15
0 -16 31 -9 398 3 218 13 615 21 882 8 267 15 565 15 662 0 201 -1 202 -77
214 -25 4 -330 1 -677 -6 -543 -11 -2053 -9 -2831 5 -60 1 -121 -1 -135 -5z"/>
<path d="M5836 6141 c-3 -5 -15 -38 -26 -74 -32 -102 -141 -207 -216 -207 -33
0 -57 -24 -50 -48 5 -15 20 -25 49 -32 143 -36 229 -121 260 -259 19 -80 46
-101 82 -64 11 11 15 25 11 42 -12 48 -19 149 -12 174 3 14 18 39 32 56 20 24
33 30 61 29 36 -1 63 20 63 49 0 7 -46 70 -102 140 -57 70 -108 143 -113 162
-10 35 -28 50 -39 32z m62 -350 c-21 -24 -38 -50 -38 -57 0 -20 -14 -17 -35 6
-10 11 -40 34 -66 51 l-49 31 40 29 c22 16 51 47 66 68 l26 40 47 -62 47 -62
-38 -44z"/>
<path d="M1277 5978 c-137 -16 -302 -111 -394 -227 -67 -85 -121 -202 -139
-301 -27 -148 -2 -291 94 -551 120 -321 136 -497 63 -655 -52 -111 -125 -174
-235 -204 -69 -19 -83 -46 -34 -62 72 -24 223 47 292 137 84 110 111 210 103
376 -5 118 -20 185 -83 383 -68 210 -88 310 -87 436 0 97 4 126 25 186 79 225
288 377 497 362 82 -6 136 -33 190 -94 42 -48 65 -105 59 -152 -3 -25 -6 -27
-48 -24 -36 2 -56 -3 -100 -30 -124 -75 -170 -227 -110 -366 19 -42 19 -42 -5
-95 -61 -131 -72 -333 -25 -467 28 -80 93 -189 136 -231 l33 -32 -136 -131
c-515 -497 -799 -1135 -829 -1865 -13 -286 34 -636 110 -830 36 -90 50 -104
85 -82 20 13 16 62 -19 251 -42 229 -54 352 -54 575 1 304 39 540 133 825 137
413 360 768 678 1082 96 96 110 106 126 94 16 -12 17 -22 7 -107 -35 -298 92
-494 357 -553 125 -28 256 -19 418 30 95 28 148 58 143 81 -7 36 -32 38 -175
10 -190 -37 -239 -41 -324 -28 -182 29 -292 130 -318 292 -12 71 1 237 21 268
16 27 -8 60 -76 106 -63 41 -103 85 -154 164 -128 201 -103 472 60 656 47 52
51 61 58 125 10 87 41 152 105 215 93 94 227 151 470 201 147 30 323 37 391
17 150 -46 223 -187 179 -348 -20 -74 -16 -95 19 -95 28 0 63 41 87 100 18 46
16 172 -5 228 -38 105 -123 182 -246 223 -88 29 -229 29 -362 0 -176 -39 -342
-91 -436 -136 -52 -25 -95 -45 -97 -45 -1 0 -6 15 -9 33 -15 79 -88 172 -166
211 -90 46 -161 57 -273 44z"/>
<path d="M4321 5733 c-29 -30 -54 -81 -118 -243 -97 -242 -113 -294 -95 -312
20 -20 43 18 123 202 112 260 138 312 151 307 20 -6 13 -82 -25 -269 -33 -167
-34 -200 -2 -212 32 -12 48 12 85 125 40 121 107 266 135 289 12 10 19 10 27
2 8 -8 2 -69 -26 -234 -20 -123 -36 -237 -36 -255 0 -36 28 -58 59 -48 23 7
28 19 41 102 14 84 49 159 106 221 67 76 134 89 114 23 -4 -14 -47 -106 -94
-204 -47 -99 -86 -185 -86 -191 0 -18 33 -46 53 -46 27 0 75 58 97 119 28 74
46 101 70 101 24 0 38 37 -147 -408 -113 -272 -153 -380 -149 -397 9 -34 52
-44 75 -19 10 11 89 189 175 397 162 393 175 436 141 483 -8 12 -28 27 -45 34
-16 7 -30 13 -30 14 0 0 9 25 20 54 29 76 26 124 -8 163 -23 25 -38 32 -78 36
-43 4 -56 0 -107 -31 l-58 -35 6 53 c13 101 -29 166 -108 166 -33 0 -46 -6
-73 -36 -30 -31 -34 -33 -34 -14 0 52 -49 100 -102 100 -11 0 -37 -17 -57 -37z"/>
<path d="M3678 5509 c-14 -8 -15 -32 -10 -206 4 -169 1 -220 -17 -350 -24
-160 -21 -193 18 -193 56 0 91 130 98 361 9 266 -27 423 -89 388z"/>
<path d="M2585 5268 c-11 -6 -65 -54 -120 -107 -101 -97 -193 -178 -274 -241
-31 -24 -46 -31 -49 -21 -7 22 -64 81 -91 95 -69 35 -158 24 -228 -29 -108
-83 -109 -271 -2 -372 68 -64 169 -91 217 -57 47 33 19 83 -60 105 -52 13
-105 66 -113 112 -9 48 -1 78 30 109 61 61 144 33 175 -59 13 -38 27 -44 73
-34 67 16 328 230 440 361 60 71 77 111 57 135 -15 18 -28 18 -55 3z"/>
<path d="M2651 5011 c-27 -27 -27 -71 -1 -104 28 -35 56 -42 85 -23 32 21 33
62 2 107 -27 41 -58 48 -86 20z"/>
<path d="M2931 5016 c-16 -19 -6 -39 40 -75 21 -18 39 -36 39 -41 0 -6 -16
-30 -35 -55 -35 -47 -40 -60 -74 -202 -42 -173 -150 -262 -325 -268 -89 -3
-112 -9 -126 -34 -12 -23 8 -62 40 -78 35 -18 146 -16 211 3 184 54 300 202
324 415 4 40 16 72 41 110 40 63 43 104 13 159 -34 61 -121 99 -148 66z"/>
<path d="M3831 4677 c-11 -18 -33 -61 -48 -95 l-28 -62 -362 -3 c-307 -2 -365
-4 -377 -17 -10 -10 -12 -20 -7 -29 12 -19 310 -32 534 -24 102 4 167 2 167
-3 0 -19 -99 -170 -153 -233 -53 -62 -173 -171 -189 -171 -4 0 -8 13 -8 30 0
33 -26 54 -52 39 -8 -5 -24 -38 -33 -73 -16 -60 -21 -66 -55 -80 -236 -94
-498 -63 -690 83 -59 44 -80 50 -100 26 -36 -43 132 -180 280 -229 111 -37
285 -47 400 -22 41 9 86 19 100 22 l25 5 1 -178 c1 -291 54 -508 165 -670 l29
-41 -113 -36 c-202 -65 -284 -78 -557 -83 -135 -3 -253 -9 -262 -14 -32 -17
-21 -46 25 -68 54 -26 131 -41 214 -41 l63 0 -7 -27 c-5 -16 -8 -253 -8 -528
1 -401 4 -525 17 -627 18 -137 28 -168 58 -168 40 0 44 53 31 412 -6 183 -11
469 -11 635 l0 301 61 4 c33 1 63 1 65 -1 2 -2 4 -124 4 -270 0 -315 16 -796
30 -917 5 -47 15 -92 21 -100 20 -24 46 -16 58 17 15 45 14 339 -4 775 -9 203
-17 400 -18 438 l-2 70 88 18 c112 22 205 50 296 88 71 29 73 29 129 15 71
-19 96 -19 133 1 41 21 37 55 -8 69 -18 5 -33 12 -33 15 1 3 40 31 89 62 250
164 463 405 600 683 89 180 133 316 129 399 -3 54 -6 61 -25 64 -17 3 -26 -8
-48 -55 -15 -32 -38 -89 -52 -128 -38 -105 -114 -260 -173 -350 -153 -233
-407 -467 -622 -571 l-58 -28 -29 28 c-39 38 -94 144 -119 231 -48 165 -73
399 -58 555 l8 75 61 35 c79 45 259 222 319 315 116 180 202 409 169 449 -20
24 -37 19 -60 -17z"/>
<path d="M2584 4655 c-22 -33 -12 -69 31 -112 27 -27 41 -33 74 -33 70 0 119
63 97 128 -10 29 -33 28 -58 -3 -23 -29 -48 -33 -48 -7 0 25 -31 52 -58 52
-12 0 -29 -11 -38 -25z"/>
<path d="M4649 3953 c-12 -13 -14 -122 -14 -612 0 -328 3 -608 8 -623 8 -32
28 -36 48 -11 12 13 14 123 14 623 0 500 -2 610 -14 623 -17 21 -25 21 -42 0z"/>
<path d="M4984 3535 c-12 -19 -15 -40 -12 -81 3 -30 1 -57 -3 -59 -4 -3 -15
-30 -25 -62 -22 -68 -68 -118 -126 -134 -59 -17 -70 -27 -66 -63 3 -27 12 -36
73 -68 82 -42 150 -106 190 -174 51 -89 76 -103 115 -64 17 17 20 33 20 100 0
117 31 177 96 184 16 2 32 4 36 5 4 0 15 12 24 26 22 33 10 61 -36 85 -92 47
-147 119 -190 250 -22 66 -28 75 -52 78 -20 2 -31 -4 -44 -23z m136 -348 c0
-4 -10 -18 -21 -30 -12 -12 -30 -41 -41 -65 l-19 -42 -48 42 -49 41 39 50 c22
27 42 60 45 74 7 25 7 25 50 -18 24 -24 44 -47 44 -52z"/>
<path d="M936 1844 c-12 -30 38 -61 165 -102 68 -22 148 -45 178 -52 l53 -13
-48 -29 c-27 -17 -58 -39 -70 -49 -21 -19 -22 -19 -143 16 -68 19 -147 38
-177 41 -53 7 -54 6 -54 -19 0 -23 8 -28 78 -51 42 -13 105 -32 140 -42 66
-18 72 -24 45 -45 -36 -30 -136 -176 -173 -253 -89 -185 -95 -353 -15 -433 34
-34 79 -44 87 -20 3 6 -1 39 -8 72 -29 137 -2 260 91 415 46 75 177 230 196
230 5 0 9 -17 9 -37 1 -80 55 -149 131 -168 l26 -7 -24 -71 c-27 -76 -34 -160
-16 -178 21 -21 59 -2 76 38 29 67 108 287 114 315 9 46 23 20 23 -41 0 -37
-12 -97 -31 -162 -44 -143 -50 -255 -19 -327 37 -86 114 -130 150 -87 11 13 8
26 -16 77 -39 81 -38 157 1 288 30 98 39 219 22 286 l-8 31 126 6 c193 10 525
63 647 103 87 28 125 79 78 104 -22 12 -69 6 -255 -35 -138 -30 -354 -62 -510
-75 -177 -15 -165 -17 -165 31 l0 41 73 -7 c135 -13 452 22 599 66 83 24 118
50 102 76 -16 25 -73 22 -259 -11 -203 -37 -506 -48 -575 -21 -25 10 -63 18
-85 17 -22 0 -53 -1 -70 -1 -43 -1 -215 37 -323 70 -107 33 -157 37 -166 13z
m570 -220 c14 -56 -16 -174 -50 -196 -6 -4 -19 1 -29 10 -24 22 -19 86 13 160
25 59 55 71 66 26z"/>
</g>
</svg>
