<?xml version="1.0" standalone="no"?>
<!DOCTYPE svg PUBLIC "-//W3C//DTD SVG 20010904//EN"
 "http://www.w3.org/TR/2001/REC-SVG-20010904/DTD/svg10.dtd">
<svg version="1.0" xmlns="http://www.w3.org/2000/svg"
 width="736.000000pt" height="736.000000pt" viewBox="0 0 736.000000 736.000000"
 preserveAspectRatio="xMidYMid meet">

<g transform="translate(0.000000,736.000000) scale(0.100000,-0.100000)"
fill="#000000" stroke="none">
<path d="M4915 6320 c-109 -11 -249 -40 -326 -69 -141 -53 -284 -166 -365
-287 -83 -125 -124 -234 -137 -364 -12 -118 -14 -1107 -3 -1136 15 -39 25 12
27 144 l2 132 449 0 c345 0 450 -3 453 -13 3 -6 6 -262 7 -568 l3 -557 -93 -4
c-91 -5 -113 -11 -98 -25 10 -10 1173 -9 1183 1 10 10 10 1702 1 1712 -22 22
-24 -1 -27 -432 l-1 -81 -465 1 -465 1 -1 600 c-1 796 -5 903 -30 839 -4 -10
-8 -338 -8 -729 l-1 -710 -455 -1 -455 -2 -2 357 c-3 456 -4 431 22 536 41
166 150 336 277 431 175 132 360 184 657 184 195 0 312 -17 424 -60 299 -116
448 -327 498 -705 16 -127 22 -145 35 -124 23 37 -4 234 -52 387 -32 98 -97
221 -149 279 -78 86 -201 164 -335 212 -130 46 -387 69 -570 51z m1076 -1642
c0 -40 0 -189 -1 -332 l0 -259 -43 -37 -42 -38 -17 62 c-27 99 -102 145 -165
101 -28 -19 -57 -96 -51 -135 3 -16 3 -30 2 -30 -1 0 -16 14 -32 30 -57 56
-141 25 -158 -57 -6 -29 -8 -31 -31 -22 -38 14 -52 11 -80 -17 -23 -24 -25
-31 -20 -84 l6 -58 -30 -6 c-24 -5 -34 -14 -46 -46 -12 -31 -21 -40 -39 -40
-58 0 -94 -40 -81 -90 4 -17 0 -20 -31 -20 -21 0 -46 3 -57 6 -20 5 -20 12
-17 562 2 306 5 559 8 562 3 3 209 7 457 10 249 3 455 7 460 8 4 1 7 -31 8
-70z"/>
<path d="M6010 5335 c0 -9 9 -15 25 -15 16 0 25 6 25 15 0 9 -9 15 -25 15 -16
0 -25 -6 -25 -15z"/>
<path d="M3100 5199 c-37 -11 -116 -81 -125 -110 -5 -14 -23 -19 -83 -24 -152
-14 -303 -44 -353 -72 -125 -68 -176 -229 -101 -322 47 -59 49 -80 10 -117
-18 -17 -64 -44 -101 -59 -123 -51 -197 -168 -197 -310 0 -66 7 -73 113 -123
94 -45 175 -69 186 -56 18 22 83 246 74 255 -7 7 -15 2 -25 -13 -17 -27 -68
-175 -68 -200 0 -15 -5 -14 -52 4 -29 12 -85 36 -124 55 l-70 33 7 68 c14 131
57 186 197 254 136 67 160 120 97 217 -46 73 -51 99 -25 159 40 93 99 131 243
158 135 24 261 43 266 39 2 -2 6 -25 8 -50 8 -69 -24 -111 -142 -181 -99 -59
-148 -105 -171 -160 -26 -62 -13 -114 40 -163 14 -13 30 -39 36 -57 14 -41 2
-71 -73 -181 -60 -88 -71 -122 -66 -203 l4 -52 -41 7 c-46 6 -74 -1 -74 -20 0
-8 23 -15 68 -20 78 -8 87 -12 72 -30 -22 -26 -196 -532 -237 -685 -59 -224
-155 -609 -163 -650 -4 -25 -17 -88 -28 -140 -11 -53 -26 -143 -33 -202 l-12
-106 -46 -17 c-25 -9 -62 -23 -81 -32 -19 -8 -91 -35 -160 -59 -69 -24 -170
-61 -225 -82 -98 -39 -100 -40 -102 -73 -3 -43 80 -205 120 -233 24 -18 31
-19 60 -7 17 7 55 22 82 33 28 11 102 40 165 63 96 36 253 98 308 122 10 4 7
-7 -6 -34 -30 -58 -55 -194 -56 -303 l-1 -95 123 -3 c107 -2 123 -5 118 -18
-3 -9 -6 -19 -6 -23 0 -4 -8 -16 -18 -27 -9 -10 -22 -28 -27 -39 -9 -17 -167
-172 -220 -214 -11 -8 -13 -17 -7 -23 15 -15 69 18 137 83 l61 58 54 -13 c108
-27 110 -27 110 -12 0 18 -30 36 -62 36 -13 1 -33 6 -45 13 l-21 12 21 27 c21
25 25 26 66 17 24 -5 46 -7 49 -4 12 12 -16 40 -42 43 -21 3 -26 8 -21 20 3 9
9 35 12 59 l6 43 -120 0 -120 0 -6 29 c-11 52 12 203 44 297 l31 91 101 39
c118 46 124 58 72 139 -18 28 -40 75 -50 105 -10 30 -21 59 -25 63 -4 4 -54
-8 -111 -28 -128 -43 -125 -43 -122 -28 2 7 7 52 13 100 6 48 17 115 25 148 8
33 14 76 15 96 l0 36 88 9 c67 7 87 12 87 24 0 12 -14 14 -82 12 l-82 -4 30
109 c16 59 37 133 45 163 9 30 38 143 65 250 57 224 196 644 283 850 20 47 36
91 36 98 0 24 -23 7 -43 -31 -10 -20 -22 -37 -27 -37 -13 0 -18 77 -9 121 10
42 29 76 78 135 14 17 31 39 37 49 12 21 -7 31 182 -98 86 -59 102 -66 102
-44 0 13 -150 125 -226 171 -28 17 -32 23 -27 52 8 48 -3 80 -43 123 -48 54
-57 88 -34 137 22 48 58 81 135 124 82 46 129 85 151 126 10 19 22 34 26 34 8
0 89 -96 138 -163 18 -26 36 -47 40 -47 3 0 31 18 60 40 65 49 108 53 138 15
17 -22 19 -31 10 -63 -12 -45 -44 -92 -63 -92 -35 0 -62 -87 -40 -130 22 -43
48 -54 85 -35 37 19 50 43 50 93 0 43 -25 77 -36 49 -3 -9 -3 -21 0 -26 8 -12
-17 -76 -33 -85 -5 -4 -17 4 -26 18 -14 22 -14 27 1 64 9 23 24 44 33 47 41
13 64 65 73 164 14 147 11 201 -12 263 -45 121 -215 204 -340 167z m213 -83
c79 -53 106 -111 107 -229 0 -74 -1 -77 -19 -67 -46 24 -137 6 -170 -34 -19
-23 -25 -20 -54 23 -14 21 -65 80 -112 130 l-87 91 22 35 c67 108 197 130 313
51z"/>
<path d="M2933 4664 c-7 -19 2 -353 10 -360 9 -9 127 76 127 91 0 20 -4 19
-50 -7 -21 -13 -41 -20 -44 -18 -3 3 -7 66 -10 140 -2 74 -5 143 -5 153 -1 21
-20 22 -28 1z"/>
<path d="M3080 4548 c1 -20 45 -48 60 -38 12 7 11 12 -4 29 -21 23 -56 28 -56
9z"/>
<path d="M3570 4533 c0 -9 28 -28 160 -107 122 -72 249 -159 424 -288 176
-131 289 -229 369 -322 75 -89 155 -225 138 -235 -16 -10 -124 -43 -246 -76
-95 -25 -227 -65 -640 -191 -180 -55 -285 -97 -285 -115 0 -14 6 -13 171 41
150 49 358 109 409 117 20 3 32 -5 63 -44 50 -64 133 -121 150 -104 9 10 6 17
-18 33 -35 25 -125 117 -125 128 0 4 8 10 18 13 9 2 85 25 167 50 83 25 168
50 189 56 l39 10 -6 -67 c-7 -80 -59 -247 -111 -355 -21 -43 -73 -125 -116
-183 -74 -98 -106 -136 -242 -291 -32 -36 -58 -69 -58 -74 0 -28 40 3 134 104
93 99 134 151 245 302 97 134 174 349 185 515 l4 65 66 19 c37 11 66 24 66 32
0 40 -121 227 -212 325 -89 98 -347 303 -522 416 -189 121 -279 175 -342 203
-72 33 -74 33 -74 23z"/>
<path d="M2857 4513 c-12 -12 -7 -22 19 -39 19 -13 28 -14 37 -5 9 9 6 16 -13
31 -27 21 -33 23 -43 13z"/>
<path d="M3157 4403 c-4 -3 -7 -18 -7 -33 0 -34 -35 -80 -62 -80 -27 0 -18
-24 11 -28 15 -2 34 6 52 24 24 23 29 36 29 76 0 45 -7 57 -23 41z"/>
<path d="M3205 4158 c-73 -161 -84 -184 -148 -328 -36 -80 -76 -172 -90 -205
-14 -33 -42 -89 -62 -125 -20 -36 -57 -105 -82 -155 -25 -49 -65 -122 -88
-160 -45 -74 -222 -418 -268 -519 -20 -45 -24 -63 -15 -73 7 -9 7 -13 0 -13
-26 0 -156 -309 -138 -327 13 -14 33 9 50 58 15 44 103 246 112 257 1 2 17 -3
36 -12 101 -46 173 -68 261 -81 26 -4 50 -11 53 -16 3 -5 10 -7 15 -4 5 4 9
-10 9 -29 0 -19 4 -57 9 -83 6 -26 12 -88 15 -138 6 -82 21 -129 33 -98 2 7 4
15 3 18 -1 6 142 82 148 79 2 -1 -4 -16 -13 -34 -19 -37 -56 -146 -84 -250
-37 -142 -44 -237 -37 -527 7 -268 7 -272 -14 -293 -43 -43 -30 -45 281 -48
l294 -2 23 82 c32 118 47 217 33 231 -15 15 -20 7 -32 -59 -21 -115 -56 -219
-73 -218 -9 0 -121 2 -248 3 -223 2 -232 3 -208 19 13 9 49 43 80 74 l55 57
90 -13 c57 -9 94 -10 100 -4 18 16 -22 35 -90 43 l-64 7 22 30 c22 29 23 30
85 23 51 -5 62 -4 62 8 0 17 -21 27 -58 27 -48 0 -55 11 -39 59 9 24 11 44 5
47 -5 3 -69 5 -143 5 -133 -1 -135 -1 -135 21 0 12 5 85 11 162 11 148 35 260
94 441 19 59 34 111 32 117 -3 16 138 69 243 90 106 22 223 20 319 -6 119 -33
228 -143 263 -264 16 -55 19 -93 16 -212 -7 -347 0 -408 57 -520 43 -84 140
-152 251 -175 81 -17 325 -31 376 -21 19 3 44 15 56 27 20 18 22 29 22 138 0
131 -7 184 -24 178 -6 -2 -12 -18 -14 -36 l-3 -33 -162 3 c-189 5 -226 17
-262 86 -20 37 -22 61 -28 294 -6 234 -9 262 -32 344 -15 49 -40 116 -57 148
-68 127 -233 237 -413 277 -107 23 -294 26 -397 6 -72 -14 -81 -9 -54 29 7 11
24 38 36 59 12 22 54 84 93 139 40 55 83 116 96 136 13 20 35 49 47 64 26 32
31 57 11 57 -20 0 -202 -249 -302 -412 l-60 -99 -85 -35 c-47 -19 -106 -47
-132 -64 -26 -16 -49 -26 -52 -22 -2 4 -7 26 -11 50 -6 40 -4 47 32 90 60 72
174 247 227 347 26 49 51 94 56 100 4 5 42 75 82 155 41 80 125 243 186 363
100 195 122 250 91 231 -5 -3 -22 -31 -38 -62 -16 -31 -50 -92 -76 -136 -25
-43 -91 -168 -145 -277 -162 -323 -331 -606 -440 -737 -18 -21 -20 -22 -62 -8
-24 8 -61 18 -83 22 -46 8 -213 72 -233 89 -6 5 80 180 141 287 173 304 348
641 427 818 28 63 60 133 70 155 23 47 93 214 126 303 36 95 5 80 -41 -20z
m-15 -2730 c0 -19 -25 -58 -37 -58 -7 0 -13 -11 -13 -25 0 -19 -23 -49 -83
-111 l-84 -85 -6 124 c-4 68 -9 131 -12 140 -4 10 0 16 11 19 36 6 224 4 224
-4z"/>
<path d="M5630 2548 c0 -57 9 -88 26 -88 10 0 14 14 14 49 0 59 -7 81 -26 81
-10 0 -14 -13 -14 -42z"/>
<path d="M5256 2502 c-7 -12 10 -73 28 -97 10 -14 18 -17 25 -10 8 8 5 26 -8
60 -18 48 -34 65 -45 47z"/>
<path d="M6077 2462 c-15 -16 -27 -33 -27 -39 0 -25 18 -21 49 11 26 27 29 35
18 44 -11 9 -19 6 -40 -16z"/>
<path d="M4947 2314 c-9 -9 30 -61 59 -81 17 -11 28 -13 35 -6 7 7 -3 24 -29
52 -37 40 -52 48 -65 35z"/>
<path d="M6294 2187 c-26 -27 -22 -52 6 -37 29 15 51 41 45 51 -10 15 -28 9
-51 -14z"/>
<path d="M2750 2193 c0 -42 51 -143 72 -143 21 0 -33 144 -56 148 -9 2 -16 -1
-16 -5z"/>
<path d="M5516 2169 c-274 -40 -508 -180 -718 -431 -55 -66 -128 -181 -128
-202 0 -21 27 7 98 103 85 114 235 261 325 319 132 85 275 142 421 167 149 26
350 -4 501 -76 146 -69 292 -229 351 -385 22 -59 25 -84 26 -188 0 -122 -12
-200 -51 -321 l-19 -60 -261 -3 -261 -2 46 42 c65 60 88 109 89 188 0 115 -72
209 -189 245 -55 17 -133 20 -156 5 -23 -14 -9 -20 71 -29 80 -10 109 -18 109
-32 0 -5 8 -9 18 -9 24 0 42 -19 35 -36 -3 -8 1 -14 11 -14 29 0 69 -111 46
-125 -9 -6 -9 -10 1 -15 20 -13 -5 -80 -47 -128 -53 -61 -113 -87 -204 -86
-51 0 -86 5 -109 17 -19 9 -40 17 -46 17 -7 0 -36 21 -64 46 -35 32 -54 58
-62 86 -12 47 -4 133 17 165 20 32 100 84 118 77 12 -4 15 -2 11 9 -4 10 2 17
19 21 33 8 34 26 1 26 -46 0 -160 -71 -192 -119 -25 -39 -34 -134 -17 -191 17
-56 43 -92 97 -131 l40 -29 -289 -1 c-297 0 -454 -6 -463 -15 -3 -3 1 -9 9
-15 18 -11 1735 -8 1746 3 12 13 1 17 -49 20 -26 2 -47 4 -47 6 0 1 9 21 21
43 58 115 83 410 45 538 -26 86 -103 201 -193 288 -172 166 -450 249 -707 212z"/>
<path d="M2654 2133 c4 -15 16 -48 27 -72 15 -34 22 -42 31 -33 17 17 -22 126
-47 130 -15 3 -17 -1 -11 -25z"/>
<path d="M2550 2122 c0 -56 46 -137 70 -122 10 6 9 15 -7 43 -12 19 -24 49
-28 66 -7 33 -35 44 -35 13z"/>
<path d="M5205 1850 c-7 -11 70 -129 90 -137 30 -11 37 9 12 36 -14 14 -32 40
-41 58 -18 36 -51 59 -61 43z"/>
<path d="M1400 1820 c-79 -43 -220 -99 -300 -120 -150 -38 -190 -51 -190 -61
0 -15 47 -10 158 17 166 41 373 132 380 168 4 21 -5 20 -48 -4z"/>
<path d="M5088 1754 c-8 -8 71 -123 92 -134 28 -15 36 7 13 33 -11 12 -31 41
-46 65 -25 38 -45 51 -59 36z"/>
<path d="M1351 1656 c-28 -19 -82 -51 -121 -72 -64 -35 -90 -64 -56 -64 34 0
255 136 256 158 0 21 -26 14 -79 -22z"/>
<path d="M4976 1661 c-8 -12 68 -126 89 -135 38 -14 33 6 -18 78 -44 61 -61
75 -71 57z"/>
<path d="M1509 1537 c-111 -101 -246 -344 -211 -379 8 -8 13 -6 18 8 17 47 87
184 119 229 19 28 59 78 89 111 48 54 59 75 37 74 -3 -1 -27 -20 -52 -43z"/>
<path d="M5580 1510 c0 -5 5 -10 10 -10 6 0 10 5 10 10 0 6 -4 10 -10 10 -5 0
-10 -4 -10 -10z"/>
<path d="M993 1489 c-20 -6 -33 -16 -33 -25 0 -13 7 -15 37 -9 48 9 75 23 68
36 -7 11 -29 10 -72 -2z"/>
<path d="M3646 1405 c4 -49 8 -141 9 -204 0 -78 4 -116 12 -118 6 -2 14 6 18
17 10 31 10 191 1 278 l-8 72 33 0 c84 1 180 8 186 14 17 17 -22 24 -136 28
l-124 3 9 -90z"/>
<path d="M5630 1460 c0 -5 5 -10 11 -10 5 0 7 5 4 10 -3 6 -8 10 -11 10 -2 0
-4 -4 -4 -10z"/>
<path d="M5725 1460 c4 -6 11 -8 16 -5 14 9 11 15 -7 15 -8 0 -12 -5 -9 -10z"/>
<path d="M5612 1417 c-14 -16 -6 -27 18 -27 29 0 70 -39 70 -66 0 -77 -89
-104 -152 -47 -28 25 -23 67 12 96 52 45 33 64 -28 27 -41 -25 -56 -58 -48
-104 11 -59 96 -106 168 -92 88 16 125 125 63 185 -36 35 -86 48 -103 28z"/>
<path d="M1173 1361 c-60 -51 -83 -78 -83 -97 0 -16 34 5 85 53 33 30 70 62
82 70 23 15 22 33 -1 33 -7 0 -44 -27 -83 -59z"/>
<path d="M5390 1410 c0 -5 5 -10 11 -10 5 0 7 5 4 10 -3 6 -8 10 -11 10 -2 0
-4 -4 -4 -10z"/>
<path d="M5480 1410 c0 -5 5 -10 10 -10 6 0 10 5 10 10 0 6 -4 10 -10 10 -5 0
-10 -4 -10 -10z"/>
<path d="M5386 1321 c-4 -5 -2 -12 3 -15 5 -4 12 -2 15 3 4 5 2 12 -3 15 -5 4
-12 2 -15 -3z"/>
<path d="M5430 1260 c0 -5 5 -10 10 -10 6 0 10 5 10 10 0 6 -4 10 -10 10 -5 0
-10 -4 -10 -10z"/>
<path d="M5380 1220 c0 -5 5 -10 10 -10 6 0 10 5 10 10 0 6 -4 10 -10 10 -5 0
-10 -4 -10 -10z"/>
<path d="M5480 1220 c0 -5 5 -10 10 -10 6 0 10 5 10 10 0 6 -4 10 -10 10 -5 0
-10 -4 -10 -10z"/>
<path d="M5630 1170 c0 -5 5 -10 10 -10 6 0 10 5 10 10 0 6 -4 10 -10 10 -5 0
-10 -4 -10 -10z"/>
<path d="M5725 1170 c-3 -5 -1 -10 4 -10 6 0 11 5 11 10 0 6 -2 10 -4 10 -3 0
-8 -4 -11 -10z"/>
<path d="M5580 1119 c0 -5 5 -7 10 -4 6 3 10 8 10 11 0 2 -4 4 -10 4 -5 0 -10
-5 -10 -11z"/>
<path d="M5680 1119 c0 -5 5 -7 10 -4 6 3 10 8 10 11 0 2 -4 4 -10 4 -5 0 -10
-5 -10 -11z"/>
</g>
</svg>
