<?xml version="1.0" standalone="no"?>
<!DOCTYPE svg PUBLIC "-//W3C//DTD SVG 20010904//EN"
 "http://www.w3.org/TR/2001/REC-SVG-20010904/DTD/svg10.dtd">
<svg version="1.0" xmlns="http://www.w3.org/2000/svg"
 width="736.000000pt" height="736.000000pt" viewBox="0 0 736.000000 736.000000"
 preserveAspectRatio="xMidYMid meet">

<g transform="translate(0.000000,736.000000) scale(0.100000,-0.100000)"
fill="#000000" stroke="none">
<path d="M3318 6173 c-14 -10 -47 -36 -73 -57 -26 -23 -62 -42 -83 -46 l-37
-7 28 -11 c36 -15 76 1 132 51 61 55 104 59 203 15 36 -16 57 -19 105 -14 58
6 61 5 98 -29 22 -19 49 -35 62 -35 12 0 47 18 77 41 53 40 57 41 119 37 57
-4 67 -8 92 -36 26 -29 29 -40 29 -97 0 -75 -27 -222 -64 -349 -33 -113 -51
-217 -42 -250 8 -31 26 -35 26 -6 0 40 32 176 66 280 40 121 67 282 59 348
-12 98 -62 145 -164 150 -73 4 -126 -14 -165 -57 -26 -29 -37 -27 -76 14 -34
35 -35 35 -115 33 -60 -1 -88 3 -114 16 -51 27 -130 31 -163 9z"/>
<path d="M4617 6133 c-4 -3 -7 -16 -7 -27 0 -12 -9 -41 -21 -65 -11 -25 -17
-51 -14 -59 14 -37 75 72 75 135 0 22 -19 31 -33 16z"/>
<path d="M4364 6124 c-10 -4 -9 -39 2 -91 2 -13 12 -23 20 -23 14 0 16 9 12
51 -5 51 -15 70 -34 63z"/>
<path d="M4810 5901 c-54 -29 -72 -52 -50 -66 6 -4 19 0 29 9 10 9 22 16 27
16 5 0 23 11 39 24 21 17 27 28 20 35 -8 7 -27 2 -65 -18z"/>
<path d="M3755 5768 c-28 -25 -56 -93 -48 -115 9 -23 24 -10 39 32 17 51 39
67 89 63 34 -3 43 -8 56 -36 13 -26 15 -41 7 -72 -11 -40 -65 -100 -92 -100
-8 0 -19 -7 -26 -15 -22 -27 16 -29 67 -4 59 30 84 64 90 123 10 87 -36 146
-113 146 -30 0 -51 -7 -69 -22z"/>
<path d="M4343 5770 c-29 -12 -70 -76 -180 -285 -127 -241 -233 -491 -218
-515 4 -7 0 -10 -11 -8 -11 2 -20 -4 -22 -13 -2 -13 8 -18 48 -23 29 -4 59
-11 68 -16 20 -10 136 -50 146 -50 3 0 6 6 6 14 0 15 -75 56 -103 56 -9 0 -17
2 -17 3 0 4 100 185 167 302 22 39 84 155 137 259 105 205 109 220 60 264 -27
23 -45 26 -81 12z"/>
<path d="M3395 5609 c-4 -5 -1 -58 6 -116 18 -156 51 -184 156 -132 51 26 74
58 32 45 -69 -21 -121 -28 -131 -18 -6 6 -17 59 -24 119 -7 59 -13 109 -13
111 -2 6 -21 1 -26 -9z"/>
<path d="M4790 5580 c-25 -15 -4 -33 38 -32 115 2 112 1 112 21 0 18 -7 20
-69 19 -38 0 -74 -4 -81 -8z"/>
<path d="M3547 5534 c-11 -11 5 -34 24 -34 22 0 24 11 7 28 -13 13 -22 15 -31
6z"/>
<path d="M3190 5498 c1 -21 52 -103 106 -171 l51 -63 -67 0 c-130 -2 -251 -81
-334 -220 -75 -124 -125 -268 -160 -460 -9 -49 -23 -116 -31 -149 -34 -142
-45 -221 -45 -322 0 -218 62 -335 210 -393 141 -55 373 10 558 157 23 19 42
30 42 25 0 -4 -66 -172 -146 -373 -80 -200 -173 -436 -206 -524 -74 -196 -193
-462 -250 -562 -61 -107 -138 -196 -190 -221 -40 -19 -50 -20 -138 -10 -111
12 -186 0 -217 -35 -26 -28 -133 -223 -133 -241 0 -32 -169 -155 -316 -232
-46 -24 -126 -57 -179 -75 -53 -17 -109 -42 -124 -55 -33 -28 -47 -70 -30 -90
15 -18 29 -9 29 20 0 32 27 53 90 70 112 29 256 98 397 190 78 51 153 117 153
134 0 7 6 15 14 18 13 5 415 -109 731 -208 211 -66 259 -78 265 -69 18 30 210
-47 310 -124 25 -19 57 -44 73 -56 15 -11 34 -34 43 -50 17 -34 8 -61 -35 -96
-31 -25 -22 -41 16 -27 35 12 73 68 73 107 0 34 -57 94 -156 163 -120 85 -185
114 -257 117 l-67 2 0 127 c0 70 -4 138 -10 153 -6 16 -43 46 -102 85 -132 84
-136 87 -143 118 -5 27 52 184 239 657 20 50 62 164 95 255 33 91 87 237 121
325 83 214 185 490 200 542 l13 42 51 -28 c28 -15 71 -34 96 -41 25 -7 72 -25
105 -41 53 -24 176 -55 300 -75 38 -6 33 -8 -92 -44 -127 -37 -375 -75 -419
-64 -25 6 -49 -10 -39 -26 13 -21 273 0 405 33 81 21 254 78 265 88 5 5 34 9
65 9 172 0 307 64 391 186 37 54 62 146 53 199 -21 142 -206 604 -312 783 -51
86 -131 175 -172 192 -48 20 -45 6 11 -46 85 -81 135 -163 215 -351 24 -57 65
-151 90 -210 78 -186 124 -332 124 -399 0 -75 -33 -146 -94 -202 -141 -130
-364 -146 -776 -54 -22 4 -20 6 16 13 46 8 138 59 165 92 11 12 35 55 56 94
43 88 56 193 30 255 -8 20 -13 38 -11 41 2 2 30 0 61 -4 108 -15 262 -19 269
-8 3 6 2 14 -2 19 -9 8 -32 10 -259 26 -75 5 -106 11 -124 25 -45 36 -59 10
-16 -31 81 -76 68 -256 -29 -383 -37 -48 -119 -87 -184 -87 -63 0 -139 23
-202 61 -85 51 -72 55 -251 -82 -155 -119 -286 -172 -419 -172 -100 1 -148 17
-203 71 -79 76 -102 161 -94 336 3 67 15 159 26 206 11 47 26 110 32 140 59
282 94 392 162 505 64 104 108 151 178 190 49 26 63 29 151 30 95 0 97 -1 130
-31 61 -58 227 -142 252 -127 50 30 166 127 166 140 0 20 -11 15 -99 -46 -41
-28 -81 -51 -89 -51 -8 0 -51 19 -95 42 -64 33 -104 64 -183 143 -55 55 -118
126 -139 158 -37 55 -55 70 -55 45z"/>
<path d="M3330 5495 c0 -18 24 -30 40 -20 8 5 8 11 -1 21 -15 19 -39 18 -39
-1z"/>
<path d="M3635 5348 c-9 -40 -22 -57 -52 -69 -27 -10 -31 -39 -6 -39 35 0 81
43 92 87 14 54 14 53 -8 53 -14 0 -21 -10 -26 -32z"/>
<path d="M3874 5056 c-85 -27 -264 -164 -264 -202 0 -28 18 -21 61 22 53 55
142 115 215 145 30 13 54 29 54 36 0 16 -12 16 -66 -1z"/>
<path d="M3945 4842 c-54 -11 -30 -37 36 -41 21 -1 69 -13 109 -26 67 -23 90
-25 90 -7 0 14 -62 41 -127 57 -38 9 -72 18 -78 19 -5 1 -19 0 -30 -2z"/>
<path d="M3517 4752 c-40 -37 -163 -150 -274 -250 -179 -162 -225 -212 -195
-212 19 0 182 140 387 333 34 31 65 57 68 57 4 0 2 -12 -3 -26 -25 -64 -4
-154 43 -183 58 -36 161 -53 245 -41 41 5 78 13 84 16 5 4 24 -7 41 -24 91
-87 149 -128 167 -117 10 6 -113 135 -129 135 -5 0 -18 12 -29 26 -18 25 -20
26 -57 14 -25 -8 -74 -11 -144 -8 -149 6 -191 31 -191 112 0 62 21 134 51 175
16 23 29 45 29 51 0 22 -24 7 -93 -58z"/>
<path d="M3900 4707 c0 -9 38 -24 108 -41 127 -33 134 -34 139 -20 4 12 -43
33 -128 58 -69 20 -119 21 -119 3z"/>
<path d="M3900 4586 c0 -14 94 -60 147 -71 59 -12 53 27 -7 41 -14 3 -44 14
-67 25 -50 22 -73 24 -73 5z"/>
<path d="M3774 4369 c-8 -13 7 -25 110 -96 41 -28 64 -38 71 -32 11 11 -15 36
-97 96 -55 40 -74 48 -84 32z"/>
<path d="M3721 4266 c-10 -12 2 -24 65 -65 48 -32 81 -48 87 -42 14 14 4 25
-61 68 -80 55 -78 54 -91 39z"/>
<path d="M3685 4150 c-3 -5 -4 -14 -1 -18 9 -16 115 -64 125 -57 20 12 11 25
-34 46 -25 12 -48 25 -51 30 -7 12 -31 11 -39 -1z"/>
<path d="M4459 3743 c5 -16 24 -59 43 -98 101 -202 227 -534 267 -702 101
-422 134 -671 130 -989 l-2 -194 -434 0 c-405 0 -433 1 -434 18 -1 9 -2 55 -4
102 -7 190 -15 369 -21 427 -5 47 -3 69 8 85 44 67 113 321 129 470 21 199
-18 466 -88 601 -32 62 -43 43 -19 -31 9 -26 27 -99 42 -162 21 -97 26 -141
26 -280 1 -176 -2 -199 -59 -394 -60 -209 -173 -400 -365 -619 -61 -70 -82
-107 -60 -107 25 0 261 276 311 363 18 32 35 57 37 55 2 -2 5 -67 8 -143 3
-77 8 -197 12 -267 7 -126 7 -128 -15 -128 -11 0 -21 -4 -21 -9 0 -17 40 -23
128 -19 l87 3 5 -180 c5 -165 7 -183 28 -217 12 -20 28 -38 35 -41 7 -3 65
-12 128 -21 63 -9 139 -21 169 -26 30 -5 86 -13 124 -16 57 -6 68 -5 64 7 -6
17 -121 42 -309 68 -75 10 -146 24 -157 30 -32 17 -41 71 -41 239 l0 152 62 1
c34 1 112 1 172 1 l110 0 18 -34 c34 -60 68 -98 100 -111 41 -18 198 -53 311
-72 57 -9 100 -22 118 -35 33 -24 53 -19 38 11 -11 19 -7 19 122 18 308 -3
398 0 398 15 0 9 -22 15 -75 20 -42 4 -80 4 -85 1 -6 -3 -10 -4 -10 -1 0 6 33
121 68 236 11 36 30 110 41 165 12 55 30 141 41 190 61 272 90 411 105 510 9
61 21 122 27 137 34 89 -135 137 -482 138 l-115 0 -125 -70 c-68 -39 -133 -78
-144 -88 -18 -16 -19 -16 -13 8 4 14 11 90 17 170 15 231 45 306 149 372 53
33 90 35 149 8 61 -28 81 -77 82 -197 0 -98 13 -154 31 -136 17 17 7 261 -11
297 -44 86 -158 120 -253 76 -125 -59 -187 -198 -188 -420 0 -47 -4 -101 -8
-120 -7 -33 -8 -31 -25 45 -48 209 -142 481 -231 662 -36 72 -65 134 -65 138
0 13 -70 115 -79 115 -6 0 -6 -11 -2 -27z m1261 -1035 c0 -7 -4 -29 -10 -48
-10 -35 -34 -158 -51 -260 -5 -30 -22 -109 -38 -175 -16 -66 -44 -183 -61
-260 -33 -151 -37 -166 -78 -326 l-27 -106 -135 1 c-74 0 -157 -1 -185 -2 -46
-3 -142 12 -323 52 -111 25 -150 44 -184 90 l-30 41 64 8 c35 4 100 6 146 4
105 -6 119 -2 120 31 0 15 4 125 8 245 5 150 3 246 -5 310 -20 154 -41 290
-50 330 l-9 38 101 -8 c226 -18 609 0 696 32 48 17 51 17 51 3z"/>
<path d="M3038 3638 c-13 -38 33 -156 87 -223 77 -94 94 -110 106 -98 8 8 -2
28 -44 80 -60 75 -103 153 -115 210 -8 37 -27 54 -34 31z"/>
<path d="M2396 3455 c-186 -76 -312 -238 -323 -416 -3 -43 -1 -84 5 -94 8 -15
0 -31 -36 -79 -73 -99 -172 -324 -187 -430 -14 -88 16 -47 65 90 52 144 75
193 130 274 56 83 61 86 107 57 62 -39 112 -51 204 -50 91 1 139 16 196 59 84
64 99 203 28 250 -20 13 -45 17 -103 16 -102 -3 -182 -32 -283 -104 -89 -64
-96 -63 -86 21 10 82 72 198 145 270 62 61 157 116 235 135 15 3 27 11 27 16
0 18 -64 10 -124 -15z m174 -385 c43 -43 7 -143 -68 -187 -86 -50 -260 -42
-330 17 l-23 19 43 41 c47 45 156 105 216 119 70 17 140 13 162 -9z"/>
<path d="M4110 2013 c-68 -4 -87 -10 -74 -23 7 -7 166 -10 424 -10 389 0 450
3 427 27 -7 7 -678 12 -777 6z"/>
<path d="M2037 1615 c-176 -115 -221 -135 -304 -135 -43 0 -66 -16 -43 -30 7
-5 29 -6 49 -2 l36 5 -48 -52 c-26 -29 -47 -59 -47 -67 0 -19 29 -18 37 2 6
16 167 140 224 172 120 67 219 146 204 161 -7 7 -41 -10 -108 -54z"/>
<path d="M2324 1590 c-4 -37 -11 -60 -19 -60 -6 0 -27 -11 -46 -25 -172 -128
-329 -204 -421 -205 -39 0 -51 -13 -22 -24 73 -28 256 44 411 160 l85 65 -6
-64 c-10 -88 18 -161 81 -217 41 -36 83 -52 83 -32 0 4 -15 21 -33 38 -18 17
-46 51 -62 74 -33 48 -34 61 -20 243 7 95 6 107 -8 107 -12 0 -18 -14 -23 -60z"/>
<path d="M2695 1598 c11 -36 95 -208 124 -254 50 -78 108 -134 138 -134 22 0
15 14 -43 75 -39 43 -74 98 -123 195 -43 84 -75 136 -86 138 -14 3 -16 -1 -10
-20z"/>
<path d="M2529 1583 c-13 -105 22 -225 90 -310 25 -32 51 -44 51 -23 0 5 -19
40 -42 77 -35 56 -45 84 -58 162 -9 54 -21 96 -28 99 -6 2 -12 0 -13 -5z"/>
<path d="M4979 1450 c-11 -7 -11 -12 2 -27 8 -10 21 -31 28 -47 11 -26 14 -27
27 -14 13 13 13 18 0 50 -17 39 -35 51 -57 38z"/>
<path d="M3014 1417 c-3 -8 10 -48 29 -88 19 -41 37 -82 41 -91 8 -26 23 -22
28 7 3 14 -3 41 -13 60 -27 50 -23 59 14 33 80 -57 123 -77 198 -91 61 -11
119 -2 127 21 2 8 -11 12 -45 12 -79 0 -157 24 -235 72 -115 71 -137 81 -144
65z"/>
<path d="M3325 1409 c-10 -16 2 -24 70 -47 82 -28 110 -31 110 -12 0 9 -24 24
-65 38 -86 30 -107 34 -115 21z"/>
<path d="M4894 1407 c-3 -9 4 -25 15 -36 12 -12 21 -28 21 -36 0 -19 26 -20
33 -1 6 16 -31 77 -50 84 -7 2 -16 -3 -19 -11z"/>
<path d="M4790 1367 c0 -7 9 -18 20 -25 12 -7 25 -24 30 -37 11 -30 26 -32 33
-6 5 19 -15 58 -37 73 -17 12 -46 9 -46 -5z"/>
<path d="M4700 1315 c0 -8 6 -15 13 -15 7 0 23 -9 35 -20 23 -21 52 -27 52
-10 0 6 -12 22 -26 35 -30 28 -74 34 -74 10z"/>
</g>
</svg>
