<?xml version="1.0" standalone="no"?>
<!DOCTYPE svg PUBLIC "-//W3C//DTD SVG 20010904//EN"
 "http://www.w3.org/TR/2001/REC-SVG-20010904/DTD/svg10.dtd">
<svg version="1.0" xmlns="http://www.w3.org/2000/svg"
 width="1520.000000pt" height="774.000000pt" viewBox="0 0 1520.000000 774.000000"
 preserveAspectRatio="xMidYMid meet">
<metadata>
Created by potrace 1.16, written by Peter Selinger 2001-2019
</metadata>
<g transform="translate(0.000000,774.000000) scale(0.100000,-0.100000)"
fill="currentColor" stroke="none">
<path d="M8000 7493 c-87 -14 -259 -91 -374 -168 -118 -78 -306 -263 -306
-301 0 -7 -12 -16 -27 -20 -192 -40 -423 -268 -423 -415 0 -27 -11 -54 -40
-97 -22 -33 -59 -100 -83 -149 -96 -196 -107 -250 -114 -543 -6 -273 -4 -267
-103 -365 -70 -70 -70 -70 -98 -52 -136 88 -291 141 -400 136 -98 -5 -146 -37
-242 -159 -100 -128 -186 -180 -415 -250 -22 -7 -53 -19 -69 -27 -25 -13 -46
-13 -173 2 -462 55 -849 -34 -1040 -239 -173 -185 -248 -457 -247 -896 1 -446
64 -765 206 -1045 40 -79 40 -79 19 -145 -42 -129 -44 -160 -45 -880 -1 -764
2 -839 41 -878 25 -24 25 -24 416 -19 473 7 686 25 784 67 69 30 74 83 37 377
-49 391 -58 573 -28 573 9 0 27 -9 41 -20 62 -48 233 -87 343 -76 36 3 110 18
165 32 184 48 378 5 592 -132 69 -44 126 -58 366 -89 46 -6 47 -7 47 -41 0
-34 0 -34 -577 -35 -318 -1 -620 -4 -672 -8 -120 -8 -112 15 -118 -353 -5
-287 -5 -287 22 -294 37 -9 1829 3 2299 15 424 12 410 9 420 93 12 93 9 423
-3 447 -12 21 -12 21 -609 22 -609 1 -702 4 -710 27 -3 9 147 12 730 12 651
-1 730 -2 706 -16 -46 -24 -60 -91 -65 -309 -7 -272 -14 -259 138 -266 194
-11 2622 -10 2632 0 19 19 27 95 32 295 3 116 9 214 14 219 5 5 21 7 35 3 25
-6 26 -8 19 -64 -13 -98 -10 -449 4 -463 9 -9 313 -9 1335 -1 1306 11 1323 12
1339 32 34 41 53 303 29 391 -18 63 -34 70 -177 80 -169 11 -754 27 -1403 39
-822 15 -1060 22 -1060 31 0 20 1168 3 2225 -31 370 -12 455 -18 460 -33 6
-19 24 -300 27 -429 l3 -118 -460 -5 c-487 -5 -761 -17 -793 -34 -25 -13 -32
-51 -32 -176 0 -134 9 -194 30 -205 24 -13 952 -34 1124 -25 110 5 150 11 162
22 12 13 15 46 14 186 -1 110 2 173 9 175 18 6 26 -69 24 -218 -2 -228 65
-205 -551 -195 -290 4 -599 10 -687 14 l-160 6 -6 155 c-6 166 -19 234 -47
249 -34 18 -674 38 -1992 62 -366 7 -686 9 -712 5 -63 -9 -73 -38 -73 -206 0
-137 11 -171 60 -190 24 -9 379 -29 875 -50 355 -15 366 -16 145 -18 -255 -3
-1068 17 -1076 26 -4 4 -15 67 -24 141 -21 173 -40 270 -55 285 -25 25 -2459
15 -2633 -10 -49 -8 -55 -22 -69 -183 -13 -148 -7 -199 25 -206 27 -6 885 -30
1607 -46 289 -6 552 -14 585 -19 67 -8 -1688 -1 -2048 9 l-229 6 -1 155 c-2
164 -13 206 -57 230 -41 22 -359 31 -1250 36 -997 6 -1340 -1 -1369 -31 -13
-13 -16 -42 -16 -178 0 -225 -10 -213 187 -221 232 -9 1419 -26 1804 -26 382
0 646 -9 638 -22 -8 -13 -2702 -10 -2706 3 -2 7 2 46 10 88 23 131 20 308 -6
357 -11 23 -28 44 -37 48 -61 23 -296 30 -990 30 -908 0 -1385 -19 -1423 -58
-36 -36 -35 -362 1 -448 15 -35 15 -35 113 -41 55 -4 588 -10 1187 -14 598 -3
1087 -9 1087 -13 0 -40 -1614 -36 -2435 5 -477 24 -598 34 -782 66 -343 59
-559 -24 -627 -239 -15 -47 28 -24 48 26 27 65 102 135 173 163 80 30 255 37
386 15 176 -30 514 -57 962 -77 294 -13 2045 -23 2190 -12 107 8 110 9 123 35
13 28 13 28 1388 28 1374 0 1374 0 1386 26 12 26 12 26 638 20 1537 -15 2198
-13 2213 8 13 18 26 19 118 17 1199 -27 2528 -44 2629 -34 47 4 184 5 305 2
467 -14 1170 -20 1183 -11 19 13 32 114 32 261 0 153 -11 203 -52 232 -27 20
-28 23 -28 117 -1 117 -25 450 -35 474 -4 10 -14 19 -23 22 -72 21 -2595 79
-2686 62 -26 -5 -40 -15 -48 -32 -16 -33 -88 -35 -110 -2 -14 20 -26 22 -164
29 -179 10 -2473 29 -3367 29 -638 0 -638 0 -635 33 2 24 7 32 22 30 263 -22
598 -28 1616 -28 1264 0 1163 -6 1198 73 24 55 20 240 -7 362 -11 52 -21 98
-21 102 0 5 30 8 66 6 67 -3 67 -3 65 -113 -2 -139 15 -355 28 -368 31 -31
2373 -105 2526 -80 74 12 79 31 72 309 l-6 221 367 7 c382 8 458 14 473 37 49
76 42 632 -9 739 -17 34 -19 35 -92 43 -41 4 -363 5 -715 1 -744 -7 -1131 -7
-1372 2 -173 6 -173 6 -158 27 8 12 15 29 15 39 0 10 9 20 23 22 48 10 573 28
982 33 443 5 431 6 1010 -42 712 -58 974 -11 1208 215 104 101 156 130 242
137 184 15 451 -139 714 -411 82 -86 81 -85 81 -52 0 53 -308 320 -473 410
-239 130 -410 122 -553 -24 -124 -126 -216 -181 -380 -227 -98 -27 -102 -27
-404 -27 -298 0 -342 3 -770 47 -153 16 -910 14 -1290 -4 -426 -19 -386 -22
-382 26 7 87 20 111 90 172 85 74 154 129 217 175 28 20 59 45 69 57 10 11 40
27 67 36 54 18 81 49 109 123 18 48 21 50 80 77 55 24 74 65 76 160 2 66 7 89
29 130 40 74 32 137 -34 269 -61 122 -59 112 -16 130 44 19 53 40 31 76 -48
83 -5 42 122 -114 229 -283 295 -344 333 -310 31 28 182 349 294 624 12 30 56
136 97 235 42 99 108 261 148 360 95 236 156 385 190 465 92 214 65 432 -56
455 -47 10 -118 -38 -354 -239 -193 -164 -589 -525 -895 -817 -49 -47 -123
-117 -163 -155 -96 -90 -100 -96 -69 -142 22 -33 152 -185 230 -269 29 -31 29
-31 -9 -56 -39 -25 -39 -25 -80 15 -29 28 -44 51 -48 77 -3 24 -18 48 -40 70
-35 34 -108 50 -229 53 -54 1 -138 -112 -115 -156 9 -17 7 -22 -13 -35 -56
-35 -109 -98 -109 -128 0 -26 -5 -31 -38 -41 -73 -22 -143 -119 -103 -144 29
-18 27 -23 -20 -37 -22 -7 -58 -30 -81 -53 -37 -37 -40 -44 -35 -84 3 -35 0
-47 -16 -61 -42 -38 -61 -131 -35 -172 10 -16 0 -36 -72 -142 -134 -200 -149
-244 -108 -328 22 -45 22 -45 -1 -80 -12 -20 -58 -109 -102 -198 l-81 -163
-140 0 c-76 0 -148 -4 -158 -10 -13 -7 -21 -6 -30 5 -7 8 -22 15 -34 15 -28 0
-35 6 -78 65 -54 74 -144 157 -223 207 -102 65 -235 135 -271 142 -23 5 -43
24 -80 74 -161 222 -240 306 -374 395 -243 163 -320 229 -429 370 -118 153
-366 323 -489 336 -57 6 -57 6 10 49 37 23 142 78 233 121 192 92 239 128 308
231 68 103 83 118 152 152 33 17 85 49 115 73 56 43 56 43 115 7 201 -119 431
-201 484 -173 73 39 32 285 -84 511 -45 86 -45 86 6 171 199 330 259 661 174
962 -69 244 -252 440 -550 589 -273 137 -653 216 -865 181z m435 -67 c370 -85
680 -267 841 -492 210 -295 181 -760 -75 -1171 -31 -51 -40 -53 -67 -10 -102
153 -499 548 -719 713 -267 201 -455 302 -455 245 0 -19 15 -31 285 -231 355
-262 520 -421 634 -609 129 -215 186 -269 253 -243 18 6 32 11 33 9 70 -89
155 -334 155 -448 0 -71 -13 -84 -76 -75 -83 11 -418 169 -431 203 -3 6 14 35
36 63 52 65 64 110 51 181 -39 204 -269 487 -550 675 -263 176 -660 402 -834
475 -97 40 -108 38 -315 -62 -79 -38 -146 -69 -149 -69 -15 0 61 67 121 107
168 112 346 114 559 7 103 -52 128 -55 128 -19 0 87 -242 185 -455 185 -180 0
-271 -38 -412 -174 -90 -86 -100 -85 -51 5 62 117 220 244 334 270 49 11 61 9
161 -19 141 -41 293 -74 310 -68 22 9 15 32 -14 46 -113 53 -251 90 -333 90
-60 0 -52 20 43 113 170 168 335 270 522 323 84 23 323 13 470 -20z m-876
-613 c11 -5 -35 -8 -102 -9 -175 -1 -259 -35 -405 -165 -131 -116 -165 -104
-42 15 148 142 238 179 417 171 61 -3 120 -8 132 -12z m183 -67 c31 -13 70
-46 55 -46 -4 0 -28 14 -54 30 -52 33 -52 37 -1 16z m-234 -71 c167 -68 644
-341 847 -484 224 -158 407 -364 475 -535 54 -135 50 -186 -19 -266 -52 -60
-59 -48 -27 47 59 178 30 267 -148 451 -136 140 -346 324 -458 400 -63 43 -87
42 -362 -18 -320 -71 -371 -99 -412 -224 -34 -105 -54 -84 -54 59 -2 360 -73
488 -234 421 -107 -45 -163 -148 -212 -394 -14 -68 -36 -153 -51 -188 -27 -68
-100 -190 -109 -181 -6 6 35 216 80 410 48 203 80 267 158 318 128 82 394 207
444 209 11 0 48 -11 82 -25z m788 -165 c206 -144 465 -380 662 -604 143 -161
189 -225 171 -237 -41 -26 -96 20 -173 146 -136 224 -248 348 -481 533 -71 57
-138 110 -148 118 -9 8 -44 32 -77 55 -59 40 -88 68 -58 57 8 -3 55 -34 104
-68z m-1366 4 c0 -3 -13 -22 -30 -42 -56 -71 -101 -213 -159 -510 -17 -84 -37
-174 -44 -200 -43 -146 81 -56 168 122 35 71 50 121 71 226 48 246 107 355
206 385 125 37 158 -35 173 -374 7 -156 13 -181 49 -181 30 0 49 24 69 84 37
108 85 142 259 181 62 13 165 36 228 50 164 37 196 37 245 0 183 -136 443
-374 536 -490 76 -95 90 -188 49 -319 -15 -47 -20 -82 -16 -107 6 -36 4 -39
-43 -73 -28 -19 -77 -49 -109 -65 -62 -32 -96 -66 -171 -179 -55 -82 -93 -108
-296 -207 -93 -45 -207 -107 -251 -138 -118 -80 -218 -132 -303 -158 -75 -22
-75 -22 -117 1 -73 38 -157 170 -339 528 -126 249 -128 253 -150 231 -39 -38
135 -492 258 -674 76 -111 116 -136 237 -144 47 -3 84 -10 84 -16 -3 -22 -176
-104 -372 -175 -53 -19 -70 -31 -102 -74 -78 -104 -198 -380 -205 -471 -3 -40
-3 -40 -59 -43 -66 -4 -66 -3 -22 51 44 55 73 113 92 188 25 99 13 114 -171
214 -237 129 -326 231 -445 509 -62 147 -97 275 -84 309 2 7 75 78 161 157
175 163 187 177 179 217 -6 25 2 36 59 92 101 98 98 87 106 381 7 274 13 309
70 443 34 80 101 207 132 250 18 23 57 38 57 21z m5895 -268 c34 -34 48 -98
42 -188 -5 -79 -32 -154 -217 -603 -32 -77 -104 -252 -160 -390 -227 -557
-369 -865 -399 -865 -22 0 -113 99 -278 300 -135 165 -145 174 -176 166 -22
-5 -41 12 -158 144 -73 83 -138 158 -143 167 -9 17 26 53 398 401 614 574 986
892 1044 892 13 0 34 -11 47 -24z m-6610 -796 c102 -40 207 -98 202 -113 -2
-6 -75 -74 -162 -152 -208 -184 -222 -202 -206 -256 10 -34 115 -271 241 -544
95 -205 150 -345 186 -469 31 -110 44 -136 97 -194 42 -45 42 -45 -521 -38
-309 4 -569 9 -577 12 -8 3 -17 16 -21 27 -32 107 -305 563 -410 685 -40 47
-77 54 -82 17 -3 -25 51 -209 107 -364 23 -63 40 -115 38 -117 -1 -2 -30 29
-63 69 -67 80 -89 92 -104 52 -25 -65 20 -222 84 -292 43 -48 45 -56 9 -41
-16 7 -85 12 -163 12 -299 1 -451 -98 -641 -416 -97 -163 -133 -296 -104 -382
16 -48 15 -76 -5 -76 -16 0 -85 147 -129 275 -68 202 -111 517 -111 813 0 531
134 857 406 988 227 109 556 148 849 102 83 -13 82 -13 63 -35 -8 -10 -50 -69
-92 -131 -77 -114 -95 -168 -63 -189 6 -4 129 -8 272 -8 235 0 264 -2 298 -19
47 -23 109 -110 162 -224 46 -98 65 -113 106 -83 29 21 29 21 69 1 66 -34 171
-132 276 -257 109 -130 121 -142 147 -143 38 0 15 63 -155 430 -208 446 -226
500 -234 680 -7 154 -17 200 -44 200 -11 0 -61 -34 -112 -76 -172 -140 -278
-178 -428 -156 -68 10 -55 23 60 62 198 68 266 114 365 246 115 152 205 176
390 104z m255 -149 c0 -5 -74 -78 -165 -161 -99 -91 -167 -161 -171 -176 -6
-24 -1 -81 11 -141 11 -51 -22 3 -46 74 -26 80 -28 77 133 220 67 59 143 127
168 150 43 41 70 54 70 34z m-530 -149 c0 -128 19 -238 60 -353 22 -61 44
-117 48 -123 5 -6 20 -40 35 -76 14 -36 47 -110 72 -165 151 -319 193 -423
157 -379 -5 5 -40 47 -79 94 -138 166 -265 266 -325 258 -18 -3 -41 -8 -50
-12 -14 -7 -26 11 -69 97 -110 223 -131 233 -476 229 -291 -3 -281 -12 -168
153 101 147 115 157 203 138 193 -43 313 -4 517 165 33 27 63 48 68 45 4 -2 7
-34 7 -71z m1175 -200 c79 -159 152 -287 216 -374 53 -74 45 -91 -16 -36 -83
72 -177 248 -276 513 -44 117 -11 72 76 -103z m4134 -161 c75 -7 121 -36 121
-77 0 -16 -304 -22 -314 -6 -7 11 39 78 62 91 9 6 26 8 37 5 11 -3 53 -9 94
-13z m234 -233 c155 -155 225 -352 160 -445 -20 -26 -23 -44 -23 -116 0 -92
-26 -147 -70 -147 -28 0 -65 -40 -84 -90 -23 -62 -47 -91 -84 -98 -48 -11
-397 -289 -438 -350 -14 -21 -25 -56 -29 -97 -4 -36 -11 -68 -16 -71 -5 -3
-90 -12 -189 -20 -223 -17 -270 -26 -270 -49 0 -18 31 -35 64 -35 14 0 28 -4
31 -10 4 -6 -41 -10 -129 -10 -84 0 -137 4 -141 11 -7 11 132 298 162 336 18
22 18 22 73 3 113 -40 188 -22 275 65 85 84 186 288 158 316 -17 17 -27 7 -97
-94 -148 -213 -194 -242 -350 -221 -39 6 -50 12 -62 37 -33 63 -16 113 92 277
95 144 87 141 202 82 116 -60 175 -71 180 -35 6 41 -209 162 -264 149 -50 -13
-57 66 -9 118 31 33 43 33 145 -4 106 -39 106 -39 229 -127 149 -106 211 -134
211 -93 0 21 -53 80 -115 130 -139 111 -266 170 -364 170 -73 0 -89 15 -67 58
29 57 79 77 186 77 121 0 152 -15 291 -142 123 -112 143 -124 167 -100 32 33
-51 148 -178 247 -88 69 -120 80 -237 80 -114 0 -124 7 -75 52 39 37 83 48
187 48 152 0 177 -12 291 -138 114 -126 132 -141 161 -142 28 0 40 38 22 72
-18 35 -136 154 -201 203 -98 75 -111 80 -225 80 -110 -1 -120 5 -80 43 46 44
89 53 210 47 63 -4 129 -2 152 3 22 6 46 10 53 11 7 1 50 -36 95 -81z m139 35
c26 -24 22 -40 -14 -52 -50 -18 -94 33 -50 58 25 15 43 13 64 -6z m-3655 -25
c125 -55 332 -216 398 -309 85 -120 196 -216 436 -377 69 -46 130 -97 173
-144 70 -78 216 -268 216 -281 0 -9 -111 -62 -228 -108 -106 -42 -192 -88
-199 -104 -8 -22 -12 -20 -146 45 -86 42 -167 72 -272 100 -212 58 -272 80
-420 150 -273 131 -345 145 -728 142 l-289 -2 138 151 c343 376 451 433 618
331 62 -37 77 -42 130 -42 98 -1 136 -14 177 -59 20 -23 42 -41 48 -41 50 0
-73 381 -149 462 -33 33 -42 38 -83 38 -61 0 -59 10 6 37 59 24 133 29 174 11z
m-114 -120 c36 -43 139 -309 125 -323 -3 -3 -21 1 -40 10 -20 8 -73 17 -119
21 -74 5 -92 11 -150 45 -58 35 -72 39 -133 39 -141 0 -220 -63 -593 -469 -23
-25 -44 -43 -47 -40 -12 12 47 172 109 296 75 150 110 191 186 216 149 51 320
131 368 172 37 32 65 46 103 54 29 6 62 13 73 15 46 10 90 -3 118 -36z m3597
-218 c0 -7 -6 -8 -16 -2 -21 12 -144 154 -144 167 1 13 160 -151 160 -165z
m-6363 60 c119 -169 333 -542 333 -580 0 -6 -33 -10 -82 -10 -226 1 -336 85
-363 278 -10 74 4 67 85 -42 71 -97 96 -117 107 -90 8 23 -7 78 -67 239 -57
154 -90 259 -90 289 0 25 3 21 77 -84z m1528 -149 c61 -35 134 -78 163 -95 32
-19 55 -40 59 -54 13 -54 -53 -206 -116 -266 -68 -65 -165 26 -211 199 -23 88
-61 190 -127 338 -23 53 -43 99 -43 102 0 3 37 -32 83 -78 60 -59 113 -100
192 -146z m4447 140 c67 -44 143 -112 185 -168 40 -52 23 -47 -42 13 -107 98
-159 136 -230 171 -70 33 -70 33 -23 29 35 -2 65 -15 110 -45z m-62 -287 c19
-12 53 -38 75 -58 40 -36 40 -36 -23 6 -191 130 -218 156 -52 52z m-256 -120
c26 -15 45 -28 43 -31 -6 -5 -107 45 -107 52 0 10 19 4 64 -21z m-5726 -180
c83 -17 137 -42 137 -64 0 -8 -31 -21 -80 -35 -209 -57 -350 -176 -454 -383
-89 -176 -118 -457 -57 -553 73 -115 181 -150 585 -189 114 -11 127 -15 111
-35 -52 -63 -407 -108 -562 -71 -138 32 -270 117 -402 257 -102 109 -162 197
-149 218 16 26 24 19 123 -116 125 -170 179 -233 202 -233 27 0 23 31 -18 113
-104 207 -187 316 -249 326 -37 6 -41 9 -49 49 -33 154 199 546 389 658 114
66 313 91 473 58z m277 -30 c69 -7 56 -17 -37 -29 -50 -6 -57 -5 -67 13 -16
30 -14 34 17 28 15 -2 54 -8 87 -12z m1390 -19 c972 -3 938 1 1210 -130 161
-77 256 -112 445 -161 113 -29 165 -50 315 -126 229 -115 231 -117 174 -137
-17 -6 -53 -27 -80 -46 -74 -53 -82 -50 -216 76 -225 212 -252 229 -263 164
-4 -21 -8 -26 -14 -17 -4 7 -26 27 -48 43 -61 43 -106 40 -162 -11 -43 -40
-43 -40 -90 -10 -84 54 -136 32 -136 -58 0 -57 -18 -62 -74 -22 -30 22 -50 30
-64 26 -23 -8 -62 -92 -70 -151 -10 -82 -24 -86 -231 -66 -85 8 -85 8 -166 95
-89 94 -101 99 -155 63 -214 -145 -221 -147 -471 -147 -311 0 -725 -11 -740
-20 -16 -11 -26 -74 -39 -270 -9 -123 -17 -179 -27 -190 -42 -45 -742 4 -938
67 -129 41 -166 114 -165 332 1 231 61 335 243 425 129 62 231 135 259 182 20
33 52 44 190 60 38 4 63 13 75 26 17 20 25 20 208 13 105 -5 568 -9 1030 -10z
m-1545 -84 c0 -20 -129 -105 -237 -157 -161 -77 -214 -148 -249 -332 -26 -136
-1 -355 48 -417 72 -92 504 -163 934 -154 l161 4 12 -93 c14 -119 29 -149 78
-158 159 -30 1671 47 1719 87 39 32 -4 34 -691 34 -738 0 -772 2 -636 45 126
40 141 75 78 174 -31 48 -31 49 -15 90 9 22 24 61 34 86 32 83 1 122 -121 154
-88 24 -267 33 -282 14 -19 -22 -41 -120 -49 -214 -6 -75 -10 -89 -33 -110
-51 -47 -55 -38 -46 114 14 254 11 246 75 253 60 7 731 8 1054 2 209 -4 246
-1 246 21 0 18 -65 26 -203 26 -70 0 -107 4 -101 9 18 19 186 121 198 121 7 0
43 -34 81 -76 85 -95 89 -96 265 -103 144 -6 144 -6 152 -43 4 -21 21 -65 38
-99 38 -73 64 -180 79 -314 24 -215 42 -268 77 -233 21 20 20 126 -2 233 -9
44 -20 99 -24 121 -36 173 -91 338 -121 363 -20 16 -21 20 -9 77 12 56 35 114
45 114 3 0 24 -13 47 -30 72 -53 97 -41 109 49 10 73 21 77 96 36 69 -39 81
-38 118 11 53 69 127 36 230 -104 87 -119 122 -109 59 17 -20 40 -33 75 -30
78 3 3 57 -43 121 -103 211 -199 229 -209 296 -158 19 15 67 42 107 60 39 19
72 40 72 48 0 18 -37 50 -87 75 -46 23 -56 41 -23 41 50 0 240 60 431 135 9 3
21 17 27 31 12 24 12 24 99 -23 187 -99 383 -257 383 -308 0 -13 -54 -15 -402
-15 -236 0 -409 -4 -418 -10 -12 -7 -16 -47 -20 -212 -5 -164 -9 -209 -22
-234 -39 -73 -137 -120 -184 -89 -31 20 -30 26 6 137 34 104 50 250 32 285 -6
11 -24 24 -39 28 -16 3 -67 24 -116 46 -109 49 -147 51 -147 10 0 -26 33 -99
77 -169 22 -36 45 -251 47 -447 1 -180 1 -180 -27 -227 -32 -55 -61 -78 -98
-78 -38 0 -39 8 -50 262 -10 244 -24 340 -62 434 -47 115 -168 274 -208 274
-35 0 -30 -12 82 -210 90 -159 153 -604 101 -709 -36 -73 -94 -88 -129 -34
-15 22 -17 55 -18 217 0 191 0 191 -31 246 -18 30 -47 93 -67 140 -19 47 -45
111 -58 144 -30 74 -57 94 -88 68 -38 -30 -44 -98 -20 -211 70 -327 84 -445
59 -491 -26 -49 -100 -34 -161 31 -36 39 -36 39 -130 39 -249 0 -815 -22 -827
-32 -10 -9 -13 -63 -11 -252 1 -241 1 -241 -57 -238 -137 7 -236 30 -314 72
-151 82 -238 120 -334 144 -126 33 -184 33 -288 -1 -161 -54 -368 -37 -492 38
-125 77 -137 9 -81 -471 38 -332 42 -421 18 -442 -54 -49 -370 -80 -840 -82
-210 -1 -336 3 -342 9 -22 23 -31 240 -31 789 1 856 19 1034 97 916 113 -169
313 -331 478 -386 174 -59 555 -21 648 64 67 62 23 90 -166 103 -351 24 -510
85 -537 204 -50 218 59 542 236 704 89 81 324 184 324 142z m5675 -22 c-26
-49 -87 -111 -130 -130 -63 -29 -75 -22 -19 11 29 16 76 56 104 90 60 68 67
73 45 29z m-1590 -139 c0 -12 -144 -72 -252 -105 -81 -25 -43 2 70 49 61 26
123 53 137 61 28 16 45 14 45 -5z m1673 -317 c-4 -21 -131 -30 -246 -18 -83 9
-75 14 39 24 169 15 211 14 207 -6z m-1158 -85 c70 -4 -140 -16 -312 -17 -234
-1 -218 10 -208 -143 9 -135 31 -175 120 -215 108 -49 465 -26 531 33 17 15
19 32 19 162 0 144 0 144 23 136 12 -5 81 -9 154 -9 125 0 133 1 157 24 25 24
25 24 673 12 356 -6 702 -14 768 -18 l120 -6 -3 -268 c-4 -217 -2 -272 9 -286
28 -32 590 -1 626 35 14 14 15 36 9 152 -11 195 -27 290 -56 309 -31 22 -70
62 -70 72 0 12 901 11 919 0 50 -32 68 -668 21 -715 -24 -24 -791 -39 -830
-16 -22 13 -209 15 -1385 18 -1338 3 -1360 3 -1381 23 -28 26 -345 36 -699 20
-272 -12 -295 -15 -295 -41 0 -25 61 -29 553 -37 383 -6 429 -8 437 -23 40
-74 59 -389 28 -446 -24 -44 -12 -43 -928 -50 -909 -8 -1840 15 -1873 45 -4 4
-8 110 -10 237 -2 272 -66 240 494 250 395 7 395 7 418 -25 29 -40 74 -63 124
-63 119 2 133 105 60 427 -21 93 -37 188 -37 227 -2 119 21 104 84 -57 23 -60
58 -139 78 -175 36 -65 36 -65 41 -273 6 -209 6 -209 39 -238 45 -40 90 -39
137 2 19 17 38 42 41 55 8 32 20 30 29 -3 28 -117 152 -90 214 47 26 58 29
280 5 504 -15 146 -17 153 -60 232 -60 110 -59 112 35 67 31 -14 76 -34 101
-44 45 -17 45 -17 48 -88 2 -56 -3 -90 -28 -168 -50 -161 -37 -213 54 -213 57
0 85 11 132 52 67 59 77 97 82 310 l5 187 136 4 c117 4 578 0 651 -5z m115
-104 c9 -113 2 -204 -17 -216 -72 -46 -391 -63 -479 -25 -72 32 -96 72 -104
182 -4 53 -5 98 -3 101 3 2 130 7 282 12 249 6 278 9 287 25 19 34 27 16 34
-79z m2383 50 c87 -11 26 -24 -111 -24 -167 0 -256 -12 -276 -37 -29 -39 2
-380 38 -416 17 -17 300 -15 368 2 78 19 78 19 78 223 0 127 3 178 11 178 15
0 21 -24 33 -145 22 -215 22 -254 3 -264 -25 -13 -223 -30 -402 -33 -155 -3
-155 -3 -162 57 -8 60 -2 381 8 443 5 33 5 33 187 27 100 -3 201 -8 225 -11z
m-5998 -56 c117 -31 132 -56 85 -149 -36 -69 -34 -105 5 -173 39 -70 36 -75
-66 -112 -76 -28 -104 -48 -104 -74 0 -10 8 -22 18 -26 9 -5 242 -11 517 -14
275 -3 493 -7 485 -8 -137 -22 -1204 -60 -1265 -46 -52 13 -66 42 -73 151 -4
78 -3 85 18 108 42 45 50 34 50 -69 0 -114 4 -126 40 -126 54 0 213 66 274
113 38 31 38 31 34 101 -8 117 -83 276 -129 276 -8 0 -46 -34 -86 -75 -40 -41
-75 -75 -78 -75 -17 0 19 209 39 223 17 12 150 -2 236 -25z m1989 -8 c11 -24
11 -24 -3 -6 -9 11 -16 24 -16 30 0 12 5 7 19 -24z m-3966 -32 c39 -48 137
-204 137 -219 0 -18 -16 -7 -41 29 -14 20 -56 78 -92 129 -37 51 -67 95 -67
98 0 18 34 -2 63 -37z m8032 30 c11 -10 17 -260 8 -308 -12 -64 -34 -72 -213
-78 -184 -6 -184 -6 -199 93 -14 97 -15 272 0 280 29 19 387 30 404 13z
m-6117 -157 c33 -74 55 -171 45 -199 -12 -32 -92 -79 -192 -113 -96 -34 -94
-36 -89 90 4 110 4 110 92 205 52 57 92 93 100 90 8 -3 28 -36 44 -73z m2124
32 c25 -64 51 -229 32 -210 -3 3 -15 48 -25 99 -11 51 -22 103 -26 116 -8 31
5 28 19 -5z m1031 -490 c-13 -2 -35 -2 -50 0 -16 2 -5 4 22 4 28 0 40 -2 28
-4z m3054 -85 c15 -24 17 -457 1 -475 -25 -30 -1215 -6 -2293 48 -135 7 -214
15 -222 22 -12 13 -38 318 -32 372 4 30 4 30 1084 35 594 3 1164 6 1267 8 141
1 189 -1 195 -10z m-5546 -607 c6 -16 20 -32 32 -36 12 -3 309 -9 659 -12
l637 -6 7 -66 c7 -69 -1 -357 -11 -383 -4 -9 -19 -18 -35 -22 -65 -13 -1163
-27 -1875 -24 l-760 3 -3 95 c-5 158 14 461 30 471 7 5 305 9 661 9 648 0 648
0 658 -29z m3287 12 c-26 -2 -71 -2 -100 0 -29 2 -8 3 47 3 55 0 79 -1 53 -3z
m110 0 c-10 -2 -26 -2 -35 0 -10 3 -2 5 17 5 19 0 27 -2 18 -5z m680 -9 c-7
-6 -450 -5 -457 1 -2 3 101 5 229 5 128 0 231 -3 228 -6z m-838 -35 c646 -8
919 -15 929 -23 16 -12 10 -394 -7 -451 -8 -30 -8 -30 -1346 -29 -1235 1
-1339 3 -1354 18 -33 33 -18 408 19 479 12 22 389 23 1759 6z m1980 -29 c919
-17 1630 -40 1696 -55 36 -8 49 -58 48 -180 0 -60 -6 -136 -13 -167 -12 -56
-12 -56 -84 -62 -126 -10 -2542 -25 -2551 -16 -10 10 -3 460 8 478 9 15 186
16 896 2z m-8181 -570 c217 -11 233 -16 250 -77 22 -78 -5 -396 -35 -407 -9
-3 -2323 10 -2342 13 -27 6 -54 275 -38 383 9 57 9 57 166 70 314 25 1624 37
1999 18z m5773 -8 c14 -14 71 -380 62 -394 -3 -5 -117 -6 -252 -3 -1124 26
-2203 54 -2341 61 l-114 6 6 132 c8 190 3 182 134 191 305 21 2485 27 2505 7z
m1483 -7 c704 -15 1189 -31 1310 -43 69 -7 70 -8 82 -42 17 -49 17 -326 1
-332 -7 -3 -119 -1 -248 3 -129 4 -395 13 -590 19 -413 12 -890 31 -1515 60
-348 16 -353 17 -373 54 -19 36 -21 186 -2 254 11 42 11 42 333 42 177 0 628
-7 1002 -15z m2773 -186 c2 -176 2 -176 -44 -183 -123 -16 -1177 3 -1196 22
-16 16 -13 291 3 307 21 21 319 32 809 31 l425 -1 3 -176z m-7403 150 c311
-12 337 -15 356 -43 23 -34 27 -324 4 -332 -37 -15 -2563 22 -2587 37 -10 6
-14 50 -16 163 -3 153 -3 155 20 167 46 26 1638 31 2223 8z"/>
</g>
</svg>
