<?xml version="1.0" standalone="no"?>
<!DOCTYPE svg PUBLIC "-//W3C//DTD SVG 20010904//EN"
 "http://www.w3.org/TR/2001/REC-SVG-20010904/DTD/svg10.dtd">
<svg version="1.0" xmlns="http://www.w3.org/2000/svg"
 width="1384.000000pt" height="1304.000000pt" viewBox="0 0 1384.000000 1304.000000"
 preserveAspectRatio="xMidYMid meet">
<metadata>
Created by potrace 1.16, written by Peter Selinger 2001-2019
</metadata>
<g transform="translate(0.000000,1304.000000) scale(0.100000,-0.100000)"
fill="currentColor" stroke="none">
<path d="M8000 12800 c-113 -10 -168 -26 -200 -60 -22 -24 -38 -30 -91 -35
-527 -54 -977 -409 -1171 -925 -57 -152 -98 -371 -98 -526 0 -61 0 -61 -42
-74 -204 -60 -628 -476 -616 -602 2 -25 12 -39 45 -60 125 -84 392 -201 638
-278 72 -23 144 -48 160 -55 30 -14 30 -14 -20 -15 -27 0 -68 -7 -90 -15 -36
-13 -41 -13 -60 4 -50 45 -132 54 -260 26 -39 -9 -88 -19 -110 -24 -254 -56
-313 -64 -460 -65 -193 -1 -258 15 -433 101 -133 66 -133 66 -250 66 -276 -1
-591 -109 -1427 -488 -717 -325 -857 -370 -1260 -405 -336 -29 -681 -143 -856
-283 -186 -148 -269 -314 -269 -537 0 -144 21 -225 141 -555 46 -126 49 -347
7 -551 -30 -145 -28 -166 18 -259 100 -200 556 -544 845 -637 78 -25 83 -32
34 -48 -125 -41 -222 -187 -261 -393 -18 -92 -15 -437 6 -662 6 -66 15 -187
19 -270 11 -184 27 -241 91 -306 83 -85 123 -94 408 -92 274 2 268 0 297 77
40 109 60 398 34 502 -6 25 -9 47 -6 51 9 9 220 -45 308 -78 123 -47 195 -101
298 -222 102 -119 170 -178 249 -214 61 -29 60 -27 23 -59 -113 -95 -180 -312
-271 -874 -37 -229 -65 -379 -126 -685 -44 -226 -93 -458 -129 -610 -33 -143
-57 -252 -95 -430 -22 -104 -45 -209 -50 -232 -6 -23 -10 -56 -10 -72 0 -31 0
-31 -338 -33 l-337 -3 -3 -786 c-2 -613 -5 -789 -15 -796 -7 -7 -410 -15
-1067 -22 -580 -7 -1058 -15 -1062 -17 -13 -8 -9 -52 4 -56 7 -2 440 2 963 8
523 7 1014 12 1093 13 l142 1 0 795 0 795 2165 0 c2164 0 2164 0 2199 -24 72
-48 170 -45 361 11 226 67 250 73 298 73 99 0 118 -68 78 -276 -20 -101 -44
-268 -57 -384 -4 -36 -11 -68 -17 -72 -6 -3 -1068 -7 -2360 -7 -2350 -2 -2350
-2 -2399 -23 -161 -69 -205 -314 -96 -535 67 -136 206 -233 363 -253 54 -7
1832 -10 5485 -8 5405 3 5405 3 5405 33 0 30 0 30 -5465 35 -5417 5 -5465 5
-5513 25 -65 27 -134 81 -179 140 -116 154 -115 413 2 491 37 24 37 24 2399
27 l2362 2 5 -119 c9 -236 83 -410 199 -466 74 -36 144 2 174 93 10 29 18 36
49 42 20 3 61 17 91 31 71 32 68 34 73 -44 11 -157 97 -206 255 -147 86 33
114 60 154 149 32 71 32 71 98 72 132 1 225 81 319 275 l56 116 450 6 c247 4
1078 7 1847 7 1398 0 1398 0 1403 43 10 72 23 742 15 751 -4 4 -513 4 -1161
-3 -1437 -13 -2263 -1 -2275 34 -3 10 120 95 182 125 17 8 59 46 95 85 128
138 217 218 346 310 236 169 269 229 374 681 68 290 128 456 343 944 171 391
180 411 227 530 149 372 214 656 213 930 0 278 -46 500 -133 655 -219 386
-285 615 -320 1125 -26 370 -51 418 -376 744 -672 673 -1277 1176 -1415 1176
-38 0 -38 0 20 150 22 58 52 138 66 178 29 79 34 83 115 102 159 37 249 138
267 301 8 72 9 74 40 84 82 27 116 90 117 215 0 68 -4 94 -21 130 -22 43 -22
44 -4 79 55 105 76 244 46 313 -25 62 -111 161 -183 214 -14 10 -13 19 10 80
54 143 68 234 68 440 0 208 -15 333 -62 514 -73 283 -212 455 -426 529 -98 34
-102 37 -102 66 0 115 -297 200 -610 175z m311 -75 c125 -18 219 -55 219 -85
0 -35 -335 -38 -504 -5 -84 16 -169 52 -163 68 11 34 283 47 448 22z m-457
-100 c51 -39 232 -75 373 -75 35 0 63 -4 63 -9 0 -5 -33 -28 -72 -51 -272
-160 -510 -382 -662 -618 -47 -71 -136 -251 -136 -272 0 -16 -48 -108 -82
-158 -36 -53 -110 -102 -153 -102 -76 0 -161 90 -191 202 -19 71 -18 111 6
203 63 245 256 479 620 750 58 43 123 93 144 112 43 36 61 40 90 18z m-174 0
c0 -2 -21 -19 -47 -37 -270 -185 -531 -457 -634 -660 -132 -261 -92 -535 92
-629 144 -73 293 32 389 276 83 212 165 338 335 514 221 231 587 463 703 446
372 -52 538 -266 608 -785 128 -957 -470 -1343 -1618 -1046 -377 98 -661 225
-899 402 -102 76 -102 76 -96 218 23 575 400 1084 933 1260 109 36 234 58 234
41z m-1225 -1547 c10 -58 36 -99 98 -151 264 -223 742 -422 1187 -496 361 -60
787 -29 982 70 77 39 208 196 307 367 23 39 46 72 51 72 23 0 139 -123 158
-167 34 -83 -1 -249 -71 -326 -50 -56 -101 -80 -577 -269 -41 -16 -89 -38
-107 -49 -18 -11 -37 -18 -43 -14 -6 4 -88 -4 -183 -16 -233 -31 -720 -34
-892 -5 -60 9 -135 21 -165 26 -30 5 -77 14 -105 19 -27 6 -63 14 -80 17 -214
44 -591 157 -808 243 -112 44 -300 139 -338 171 -31 25 -31 25 12 90 85 129
338 359 473 429 80 42 93 41 101 -11z m124 -32 c197 -143 358 -226 606 -312
635 -222 1216 -253 1560 -85 75 37 80 32 24 -25 -85 -87 -174 -117 -462 -154
-450 -58 -1155 127 -1597 418 -92 61 -190 152 -190 177 0 21 6 19 59 -19z
m2639 -777 c3 -91 -20 -149 -61 -157 -33 -7 -19 129 24 221 21 47 34 25 37
-64z m-123 24 c-4 -10 -11 -45 -16 -77 -13 -75 -16 -80 -42 -61 -77 54 -210
-23 -292 -169 l-38 -68 -80 80 c-44 44 -77 84 -73 90 3 5 54 29 113 52 60 23
117 46 128 50 11 5 49 20 85 34 36 13 94 38 130 55 77 35 95 38 85 14z m-4035
-105 c19 -6 55 -22 80 -37 64 -38 155 -77 230 -98 107 -30 407 -25 565 9 383
84 405 87 449 67 37 -17 50 -59 42 -137 -14 -133 -54 -183 -211 -264 -189 -97
-294 -183 -385 -314 -105 -152 -150 -271 -250 -667 -37 -150 -103 -387 -145
-527 -43 -140 -83 -275 -90 -300 -7 -25 -33 -115 -58 -200 -107 -363 -148
-572 -148 -750 0 -179 37 -264 99 -230 70 39 138 185 324 695 324 888 522
1264 759 1439 64 47 74 38 143 -127 87 -209 116 -356 141 -732 29 -439 61
-641 136 -865 49 -147 138 -340 199 -431 302 -449 626 -797 765 -823 108 -21
157 100 124 304 -23 146 -99 307 -339 725 -282 491 -365 711 -316 839 18 47
65 86 102 86 54 0 154 -77 410 -317 286 -268 365 -313 431 -251 47 44 26 90
-156 336 -202 275 -319 468 -338 562 -5 29 -4 32 13 27 10 -3 73 -24 139 -47
224 -77 333 -103 402 -97 227 22 362 277 418 792 27 251 26 248 69 139 104
-259 74 -437 -151 -881 -187 -368 -224 -471 -242 -666 -25 -266 44 -489 264
-852 53 -88 108 -184 122 -215 14 -30 36 -77 48 -105 104 -227 137 -538 91
-850 -17 -115 -83 -525 -108 -670 -19 -111 -17 -412 4 -455 26 -55 54 -75 104
-74 53 1 53 6 4 -58 -58 -77 -81 -129 -91 -211 -17 -146 -22 -155 -108 -194
-634 -291 -1253 -543 -1330 -543 -66 0 -271 836 -332 1350 -11 95 -11 95 -92
180 -217 228 -359 367 -427 420 -224 172 -450 465 -875 1135 -228 360 -226
357 -275 304 -16 -18 -48 -70 -71 -115 -40 -79 -42 -87 -41 -168 4 -289 124
-558 392 -881 173 -208 168 -236 -42 -273 -107 -19 -102 -11 -119 -183 -40
-418 79 -719 441 -1114 201 -219 245 -317 191 -423 -96 -186 -219 -97 -547
398 -204 308 -272 389 -342 407 -96 24 -137 -80 -147 -372 -10 -267 -41 -612
-84 -935 -28 -209 -52 -378 -62 -438 -6 -37 -19 -123 -30 -192 -11 -69 -24
-150 -29 -180 -5 -30 -13 -88 -19 -129 -17 -110 -10 -105 -142 -102 -133 3
-130 2 -118 44 44 149 64 619 55 1252 -4 248 -8 459 -9 470 -2 17 11 24 76 45
113 36 144 65 151 137 10 101 27 217 36 253 60 228 90 390 90 477 0 62 0 62
-41 73 -87 24 -281 40 -475 40 -168 0 -204 3 -214 15 -7 9 -11 17 -9 20 16 16
180 25 455 25 l322 0 6 98 c47 695 45 1226 -5 1410 -69 258 -178 322 -550 322
-161 0 -175 6 -209 98 -71 188 -64 695 15 1077 27 130 51 186 109 245 105 109
162 218 297 575 49 129 139 574 170 837 23 194 -3 238 -107 186 -144 -72 -239
-309 -318 -798 -14 -85 -42 -254 -61 -375 -42 -256 -72 -394 -90 -414 -9 -9
-54 -16 -142 -22 -187 -11 -241 -32 -411 -161 -127 -97 -246 -169 -281 -171
-40 -3 -86 98 -106 233 -9 58 -21 137 -27 175 -54 346 -270 528 -857 722 -140
46 -270 65 -301 44 -45 -31 2 -170 79 -230 34 -27 237 -131 256 -131 4 0 55
-25 115 -55 307 -154 418 -269 534 -555 22 -52 52 -121 68 -152 15 -32 28 -59
28 -60 0 -2 -33 -2 -72 0 -63 3 -107 -5 -329 -61 -367 -93 -422 -130 -470
-314 -30 -121 -26 -205 27 -555 22 -139 17 -153 -50 -142 -270 44 -793 412
-905 635 -36 73 -37 87 -11 205 57 260 49 445 -30 649 -87 228 -112 330 -113
470 -3 216 83 379 267 510 181 127 490 224 806 250 97 9 334 43 385 56 161 41
493 172 800 314 160 75 572 257 645 287 41 16 89 36 105 43 102 44 307 116
440 153 175 49 315 59 415 30z m1870 -78 c52 -12 114 -25 138 -29 23 -4 45
-11 49 -14 9 -10 -39 -8 -73 2 -16 5 -56 14 -89 21 -85 18 -165 40 -165 47 0
3 10 3 23 0 12 -3 65 -15 117 -27z m-260 -9 c19 -5 67 -19 105 -30 187 -57
450 -103 815 -142 179 -20 597 -17 689 4 87 20 156 52 181 84 26 33 32 30 104
-51 81 -90 136 -130 166 -121 12 4 34 33 54 73 66 130 121 182 193 182 128 0
114 -237 -19 -326 -25 -17 -77 -39 -115 -48 -37 -10 -79 -20 -93 -24 -22 -7
-33 -31 -92 -190 -279 -761 -536 -1073 -989 -1202 -216 -61 -596 -12 -762 99
-241 160 -379 443 -438 896 -26 207 5 689 51 774 15 29 84 38 150 22z m540
-51 c11 -7 5 -8 -20 -4 -43 8 -51 14 -19 14 13 0 31 -5 39 -10z m1169 -15
c-36 -36 -126 -48 -399 -52 -146 -2 -290 0 -320 5 -55 10 -55 10 30 11 239 3
671 39 689 56 2 3 7 3 10 0 2 -3 -2 -12 -10 -20z m-821 -32 c-10 -2 -28 -2
-40 0 -13 2 -5 4 17 4 22 1 32 -1 23 -4z m-1165 -351 c-12 -192 26 -519 82
-707 39 -130 40 -135 10 -78 -29 56 -85 113 -113 113 -24 0 -142 -91 -198
-153 -156 -173 -283 -391 -436 -751 -71 -166 -121 -298 -314 -826 -90 -247
-167 -419 -191 -427 -37 -13 -43 172 -13 352 33 197 75 351 259 965 56 184
130 452 166 595 146 590 252 756 590 928 50 25 103 55 119 66 42 28 45 21 39
-77z m-1683 -203 c-30 -260 -105 -643 -159 -804 -69 -212 -189 -476 -237 -525
-19 -20 -19 -13 11 155 14 77 32 187 41 245 97 664 177 933 303 1017 48 32 53
20 41 -88z m4088 -341 c51 -35 162 -119 202 -154 14 -12 75 -63 135 -115 262
-222 698 -631 966 -907 240 -246 258 -287 284 -627 41 -534 118 -800 329
-1150 37 -61 69 -150 87 -240 79 -407 43 -720 -139 -1210 -37 -100 -50 -132
-67 -170 -7 -16 -34 -79 -60 -140 -26 -60 -58 -135 -72 -165 -234 -514 -335
-784 -403 -1076 -97 -420 -137 -501 -315 -627 -55 -39 -126 -92 -157 -119 -74
-63 -82 -62 -73 10 7 60 -8 202 -30 287 -54 209 -202 424 -382 554 -174 126
-391 165 -533 94 -36 -17 -66 -30 -68 -29 -1 2 18 39 44 82 26 44 77 137 114
209 37 71 74 133 81 137 16 9 280 135 374 178 118 54 401 197 441 222 240 152
580 509 670 703 83 181 53 288 -112 391 -141 88 -278 107 -416 59 -89 -31
-104 -31 -123 -1 -30 45 -58 274 -85 696 -18 290 -18 307 28 490 114 457 134
870 56 1160 -47 173 -179 474 -304 690 -20 36 -49 85 -62 110 -45 79 -199 343
-231 395 -36 57 -140 186 -187 230 -32 30 -56 65 -45 65 4 0 27 -14 53 -32z
m15 -154 c46 -54 110 -146 167 -243 51 -86 103 -173 116 -193 13 -21 24 -40
24 -42 0 -3 14 -29 32 -58 163 -274 313 -606 370 -818 21 -79 23 -104 23 -365
0 -331 -24 -502 -116 -835 -22 -81 -22 -124 2 -460 33 -483 63 -656 122 -706
36 -30 45 -30 142 3 149 51 273 31 412 -63 80 -55 95 -83 91 -169 -4 -77 -18
-114 -84 -216 -93 -147 -325 -384 -518 -530 -75 -56 -276 -163 -536 -283 -91
-42 -192 -90 -225 -105 -33 -16 -63 -26 -68 -22 -12 12 11 158 32 199 63 124
240 295 570 552 428 332 529 452 451 535 -41 44 -152 60 -210 30 -38 -19 -118
-113 -335 -389 -547 -698 -626 -660 -480 234 25 151 47 289 50 305 38 231 45
503 19 657 -33 197 -135 440 -279 668 -228 360 -292 628 -225 942 29 132 89
270 270 613 55 105 112 252 134 348 30 128 16 346 -29 453 -29 69 -12 60 78
-42z m-263 68 c0 -27 -33 -282 -45 -352 -64 -359 -184 -540 -357 -540 -69 0
-418 100 -418 119 0 5 28 18 63 31 273 97 536 351 698 673 34 66 59 96 59 69z
m-6295 -257 c206 -53 504 -179 635 -268 160 -110 252 -260 279 -457 34 -239
44 -288 75 -349 19 -35 6 -41 -23 -12 -26 26 -42 57 -91 180 -148 372 -280
496 -745 701 -155 68 -220 113 -252 173 -30 59 -8 65 122 32z m4356 -136 c163
-275 384 -388 804 -408 130 -6 130 -6 139 -36 45 -151 143 -318 347 -595 155
-210 185 -260 155 -260 -48 0 -126 61 -347 271 -325 310 -426 364 -528 281
-111 -90 -117 -227 -19 -465 53 -129 199 -409 298 -572 110 -181 248 -449 278
-542 52 -157 47 -334 -8 -341 -52 -6 -192 106 -327 261 -314 360 -506 663
-597 940 -80 244 -102 386 -142 927 -21 289 -53 464 -111 617 -13 34 9 5 58
-78z m-2447 -697 c3 -5 -2 -31 -10 -58 -68 -226 -111 -825 -75 -1047 7 -43 11
-81 8 -83 -3 -3 -26 26 -51 64 -84 127 -276 372 -397 507 -147 164 -239 272
-239 280 0 6 26 24 57 40 32 17 89 53 128 81 38 28 105 76 148 107 119 86 178
103 399 115 15 1 29 -2 32 -6z m-1011 -363 c70 -36 257 -250 257 -294 0 -15
-34 -32 -165 -80 -343 -128 -532 -299 -652 -592 -22 -53 -22 -53 -117 -53 -96
0 -96 0 -96 70 0 38 -11 138 -25 222 -42 255 -32 419 30 518 49 77 115 111
300 154 39 9 120 29 180 45 138 37 228 40 288 10z m203 -31 c143 -155 454
-525 545 -648 212 -286 251 -388 189 -489 -116 -188 -137 -426 -75 -831 51
-334 25 -479 -101 -569 -172 -123 -307 -81 -496 152 -131 163 -265 238 -529
297 -163 37 -232 62 -247 90 -18 35 -9 129 34 345 61 308 56 469 -16 573 -36
52 -37 43 0 133 109 263 293 429 605 543 151 56 155 58 186 84 19 15 29 33 29
50 0 31 -89 168 -162 247 -55 60 -57 65 -25 65 15 0 38 -16 63 -42z m864
-1003 c19 -11 66 -14 191 -15 335 0 413 -50 476 -299 30 -120 28 -753 -4
-1292 l-6 -105 -281 0 c-370 1 -497 -20 -513 -83 -7 -30 4 -49 47 -78 31 -22
43 -23 214 -23 239 -1 448 -20 482 -45 16 -11 16 -19 5 -91 -14 -84 -45 -230
-60 -279 -19 -61 -50 -232 -57 -310 -8 -97 -9 -98 -91 -126 -60 -20 -73 -21
-147 -10 -45 6 -115 11 -157 11 -101 0 -180 15 -200 39 -34 41 -58 336 -59
712 0 210 -2 213 -147 303 -35 21 -63 40 -63 42 0 2 20 12 44 23 25 10 65 38
91 62 130 120 149 256 88 654 -55 364 -28 604 87 765 18 25 21 42 18 95 -3 69
1 74 42 50z m1294 -304 c411 -647 620 -914 883 -1127 50 -41 177 -164 281
-273 190 -197 190 -197 197 -267 38 -384 231 -1211 317 -1367 23 -40 26 -42
68 -40 105 3 553 179 1193 466 92 41 167 70 167 64 0 -15 -79 -159 -188 -342
-151 -254 -181 -328 -147 -365 10 -11 24 -20 32 -20 17 0 17 2 -7 -45 -25 -48
-25 -62 -1 -100 23 -38 105 -82 236 -128 314 -110 402 -162 445 -266 12 -30
42 -95 66 -144 52 -106 54 -129 14 -207 -31 -61 -72 -175 -97 -270 -8 -30 -32
-125 -54 -210 -74 -286 -108 -401 -121 -417 -7 -9 -44 -13 -120 -13 -99 0
-109 2 -104 18 3 9 21 71 41 137 50 164 66 245 54 267 -32 60 -79 -20 -139
-237 -57 -207 -37 -185 -167 -185 -106 0 -115 1 -108 18 35 85 104 366 105
425 0 42 -20 58 -47 36 -20 -17 -148 -276 -193 -393 -34 -86 -34 -86 -132 -86
-79 0 -98 3 -98 15 0 8 12 85 26 172 33 201 38 403 12 430 -36 36 -51 -8 -123
-387 -20 -102 -38 -195 -41 -207 -4 -23 -7 -23 -159 -23 -84 0 -156 3 -159 8
-6 10 19 207 45 357 34 198 40 247 33 295 -22 153 -116 174 -394 85 -250 -79
-361 -89 -390 -34 -31 56 69 154 415 409 125 93 280 163 565 256 423 137 510
177 537 242 24 57 7 66 -107 59 -306 -19 -638 -104 -1197 -308 -284 -103 -291
-105 -405 -118 -216 -25 -440 38 -903 250 -103 47 -337 139 -372 145 -38 7
-93 -38 -93 -76 0 -101 246 -249 874 -527 246 -109 556 -273 556 -294 0 -5
-405 -9 -901 -9 -900 0 -900 0 -894 48 4 26 15 97 25 157 10 61 23 146 30 190
6 44 15 100 20 125 5 25 14 81 20 125 6 44 15 107 20 140 5 33 14 101 20 150
6 50 15 117 20 150 10 62 21 162 40 345 6 58 13 125 15 150 3 25 12 173 20
330 16 321 29 390 70 390 30 0 129 -125 282 -355 285 -429 396 -547 518 -547
82 0 157 74 185 181 32 121 -9 200 -237 457 -218 248 -322 419 -380 629 -26
94 -28 112 -28 301 0 231 -1 227 83 245 256 52 267 128 56 387 -255 311 -374
578 -374 837 0 62 63 205 90 205 4 0 96 -139 204 -309z m-3064 241 c0 -5 -14
-21 -31 -38 -34 -32 -106 -140 -131 -194 -99 -216 -113 -306 -105 -644 12
-464 27 -496 236 -496 115 0 116 1 160 148 24 80 76 150 103 140 35 -14 48
-164 28 -328 -12 -94 -34 -188 -48 -202 -4 -4 -76 -13 -160 -18 -256 -16 -370
10 -439 99 -46 59 -53 94 -64 291 -5 96 -13 227 -19 290 -56 626 18 862 294
941 63 18 176 25 176 11z m169 -76 c51 -104 49 -191 -10 -510 -54 -291 -52
-373 10 -424 14 -12 13 -15 -12 -34 -36 -26 -71 -89 -92 -163 -27 -97 -36
-105 -105 -105 -75 0 -105 12 -125 49 -41 80 -53 639 -17 784 61 244 235 497
314 456 9 -5 26 -28 37 -53z m7126 -1290 c56 -24 42 -57 -72 -167 -59 -57
-378 -319 -503 -413 -22 -17 -6 6 160 216 80 101 157 200 172 220 108 144 164
177 243 144z m-5865 -321 c119 -60 120 -62 120 -343 0 -348 25 -615 61 -659
24 -28 70 -44 149 -50 45 -3 83 -10 87 -16 3 -5 6 -190 6 -411 0 -694 26
-1117 82 -1329 8 -32 15 -61 15 -64 0 -11 -1360 23 -1371 35 -4 4 -1 34 7 67
8 33 21 94 30 135 8 41 28 129 44 195 16 66 36 156 45 200 23 107 29 133 55
250 50 227 132 633 161 790 6 33 14 80 19 105 5 25 16 88 24 140 101 639 147
811 248 926 61 69 122 77 218 29z m605 -1833 c0 -701 -8 -908 -35 -936 -7 -7
-18 35 -34 134 -34 210 -66 1484 -38 1512 15 15 85 26 97 16 6 -6 10 -261 10
-726z m4421 339 c234 -91 442 -334 520 -611 30 -108 27 -331 -6 -389 -36 -64
-78 -86 -167 -86 -85 0 -82 -2 -93 72 -11 79 -31 123 -88 197 -35 45 -52 79
-65 131 -47 180 -178 356 -315 425 -61 32 -171 39 -226 16 -21 -9 -40 -16 -42
-16 -12 0 0 48 26 102 88 182 250 238 456 159z m-243 -320 c62 -30 137 -98
182 -166 38 -58 99 -195 90 -203 -3 -3 -42 13 -88 35 -46 23 -137 60 -203 83
-190 66 -203 72 -245 102 -48 35 -49 47 -4 97 75 83 167 101 268 52z m-499
-200 c7 -11 -111 -58 -279 -112 -289 -91 -482 -162 -588 -216 -189 -95 -556
-383 -602 -473 -17 -34 -27 -37 -45 -15 -40 49 -268 171 -585 315 -308 139
-378 173 -515 243 -208 107 -320 191 -292 219 15 15 109 -20 402 -150 641
-283 820 -304 1240 -142 501 192 826 283 1180 329 36 5 68 9 72 10 4 0 9 -3
12 -8z m1136 -638 c-1 -10 -171 -115 -177 -109 -2 2 5 19 16 37 12 19 21 44
21 57 0 21 4 22 70 22 39 0 70 -3 70 -7z m-30 -295 c179 -12 1611 -17 2635 -8
l590 5 -4 -260 c-2 -142 -6 -293 -10 -335 l-6 -75 -1802 -3 c-992 -1 -1803 1
-1803 5 0 5 9 37 21 73 11 36 38 135 60 220 111 431 102 404 133 396 11 -3 95
-11 186 -18z m-1065 -610 c-19 -57 -31 -76 -41 -65 -4 4 6 37 21 74 33 76 45
70 20 -9z m243 -146 c8 -26 -107 -387 -149 -463 -48 -88 -205 -129 -253 -66
-32 43 -30 163 4 209 58 79 93 139 132 230 32 73 48 98 63 100 46 7 200 -1
203 -10z m313 1 c9 -10 -57 -145 -101 -207 -51 -71 -157 -133 -182 -108 -20
20 62 318 90 325 29 6 185 -2 193 -10z m-1018 0 c2 -5 0 -37 -5 -73 -5 -36
-12 -126 -17 -200 -15 -243 -68 -314 -161 -214 -81 88 -120 217 -120 397 l0
97 149 0 c83 0 152 -3 154 -7z m309 2 c3 -3 -4 -31 -14 -63 -11 -31 -30 -97
-42 -147 -23 -90 -23 -90 -107 -132 -96 -50 -103 -51 -97 -20 25 117 80 352
84 359 6 9 167 11 176 3z m98 -10 c0 -13 -42 -87 -46 -82 -9 9 21 87 33 87 7
0 13 -2 13 -5z"/>
</g>
</svg>
